<svg version="1.1" id="svg1" width="5333.3335" height="5333.3335" viewBox="0 0 5333.3335 5333.3335" sodipodi:docname="9acd3f3f-b47f-4c80-967f-6bfc943a3514.eps" xmlns:inkscape="http://www.inkscape.org/namespaces/inkscape" xmlns:sodipodi="http://sodipodi.sourceforge.net/DTD/sodipodi-0.dtd" xmlns="http://www.w3.org/2000/svg" xmlns:svg="http://www.w3.org/2000/svg">
  <defs id="defs1"></defs>
  <sodipodi:namedview id="namedview1" pagecolor="#ffffff" bordercolor="#000000" borderopacity="0.25" inkscape:showpageshadow="2" inkscape:pageopacity="0.0" inkscape:pagecheckerboard="0" inkscape:deskcolor="#d1d1d1">
    <inkscape:page x="0" y="0" inkscape:label="1" id="page1" width="5333.3335" height="5333.3335" margin="0" bleed="0"></inkscape:page>
  </sodipodi:namedview>
  <g id="g1" inkscape:groupmode="layer" inkscape:label="1">
    <g id="group-R5">
      
      <path id="path3" d="m 20548.6,21008.8 c 0,0 -173.2,-800.8 -618.3,-1448.1 -1014.2,-1475.3 -2880,-1860.3 -2880,-1860.3 l 1225.8,-2310.5 c 0,0 2147.8,423 2787.8,1583.7 1173.6,2232.4 2440,4525.9 -515.3,4035.2" style="fill:#ffffff;fill-opacity:1;fill-rule:nonzero;stroke:none" transform="matrix(0.13333333,0,0,-0.13333333,0,5333.3333)" data-index="1"></path>
      <path id="path4" d="m 20669.7,18763.4 c 0,0 -338.9,-2287.6 -2895.2,-2428.1 l 501.6,-945.4 c 0,0 2147.8,423 2787.8,1583.7 187.6,356.8 377.5,715.2 552.2,1063.6 l -946.4,726.2" style="fill:#c3ddf4;fill-opacity:1;fill-rule:nonzero;stroke:none" transform="matrix(0.13333333,0,0,-0.13333333,0,5333.3333)" data-index="2"></path>
      <path id="path5" d="m 20548.6,21008.8 c 0,0 -122,-563.6 -424.1,-1127.4 489,-437.1 1197.9,-669.5 1996,-728.9 490.3,1287.7 382.3,2180.8 -1571.9,1856.3" style="fill:#c3ddf4;fill-opacity:1;fill-rule:nonzero;stroke:none" transform="matrix(0.13333333,0,0,-0.13333333,0,5333.3333)" data-index="3"></path>
      <path id="path6" d="m 18190.4,15209.9 -1381.4,2604 209,43.2 c 17.9,3.7 1816.1,391.5 2780.5,1794.2 421,612.4 592.1,1383.7 593.7,1391.4 18.8,86.3 103.9,141.1 190.3,122.4 86.4,-18.7 141.2,-103.8 122.5,-190.1 -7.3,-34 -185.2,-839.3 -642.9,-1504.9 -849.6,-1235.9 -2249.9,-1727.9 -2774.8,-1875 l 1072.9,-2022.4 c 444.7,105.8 2049.3,545.5 2563.5,1478.1 42.7,77.4 140,105.5 217.4,62.9 77.4,-42.7 105.5,-140 62.9,-217.4 -668.3,-1212 -2806.3,-1645.5 -2897,-1663.4 l -116.6,-23" style="fill:#021149;fill-opacity:1;fill-rule:nonzero;stroke:none" transform="matrix(0.13333333,0,0,-0.13333333,0,5333.3333)" data-index="4"></path>
      <path id="path7" d="m 21215.7,16847.4 c 0,0 -806.3,-383.6 -1580.1,-933.2 -762.9,549.6 -2124.2,88.6 -1258.3,-2068.3 456.7,-1137.3 1026.9,-1453.5 1591,-1395.7 564,57.9 2661.2,808.2 2661.2,808.2" style="fill:#ffffff;fill-opacity:1;fill-rule:nonzero;stroke:none" transform="matrix(0.13333333,0,0,-0.13333333,0,5333.3333)" data-index="5"></path>
      <path id="path8" d="m 21936.6,15017.2 c -783.2,-315.5 -992.1,-977.8 -1480.2,-1167.6 -488.1,-189.9 -645.4,1399.3 -1399.3,1167.6 -649.6,-199.5 -607.2,-1345.7 -110.8,-2142.5 324.3,-353.3 674.3,-460.1 1022,-424.5 564,57.9 2661.2,808.2 2661.2,808.2 l -692.9,1758.8" style="fill:#c3ddf4;fill-opacity:1;fill-rule:nonzero;stroke:none" transform="matrix(0.13333333,0,0,-0.13333333,0,5333.3333)" data-index="6"></path>
      <path id="path9" d="m 19842.2,12283.7 c -670.4,-0.1 -1212.7,504.6 -1613.4,1502.6 -602.9,1501.7 -109.3,2101.1 130.8,2289.1 346.8,271.5 856.1,280.1 1272.9,32 746.6,517.2 1482.3,869.2 1514.5,884.5 79.9,37.9 175.2,4 213.2,-75.8 38,-79.7 4.1,-175.2 -75.7,-213.2 -8,-3.7 -803.5,-384.6 -1556.2,-919.2 l -93.3,-66.3 -92.9,66.9 c -312.4,225.1 -726.7,241.5 -985.2,39.2 -387.4,-303.3 -398.7,-1002.3 -31.1,-1918 374.3,-932.2 840.8,-1356.2 1426.1,-1296.1 538.6,55.2 2602.9,792.2 2623.7,799.6 83.2,29.9 174.8,-13.5 204.6,-96.7 29.7,-83.2 -13.6,-174.8 -96.8,-204.6 -86.4,-30.9 -2122.1,-757.5 -2698.8,-816.7 -48.1,-4.9 -95.6,-7.3 -142.4,-7.3" style="fill:#021149;fill-opacity:1;fill-rule:nonzero;stroke:none" transform="matrix(0.13333333,0,0,-0.13333333,0,5333.3333)" data-index="7"></path>
      <path id="path10" d="m 20287.8,14149.9 c -56.7,461.1 -199.1,931.8 -460.1,1317.8 -86.6,124.6 -188.7,233.4 -299,327.4 -71.4,56.2 -82.3,161.2 -23.1,230.3 60.5,71.8 171.9,75.4 236.9,7.8 248.7,-250.4 412.6,-563.4 516.8,-892.7 98.5,-322.3 151.8,-648.8 157.8,-985.7 0.4,-35.7 -28.2,-64.9 -63.9,-65.4 -34.7,-0.4 -63.1,26.7 -65.4,60.5" style="fill:#021149;fill-opacity:1;fill-rule:nonzero;stroke:none" transform="matrix(0.13333333,0,0,-0.13333333,0,5333.3333)" data-index="8"></path>
      <path id="path11" d="m 29069.2,15606.8 c 1307.1,-1079.3 2386.4,-276.6 2303.3,553.2 -122.3,1220.5 -1171.6,1670.5 -1663.3,3485.7 -491.7,1815.1 448.4,3307.6 2010.4,3304.8 1600.1,-2.9 2371.9,-1393.9 2292.4,-2364.7 -52.3,-638.3 -614.7,-873.3 -1070.3,-650.9 -534.1,260.7 -623.7,857 -1073.9,932.9 -450.1,75.9 -818.9,-390.5 -585.7,-1144.4 233.2,-753.9 1276.3,-1662.7 1556.6,-3145.7 326,-1725.3 -520.7,-3151.2 -2142.4,-3297.6 -1532.5,-138.4 -2209.2,688.8 -2209.2,688.8 l 582.1,1637.9" style="fill: rgb(255, 255, 255); fill-opacity: 1; fill-rule: nonzero; opacity: 1;" transform="matrix(0.13333333,0,0,-0.13333333,0,5333.3333)" data-index="9"></path>
      <path id="path12" d="m 32838.7,16577.7 c -280.3,1483 -1323.4,2391.8 -1556.6,3145.7 -233.2,753.9 135.6,1220.3 585.7,1144.4 450.2,-75.9 539.8,-672.2 1073.9,-932.9 386.4,-188.6 849.4,-48.1 1013.2,388.2 -86.7,-44.1 -203.8,-61.2 -362.3,-27.8 -629.2,132.6 -543.8,759.7 -1323.4,1245 -900.4,560.5 -2111.6,-459.2 -1475.3,-1995.9 631.6,-1525 2253.6,-3082.2 1345.1,-4675.7 -732.4,-1284.6 -2418,-1078.4 -3410.8,-221.3 l -241.1,-678.5 c 0,0 676.7,-827.2 2209.2,-688.8 1621.7,146.4 2468.4,1572.3 2142.4,3297.6" style="fill: rgb(195, 221, 244); fill-opacity: 1; fill-rule: nonzero; opacity: 1;" transform="matrix(0.13333333,0,0,-0.13333333,0,5333.3333)" data-index="10"></path>
      <path id="path13" d="m 31719.6,22950.5 c -1562,2.8 -2502.2,-1489.7 -2010.4,-3304.8 32.2,-119 66.9,-231.8 103.5,-339.6 2.7,4 555,842.8 1439.6,526.5 -166.5,689.1 187.5,1107.4 615.5,1035.2 450.2,-75.9 539.8,-672.2 1073.9,-932.9 455.6,-222.4 1018,12.6 1070.3,650.9 79.5,970.8 -692.3,2361.8 -2292.4,2364.7" style="fill:#ffa84a;fill-opacity:1;fill-rule:nonzero;stroke:none" transform="matrix(0.13333333,0,0,-0.13333333,0,5333.3333)" data-index="11"></path>
      <path id="path14" d="m 31084.5,15389.8 c 136.4,133.5 230.1,300.7 270.3,480.5 -40.1,-179.5 -133.5,-346.6 -269.6,-480 -0.2,-0.2 -0.4,-0.3 -0.7,-0.5 m 270.5,481 c 0,0.2 0.1,0.5 0.1,0.7 0,-0.3 -0.1,-0.5 -0.1,-0.7" style="fill:#d7efff;fill-opacity:1;fill-rule:nonzero;stroke:none" transform="matrix(0.13333333,0,0,-0.13333333,0,5333.3333)" data-index="12"></path>
      <path id="path15" d="m 31085.2,15390.3 c 136.1,133.4 229.5,300.5 269.6,480 0.1,0.2 0.1,0.3 0.2,0.5 0,0.2 0.1,0.4 0.1,0.7 20.9,93.8 27.2,191 17.5,288.5 -120,1196.8 -1131.2,1652.9 -1633.9,3380.9 23.6,-81 48.4,-159.1 74,-234.8 1.2,1.7 101.8,154.4 285,305 209.3,-750.1 615.5,-1449.6 898.9,-1874.4 324.1,-486.9 472,-984.8 472,-1408 0,-407 -136.6,-745 -383.4,-938.4" style="fill:#ffffff;fill-opacity:1;fill-rule:nonzero;stroke:none" transform="matrix(0.13333333,0,0,-0.13333333,0,5333.3333)" data-index="13"></path>
      <path id="path16" d="m 29654.5,19873.8 c -207.1,992.5 17.8,1870.2 535.6,2431.5 -517.7,-561.3 -742.5,-1438.9 -535.6,-2431.5 m 4087.5,141.4 v 0.1 c 94.6,79.8 171.4,188.4 219.3,325.1 -47.8,-136.8 -124.6,-245.4 -219.3,-325.2 m 172,1344 v 0 0 m -0.8,2.8 c -0.1,0.2 -0.2,0.4 -0.3,0.6 0.1,-0.2 0.2,-0.4 0.3,-0.6 m -0.9,2.7 c -67,207.4 -165.8,413.4 -296.4,605.2 130.6,-191.7 229.4,-397.9 296.4,-605.2 m -296.6,605.5 c -0.4,0.6 -0.8,1.3 -1.3,1.9 0.5,-0.6 0.9,-1.3 1.3,-1.9 m -3425.5,335.2 c 0.7,0.8 1.5,1.7 2.2,2.4 -0.8,-0.8 -1.4,-1.5 -2.2,-2.4 m 3,3.3 c 0.6,0.6 1.2,1.3 1.8,2 -0.6,-0.7 -1.2,-1.4 -1.8,-2 m 3.3,3.5 c 0.3,0.4 0.6,0.7 1,1.1 -0.4,-0.4 -0.7,-0.7 -1,-1.1 m 2.4,2.7 h 0.1 -0.1 m 1472.1,635.2 c 1,0 2,0 3,0 -1,0 -2,0 -3,0 m 3.4,0 c 13.7,0.3 27.5,0.4 41.3,0.4 1.3,0 2.7,0 4,0 3.6,0 7.2,0 10.8,-0.1 -3.6,0.1 -7.3,0.1 -10.9,0.1 -1.5,0 -3,0 -4.4,0 -13.6,0 -27.3,-0.1 -40.8,-0.4" style="fill:#d7efff;fill-opacity:1;fill-rule:nonzero;stroke:none" transform="matrix(0.13333333,0,0,-0.13333333,0,5333.3333)" data-index="14"></path>
      <path id="path17" d="m 29812.7,19306.1 c -25.6,75.7 -50.4,153.8 -74,234.8 -10.1,34.4 -19.8,69.2 -29.4,104.7 -20.8,76.7 -39.1,152.7 -54.8,228.2 -206.9,992.6 17.9,1870.2 535.6,2431.5 0,0.1 0,0.1 0.1,0.1 0.8,0.9 1.4,1.6 2.2,2.4 0.3,0.3 0.5,0.6 0.8,0.9 0.6,0.6 1.2,1.3 1.8,2 0.5,0.5 1,1 1.5,1.5 0.3,0.4 0.6,0.7 1,1.1 0.5,0.5 0.9,1 1.4,1.6 h 0.1 c 56.9,61 117.4,118.1 181.1,171.2 343.4,286.2 783.4,454.7 1290.9,464 1,0 2,0 3,0 0.1,0 0.3,0 0.4,0 13.5,0.3 27.2,0.4 40.8,0.4 1.4,0 2.9,0 4.4,0 3.6,0 7.3,0 10.9,-0.1 142.7,-0.9 278.8,-12.8 408.1,-34.3 670.9,-112.3 1163.7,-486.9 1475.8,-944 0.5,-0.6 0.9,-1.3 1.3,-1.9 0.1,-0.1 0.2,-0.2 0.2,-0.3 130.6,-191.8 229.4,-397.8 296.4,-605.2 0.2,-0.7 0.4,-1.3 0.6,-2.1 0.1,-0.2 0.2,-0.4 0.3,-0.6 0.2,-0.9 0.5,-1.9 0.8,-2.8 v 0 c 84.9,-265.2 117.6,-532.3 97.8,-773.4 -7.3,-89.9 -24.7,-171.7 -50.5,-245.4 -47.9,-136.7 -124.7,-245.3 -219.3,-325.1 248.4,1015.4 -485.7,2253.7 -1514.2,2497.2 -121.9,-187.8 -428.7,-363.3 -809.8,-443.1 -136.3,-28.5 -268.7,-42 -391.3,-42 -137,0 -261.7,16.9 -365.3,48.7 -784.4,-657.5 -806.3,-1595.3 -563.7,-2465 -183.2,-150.6 -283.8,-303.3 -285,-305" style="fill:#ffd4a5;fill-opacity:1;fill-rule:nonzero;stroke:none" transform="matrix(0.13333333,0,0,-0.13333333,0,5333.3333)" data-index="15"></path>
      <path id="path18" d="m 31252.3,19832.6 c -166.5,689.1 187.5,1107.4 615.5,1035.2 450.2,-75.9 539.8,-672.2 1073.9,-932.9 386.4,-188.6 849.4,-48.1 1013.1,388.2 -86.6,-44.1 -203.7,-61.2 -362.2,-27.8 -629.2,132.6 -543.8,759.7 -1323.4,1245 -831.3,517.5 -1927.6,-312.1 -1589.9,-1652 170.2,29 362,19.7 573,-55.7" style="fill:#e27a2d;fill-opacity:1;fill-rule:nonzero;stroke:none" transform="matrix(0.13333333,0,0,-0.13333333,0,5333.3333)" data-index="16"></path>
      <path id="path19" d="m 30353.7,13104.3 c -1349.3,-0.1 -1963,729.6 -1990.5,763.3 -55.9,68.4 -45.8,169.2 22.5,225.1 68.5,55.9 169.3,45.9 225.2,-22.5 25.4,-30.6 650.2,-759.5 2071,-630.8 665.2,60.1 1211.3,349.3 1579.3,836.3 438.2,580.1 587.5,1387.1 420.2,2272.3 -167.3,885.3 -628.6,1577.2 -999.4,2133.1 -245.2,367.7 -457,685.3 -552.8,995 -141.3,456.9 -92.3,867.6 134.5,1126.7 159.5,182.3 389.4,263.5 630.7,222.7 296.3,-49.9 462.5,-268.8 623.2,-480.4 133.6,-175.9 271.8,-357.8 494.3,-466.4 182.3,-89 387.6,-87.3 549.2,4.7 168.5,95.9 272,279 291.4,515.4 42.4,517.6 -173.4,1102.5 -563.3,1526.3 -278.4,302.8 -776.8,663.9 -1569.9,665.4 -1.3,0 -2.7,0 -4.1,0 -620.6,0 -1159.9,-257.8 -1519.1,-726.4 -458.4,-598 -579.6,-1464.3 -332.5,-2376.6 242.1,-893.6 624.2,-1447.9 961.4,-1937 344.6,-499.9 642.2,-931.7 706.7,-1574.5 44.8,-447.4 -193.9,-879.2 -608.3,-1100.4 -267,-142.4 -992.2,-388.1 -1956.1,407.8 -68.1,56.3 -77.7,157.2 -21.5,225.3 56.3,68.1 157.1,77.8 225.3,21.5 573.6,-473.7 1157.4,-609.3 1601.7,-372.3 299.4,159.9 472.3,468.4 440.5,786.2 -56.2,560.9 -319.1,942.1 -651.8,1424.7 -351.7,510.3 -750.3,1088.6 -1006.8,2035 -273.4,1009.4 -132.2,1977.1 387.5,2655 421,549.3 1050.6,851.7 1773,851.7 1.6,0 3.1,0 4.7,0 908.9,-1.7 1483.2,-419 1804.9,-768.7 448.3,-487.5 696.1,-1165.4 646.6,-1769.1 -28.2,-345 -188.8,-617.6 -452,-767.4 -253.5,-144.2 -570.4,-149.6 -847.9,-14.2 -290.9,142 -459.7,364.4 -608.7,560.5 -155.2,204.3 -258.5,330.9 -421.6,358.4 -131.1,22 -250.8,-19.7 -336.7,-117.9 -149.8,-171.1 -175.8,-478.2 -69.6,-821.5 82.1,-265.3 282,-565 513.4,-912 386.8,-580 868.2,-1301.9 1047.6,-2251.2 184.2,-975 13.9,-1871.5 -479.4,-2524.6 -423.8,-561 -1048.3,-893.7 -1805.8,-962.1 -124.2,-11.2 -243.3,-16.4 -357,-16.4" style="fill: rgb(2, 17, 73); fill-opacity: 1; fill-rule: nonzero; opacity: 1;" transform="matrix(0.13333333,0,0,-0.13333333,0,5333.3333)" data-index="17"></path>
      <path id="path20" d="m 20702.3,19240.7 c -538.8,-2429.8 -133.8,-5412.8 2035.7,-5982.3 2169.4,-569.5 4986.1,-475.2 4986.1,-475.2 0,0 1817,773.5 1464.4,3275.6 -373.4,2650.6 -2641.3,3149.3 -2646.7,5293.5 l -5336.9,101.2 -502.6,-2212.8" style="fill:#ffffff;fill-opacity:1;fill-rule:nonzero;stroke:none" transform="matrix(0.13333333,0,0,-0.13333333,0,5333.3333)" data-index="18"></path>
      <path id="path21" d="m 27615.7,15768.6 -3535.4,1064 c 0,0 -2640,-3537.8 -3553.3,-305 160.4,-1558.7 826.1,-2905.7 2211,-3269.2 2169.4,-569.5 4986.1,-475.2 4986.1,-475.2 0,0 57.9,24.7 150.8,79.2 l -259.2,2906.2" style="fill:#c3ddf4;fill-opacity:1;fill-rule:nonzero;stroke:none" transform="matrix(0.13333333,0,0,-0.13333333,0,5333.3333)" data-index="19"></path>
      <path id="path22" d="m 28349.7,14868.7 c -941.3,88.8 -1100.4,-1432.4 -1121.2,-2091.3 310.9,-0.4 495.6,5.8 495.6,5.8 0,0 1464.7,624 1508.5,2562.9 -187.5,-257 -168.8,-544.7 -882.9,-477.4" style="fill:#c3ddf4;fill-opacity:1;fill-rule:nonzero;stroke:none" transform="matrix(0.13333333,0,0,-0.13333333,0,5333.3333)" data-index="20"></path>
      <path id="path23" d="m 20755.8,19476.4 c 1593.3,-725.1 4264.7,-235.6 5941.4,968.7 -97.2,271.4 -154.6,568.7 -155.4,907.2 l -5336.9,101.2 -449.1,-1977.1" style="fill:#c3ddf4;fill-opacity:1;fill-rule:nonzero;stroke:none" transform="matrix(0.13333333,0,0,-0.13333333,0,5333.3333)" data-index="21"></path>
      <path id="path24" d="m 20750.4,19230 c -196.5,-1752 -295.7,-4220.8 1235.8,-5413.3 229.8,-172 499.5,-296.9 776.5,-373.1 1132.2,-294.5 2305.4,-410.1 3473.1,-476 493.9,-24.8 991.8,-37.2 1483.3,-34.5 l -53.7,-11.9 c 1720.9,888.2 1711.8,3173.3 840.4,4674.9 -100.1,172.7 -210.5,340 -329,502.7 -484.8,668.9 -1116.3,1234.3 -1493.3,1994.9 -193.6,387.2 -289.1,826 -291.8,1258.2 -0.9,82.9 65.5,150.8 148.4,151.7 83.8,1.1 152.2,-67.1 151.7,-150.9 3.2,-391.3 86.4,-776.8 261.5,-1127.5 361.1,-725.6 987.8,-1286.6 1465.6,-1949.1 249.5,-341.2 468.3,-709.5 626.9,-1103.3 464.2,-1177.3 518.4,-2633.7 -266.7,-3689 -264.7,-349.6 -597.6,-648.4 -996.2,-838.7 l -23.7,-10.6 -30.1,-1.3 c -1132.8,-40.6 -2261.4,3.9 -3386.2,139.8 -620.7,81.9 -1270.2,188 -1868.5,373.1 -2279.5,837.6 -2460.5,4126.3 -1820.3,6105.3 8.3,26 36.2,40.4 62.3,32.1 23.1,-7.4 37,-30.3 34,-53.5" style="fill: rgb(2, 17, 73); fill-opacity: 1; fill-rule: nonzero; opacity: 1;" transform="matrix(0.13333333,0,0,-0.13333333,0,5333.3333)" data-index="22"></path>
      <path id="path25" d="m 25442.6,18517.5 c 242.2,-1912.7 -152,-5408.6 -213.2,-5656.5 -162.9,-660.2 -985.4,-786.8 -1605.6,-898.9 -995.2,-179.9 -2226.9,100.6 -2402.7,607.5 -116.6,336.2 -130.2,1476.3 1125.4,1622.2 95,357.4 263.1,1013.7 311.9,2217.7 61.6,1519 -119.3,2278 -119.3,2278" style="fill:#ffffff;fill-opacity:1;fill-rule:nonzero;stroke:none" transform="matrix(0.13333333,0,0,-0.13333333,0,5333.3333)" data-index="23"></path>
      <path id="path26" d="m 24225,12880 c -546.5,-402.1 -2476.2,-234.9 -3051.1,134.5 -11,-186.1 13.8,-348.6 47.2,-444.9 175.8,-506.9 1407.5,-787.4 2402.7,-607.5 620.2,112.1 1442.7,238.7 1605.6,899 61.2,247.8 455.4,3743.7 213.2,5656.4 -397.8,-658 -278,-4946.4 -1217.6,-5637.5" style="fill:#c3ddf4;fill-opacity:1;fill-rule:nonzero;stroke:none" transform="matrix(0.13333333,0,0,-0.13333333,0,5333.3333)" data-index="24"></path>
      <path id="path27" d="m 25513.4,18526.5 c 133.4,-515.9 157,-1046.6 158.4,-1570.8 1.1,-1049.5 -61.6,-2094.9 -157.1,-3139.1 -24.6,-261.1 -50.9,-521.1 -84.7,-784 l -13.7,-99.6 c -28.1,-266.3 -186.4,-529.6 -399.1,-686.7 -343.1,-257.8 -763.8,-342.6 -1170.8,-420.6 -397.5,-82.1 -809.9,-114.8 -1213.3,-76.9 -510.2,52.3 -1247.8,189.9 -1535.2,675 -180.1,395.1 -102.9,933.7 121.2,1298.3 228.9,384.5 689.8,590.8 1108.9,628.6 l -136.1,-117.8 c 185.4,722.3 268.3,1459.2 307.7,2203.6 38.7,745.4 25.2,1497.3 -22.6,2240.2 -2.5,35.2 24,65.7 59.2,68.2 29.3,2.1 55.5,-16.2 64.7,-42.7 123.9,-369.5 169.8,-749.3 198.7,-1133.7 60.8,-1143.3 18.5,-2311.1 -298.4,-3417.8 l -29.3,-101.1 -106.9,-16.7 c -352.5,-44.2 -677.8,-187.4 -861.4,-487.8 -157.9,-262.3 -202.3,-603.3 -125.9,-899.9 75.5,-217 348.4,-325.4 561.6,-404.5 464.3,-153.6 982.2,-189.8 1469.1,-134.9 536.4,92.7 1505,182.7 1654.2,797.5 127.8,824.5 190.7,1665.3 248.2,2498.4 32.4,518.2 54.2,1036.8 57.8,1554.6 2,518.3 -2.7,1032.6 3.2,1552.3 0,39.9 32.8,72.3 72.7,71.8 33.2,-0.4 60.9,-23.2 68.9,-53.9" style="fill:#021149;fill-opacity:1;fill-rule:nonzero;stroke:none" transform="matrix(0.13333333,0,0,-0.13333333,0,5333.3333)" data-index="25"></path>
      <path id="path28" d="m 23200.4,14045.7 c -215.3,12.6 -429.7,15.6 -643.9,4.1 -69.3,-4 -143.4,-9.2 -205,-17.9 -88.1,-12.5 -169.5,48.8 -181.9,136.8 -15.6,100.4 71,192.1 172,183 157.9,-13 298.4,-38.5 450,-68.2 145.7,-29.8 289.4,-64.6 431.3,-104 36.3,-10.1 57.6,-47.7 47.5,-84 -8.8,-31.5 -38.6,-51.7 -70,-49.8" style="fill:#021149;fill-opacity:1;fill-rule:nonzero;stroke:none" transform="matrix(0.13333333,0,0,-0.13333333,0,5333.3333)" data-index="26"></path>
      <path id="path29" d="m 22248.3,13582.9 c -278,-352.3 -365.3,-818.1 -380.9,-1257.3 l -1.4,-195.1 v -5.4 c -0.5,-66.2 -54.6,-119.5 -120.8,-119.1 -168.2,9.7 -110.1,214.1 -119.2,327.5 16.3,351.5 86,707 260.6,1017.2 41.3,73.1 283.5,441 370.3,315.9 18.9,-26.9 13.2,-61.6 -8.6,-83.7" style="fill:#021149;fill-opacity:1;fill-rule:nonzero;stroke:none" transform="matrix(0.13333333,0,0,-0.13333333,0,5333.3333)" data-index="27"></path>
      <path id="path30" d="m 23320.6,13388 c -242.3,-302.7 -331.2,-703 -363,-1082.7 -9.9,-130.2 -9.2,-260.9 -9.8,-391.4 2.2,-68.6 -53.5,-126.3 -122.5,-124.6 -64.8,1.3 -116.6,54.1 -117.5,118.4 -3.3,210.9 8.3,422.9 53.6,629.3 42.3,207 114.2,413 220.2,596.5 74.9,122.3 157.1,236.6 277.9,328.7 21,16 51,12 67,-9 15.7,-20.5 11.5,-48 -5.9,-65.2" style="fill:#021149;fill-opacity:1;fill-rule:nonzero;stroke:none" transform="matrix(0.13333333,0,0,-0.13333333,0,5333.3333)" data-index="28"></path>
      <path id="path31" d="m 27886.8,13258.4 -162.7,-475.2 c 0,0 -336.2,-907.9 -987.1,-1222.4 -740.5,-357.9 -1482.7,-23.1 -2126.1,927.4 -840.6,1242 -737.6,3280.4 707,3280.4 442.9,1243 2156.7,1579.2 2888.9,109.4 280.3,-488.1 171.8,-1725.6 -320,-2619.6" style="fill:#ffffff;fill-opacity:1;fill-rule:nonzero;stroke:none" transform="matrix(0.13333333,0,0,-0.13333333,0,5333.3333)" data-index="29"></path>
      <path id="path32" d="m 25810.8,12303.8 c -786.7,-100.2 -1170,382.4 -1170,382.4 0,0 323.4,-682.4 878.3,-1093.7 395.1,-215.3 806.7,-230.5 1217.9,-31.7 650.9,314.5 987.1,1222.4 987.1,1222.4 l 162.7,475.2 c 271.5,493.4 426,1091.4 462.9,1610.3 -1055.8,-24.8 -849.7,-2349.8 -2538.9,-2564.9" style="fill:#c3ddf4;fill-opacity:1;fill-rule:nonzero;stroke:none" transform="matrix(0.13333333,0,0,-0.13333333,0,5333.3333)" data-index="30"></path>
      <path id="path33" d="m 27955,13235 c -35.2,-166 -77.3,-339.6 -123.1,-503.4 -149.8,-444.8 -400.9,-863.9 -773.1,-1160.3 -658.8,-490.1 -1421.8,-386.5 -2016.1,150.1 -719.3,641.7 -1152.9,1585.3 -1133.6,2553 6,848.4 470.5,1666.1 1408.6,1644.8 1.1,0.4 -141.9,-100.1 -141.7,-100 206.3,658.8 842.1,1166 1540.8,1185.4 705.6,37.4 1338,-445.7 1549.9,-1096.8 12.2,-35.1 -6.4,-73.6 -41.6,-85.8 -29.6,-10.3 -61.5,1.3 -78.1,26.2 -258.1,369.7 -570.2,681.4 -1000.4,797 -700,190.4 -1441.4,-261.6 -1686.8,-927.2 l -39.4,-98.2 -102.7,-1.8 c -1183,-24.9 -1203.3,-1523.9 -893.1,-2360.7 168.1,-486 470.1,-930.4 847.4,-1275.9 235.6,-213.6 544.3,-384.9 866.4,-390.9 316.7,-8.1 640.2,133.9 864.7,358.8 244.7,234.5 437.3,536 592.7,839.6 16.6,31 38.3,85.8 52.8,119.5 51.9,122 112.6,254.3 170.1,373.3 36.5,76.2 154.1,35.6 136.3,-46.7" style="fill:#021149;fill-opacity:1;fill-rule:nonzero;stroke:none" transform="matrix(0.13333333,0,0,-0.13333333,0,5333.3333)" data-index="31"></path>
      <path id="path34" d="m 25325.2,15928.4 c 945.1,-58.2 1461.2,-1112.3 1459.7,-1950.7 0,-95.6 -138.2,-112.1 -160.4,-19.3 -90.8,381.4 -221.5,757.4 -443.9,1076.9 -205.6,295.5 -509.2,544.7 -870,573.4 -207.9,18.3 -194.5,320.2 14.6,319.7" style="fill:#021149;fill-opacity:1;fill-rule:nonzero;stroke:none" transform="matrix(0.13333333,0,0,-0.13333333,0,5333.3333)" data-index="32"></path>
      <path id="path35" d="m 26297.1,12958.6 c 134.3,-409.4 -4.3,-822.4 -309.5,-922.5 -305.3,-100.1 -661.6,150.6 -795.8,560 -134.3,409.4 4.3,822.4 309.6,922.5 305.2,100.1 661.5,-150.6 795.7,-560" style="fill:#ffa4a4;fill-opacity:1;fill-rule:nonzero;stroke:none" transform="matrix(0.13333333,0,0,-0.13333333,0,5333.3333)" data-index="33"></path>
      <path id="path36" d="m 26327.9,12457.8 c -150.1,-75.1 -320.7,-129 -517.1,-154 -179.1,-22.8 -337.1,-15.2 -474.6,9.8 171.2,-232.9 425.2,-351.7 651.3,-277.5 175.2,57.4 295.1,218.1 340.4,421.7" style="fill:#e2617d;fill-opacity:1;fill-rule:nonzero;stroke:none" transform="matrix(0.13333333,0,0,-0.13333333,0,5333.3333)" data-index="34"></path>
      <path id="path37" d="m 24945,13785 c 62.9,-192 14,-380.4 -109.3,-420.8 -123.3,-40.5 -274.3,82.4 -337.3,274.4 -63,192 -14,380.4 109.3,420.9 123.3,40.4 274.3,-82.5 337.3,-274.5" style="fill:#ffa4a4;fill-opacity:1;fill-rule:nonzero;stroke:none" transform="matrix(0.13333333,0,0,-0.13333333,0,5333.3333)" data-index="35"></path>
      <path id="path38" d="m 26271,14219.9 c 63,-192 14,-380.4 -109.3,-420.9 -123.3,-40.4 -274.3,82.5 -337.3,274.5 -62.9,192 -14,380.4 109.3,420.8 123.3,40.5 274.3,-82.4 337.3,-274.4" style="fill:#ffa4a4;fill-opacity:1;fill-rule:nonzero;stroke:none" transform="matrix(0.13333333,0,0,-0.13333333,0,5333.3333)" data-index="36"></path>
      <path id="path39" d="m 25421.9,14542.9 c 67.6,-206.1 7.2,-410.9 -135,-457.5 -142.1,-46.6 -312.1,82.6 -379.7,288.8 -67.6,206.1 -7.2,410.9 135,457.5 142.1,46.6 312.1,-82.7 379.7,-288.8" style="fill:#ffa4a4;fill-opacity:1;fill-rule:nonzero;stroke:none" transform="matrix(0.13333333,0,0,-0.13333333,0,5333.3333)" data-index="37"></path>
      <path id="path40" d="m 21514,20461 c -2811.2,175.4 -4831.3,1310.1 -5277.2,2945.1 -439.3,1610.8 401.3,2646.7 401.3,2646.7 0,0 -70.5,1545.8 618.3,3514.6 -188,860.5 -474.8,3831.1 477.3,4338.9 976.3,520.7 2874.6,-1280 2874.6,-1280 0,0 2332.2,846.1 4751.1,32.6 0,0 2549.1,1833.2 3774.9,1030.5 1225.7,-802.8 0,-4436.6 0,-4436.6 0,0 759.3,-1692.2 661.7,-3221.7 0,0 1619.8,-5336.9 -6479.5,-5582.7 L 21514,20461" style="fill:#ffffff;fill-opacity:1;fill-rule:nonzero;stroke:none" transform="matrix(0.13333333,0,0,-0.13333333,0,5333.3333)" data-index="38"></path>
      <path id="path41" d="m 17556,30131.4 c 0,0 -359.2,2061 90.9,2820.3 450.2,759.4 1215,65.9 1621,-993.8 -863.7,-492.1 -1711.9,-1826.5 -1711.9,-1826.5" style="fill:#c3ddf4;fill-opacity:1;fill-rule:nonzero;stroke:none" transform="matrix(0.13333333,0,0,-0.13333333,0,5333.3333)" data-index="39"></path>
      <path id="path42" d="m 29796,26031.1 c 25.4,398.1 -7.3,807.1 -69.5,1194.4 l -0.1,-0.9 c -86.2,-1399.1 -46.3,-5023.2 -5972.4,-5554.1 -3931.5,-352.2 -6526.2,445.7 -7532.6,1796.9 5.2,-20.5 9.8,-40.7 15.4,-61.3 445.9,-1635 2466,-2769.7 5277.2,-2945.1 l 1802.5,-12.6 c 8099.3,245.8 6479.5,5582.7 6479.5,5582.7" style="fill:#c3ddf4;fill-opacity:1;fill-rule:nonzero;stroke:none" transform="matrix(0.13333333,0,0,-0.13333333,0,5333.3333)" data-index="40"></path>
      <path id="path43" d="m 29134.3,33689.4 c -1225.8,802.7 -3774.9,-1030.5 -3774.9,-1030.5 -987.8,332.2 -1961.1,387.6 -2767.1,336.9 -763.6,-5438.8 4889.6,-6451.2 7079.2,-5469.3 l 0.3,0.2 c -195.5,963.8 -537.5,1726.1 -537.5,1726.1 0,0 1225.7,3633.8 0,4436.6" style="fill:#ffa84a;fill-opacity:1;fill-rule:nonzero;stroke:none" transform="matrix(0.13333333,0,0,-0.13333333,0,5333.3333)" data-index="41"></path>
      <path id="path44" d="m 28114.6,30460.5 c 38,-27.2 554.5,-888.5 554.5,-888.5 0,0 1002.1,1953.3 329.6,3320.1 -294.5,598.6 -976.3,-802.7 -976.3,-802.7 l 92.2,-1628.9" style="fill:#e27a2d;fill-opacity:1;fill-rule:nonzero;stroke:none" transform="matrix(0.13333333,0,0,-0.13333333,0,5333.3333)" data-index="42"></path>
      <path id="path45" d="m 29134.3,29252.7 v 0 0.1 0 -0.1 m -8525.9,3373.7 c 12.4,4.4 1071.8,385.8 2499.2,385.8 v 0 c -1427.2,-0.1 -2486.8,-381.4 -2499.2,-385.8" style="fill:#d7efff;fill-opacity:1;fill-rule:nonzero;stroke:none" transform="matrix(0.13333333,0,0,-0.13333333,0,5333.3333)" data-index="43"></path>
      <path id="path46" d="m 29134.3,29252.7 v 0 0 0 m 0,0.1 v 0 0 0 m -11877.9,314.6 c 94.1,200.3 194.5,388.1 299.6,564.1 0,0 0,-0.1 0,-0.1 0,0 480.8,756.5 1087.1,1340.3 172.9,158.5 344.9,296.5 511.3,416.8 37.8,24.7 75.6,47.8 113.5,69.4 -1.1,2.8 -2.1,5.5 -3.2,8.3 742.2,509.8 1343.6,660.1 1343.6,660.1 0,0 0,0 0.1,0.1 12.4,4.4 1072,385.7 2499.2,385.8 601.1,0 1267.9,-67.7 1948.7,-259.7 -680.8,192 -1347.3,259.6 -1948.5,259.6 -178,0 -350.2,-5.9 -515.5,-16.3 -33.2,-236.7 -54.3,-465 -64,-685.1 -2399.9,-15.5 -4086.5,-920.3 -5271.9,-2743.3 m 8103,3091.5 c -5.2,1.7 -10.5,3.5 -15.6,5.2 5.1,-1.7 10.4,-3.5 15.6,-5.2" style="fill:#ffffff;fill-opacity:1;fill-rule:nonzero;stroke:none" transform="matrix(0.13333333,0,0,-0.13333333,0,5333.3333)" data-index="44"></path>
      <path id="path47" d="m 17556,30131.4 c 0,0 0,0.1 0,0.1 332.4,557.2 711.7,996.3 1087.1,1340.2 -606.3,-583.8 -1087.1,-1340.3 -1087.1,-1340.3 m 1598.4,1757.1 c 37,26.8 73.9,52.7 110.3,77.7 1.1,-2.8 2.1,-5.5 3.2,-8.3 -37.9,-21.6 -75.7,-44.7 -113.5,-69.4" style="fill:#e1eefa;fill-opacity:1;fill-rule:nonzero;stroke:none" transform="matrix(0.13333333,0,0,-0.13333333,0,5333.3333)" data-index="45"></path>
      <path id="path48" d="m 29309.1,28808.9 -437.4,440.3 c 0,0 1105,3130.7 35.9,3941.2 -175.1,132.7 -380.4,188.2 -601.5,188.2 -1128.3,0 -2664.7,-1446.5 -2664.7,-1446.5 -1126.8,252.1 -2139.5,378.8 -3050.7,378.8 -20.8,0 -41.7,-0.1 -62.4,-0.2 9.7,220.1 30.8,448.4 64,685.1 165.3,10.4 337.5,16.3 515.5,16.3 601.2,0 1267.7,-67.6 1948.5,-259.6 95.7,-27 191.4,-56.3 287.5,-88.4 5.1,-1.7 10.4,-3.5 15.6,-5.2 v 0 c 0,0 1715.6,1233.8 3008.8,1233.8 283,0 546,-59.2 766.1,-203.3 408.8,-267.7 544.9,-850.3 544.8,-1508 -0.3,-1314.3 -544.8,-2928.6 -544.8,-2928.6 v 0 0 0 0 -0.1 0 c 2.5,-5.4 76.6,-171.7 174.8,-443.8" style="fill:#ffd4a5;fill-opacity:1;fill-rule:nonzero;stroke:none" transform="matrix(0.13333333,0,0,-0.13333333,0,5333.3333)" data-index="46"></path>
      <path id="path49" d="m 20104.5,25697.9 c -32.6,-732.1 -512,-1306.2 -1070.8,-1282.3 -558.8,23.8 -985.4,636.7 -952.9,1368.8 32.6,732.1 512,1306.2 1070.8,1282.4 558.8,-23.9 985.5,-636.8 952.9,-1368.9" style="fill:#021149;fill-opacity:1;fill-rule:nonzero;stroke:none" transform="matrix(0.13333333,0,0,-0.13333333,0,5333.3333)" data-index="47"></path>
      <path id="path50" d="m 19725.8,26047.8 c -10.5,-235.1 -164.5,-419.5 -343.9,-411.9 -179.5,7.7 -316.5,204.5 -306,439.6 10.4,235.2 164.4,419.5 343.8,411.9 179.5,-7.7 316.5,-204.5 306.1,-439.6" style="fill:#ffffff;fill-opacity:1;fill-rule:nonzero;stroke:none" transform="matrix(0.13333333,0,0,-0.13333333,0,5333.3333)" data-index="48"></path>
      <path id="path51" d="m 18750.6,25193.1 c -2,0 -4,0 -6,0.1 -98.9,4.2 -174.3,112.7 -168.6,242.2 5.7,126.9 87.2,227 183.5,227 2,0 4,0 6,-0.1 98.9,-4.2 174.3,-112.7 168.6,-242.2 -5.7,-126.9 -87.2,-227 -183.5,-227" style="fill:#677092;fill-opacity:1;fill-rule:nonzero;stroke:none" transform="matrix(0.13333333,0,0,-0.13333333,0,5333.3333)" data-index="49"></path>
      <path id="path52" d="m 23323.3,25782 c -35,-732 389.7,-1346.3 948.4,-1372 558.7,-25.7 1040,546.8 1075,1278.9 34.9,731.9 -389.7,1346.2 -948.4,1371.9 -558.7,25.7 -1040,-546.8 -1075,-1278.8" style="fill:#021149;fill-opacity:1;fill-rule:nonzero;stroke:none" transform="matrix(0.13333333,0,0,-0.13333333,0,5333.3333)" data-index="50"></path>
      <path id="path53" d="m 23732.7,26096.9 c -11.2,-235.1 125.1,-432.4 304.6,-440.7 179.4,-8.2 334,175.7 345.2,410.7 11.2,235.1 -125.1,432.4 -304.6,440.7 -179.4,8.2 -334,-175.7 -345.2,-410.7" style="fill:#ffffff;fill-opacity:1;fill-rule:nonzero;stroke:none" transform="matrix(0.13333333,0,0,-0.13333333,0,5333.3333)" data-index="51"></path>
      <path id="path54" d="m 24637.6,25158.7 c -2.1,0 -4.3,0.1 -6.4,0.2 -98.9,4.5 -174,113.2 -167.8,242.7 6,126.7 87.7,226.4 183.8,226.4 2.1,0 4.2,0 6.4,-0.1 98.8,-4.6 174,-113.3 167.8,-242.8 -6.1,-126.7 -87.7,-226.4 -183.8,-226.4" style="fill:#677092;fill-opacity:1;fill-rule:nonzero;stroke:none" transform="matrix(0.13333333,0,0,-0.13333333,0,5333.3333)" data-index="52"></path>
      <path id="path55" d="m 17819,30555.6 c -117.8,837.7 -49.2,2269.3 290.8,2435.9 368.8,180.8 1128.1,-629.1 1366.4,-899.8 0,0 -1062.7,-622.4 -1657.2,-1536.1" style="fill:#ff99af;fill-opacity:1;fill-rule:nonzero;stroke:none" transform="matrix(0.13333333,0,0,-0.13333333,0,5333.3333)" data-index="53"></path>
      <path id="path56" d="m 17888.2,32602 c 263.5,85.8 684.1,-68.3 756.7,-561.4 68.7,-466.5 -466.4,-943.8 -877.5,-473.2 -7.7,-357 10.6,-720.3 51.6,-1011.8 594.5,913.7 1657.2,1536.1 1657.2,1536.1 -238.3,270.7 -997.6,1080.6 -1366.4,899.8 -94.1,-46.1 -167.2,-189.2 -221.6,-389.5" style="fill:#e26a8d;fill-opacity:1;fill-rule:nonzero;stroke:none" transform="matrix(0.13333333,0,0,-0.13333333,0,5333.3333)" data-index="54"></path>
      <path id="path57" d="m 17818.8,30395.5 c -78.5,0 -147,57.8 -158.2,137.8 -93.6,665.2 -117.5,2358.6 378.7,2601.9 422.4,206.9 1079.8,-395.7 1557,-937.8 58.4,-66.3 52,-167.4 -14.3,-225.8 -66.3,-58.4 -167.4,-52 -225.8,14.3 -574.6,652.6 -1035,931.4 -1176,861.9 -43.8,-21.4 -170.2,-213.8 -228.2,-837.4 -42.5,-457.9 -32.6,-1020.2 25.4,-1432.6 12.4,-87.5 -48.6,-168.4 -136.1,-180.7 -7.6,-1 -15.1,-1.6 -22.5,-1.6" style="fill:#021149;fill-opacity:1;fill-rule:nonzero;stroke:none" transform="matrix(0.13333333,0,0,-0.13333333,0,5333.3333)" data-index="55"></path>
      <path id="path58" d="m 28516,30131.4 c -683.4,1025.1 -1746.4,1817 -1746.4,1817 770.1,811.7 1671.2,1187 1936.2,1014.2 327.2,-213.3 251.3,-1967 -189.8,-2831.2" style="fill:#ff99af;fill-opacity:1;fill-rule:nonzero;stroke:none" transform="matrix(0.13333333,0,0,-0.13333333,0,5333.3333)" data-index="56"></path>
      <path id="path59" d="m 28705.8,32962.6 c -265,172.8 -1166.1,-202.5 -1936.2,-1014.2 0,0 1063,-791.9 1746.4,-1817 72.8,142.7 135.5,309.9 188.2,490.1 -304.1,30.1 -862,842.1 -784.8,1261.8 98.3,534 600.4,788 952.3,694.6 -32.7,194 -87.6,333.7 -165.9,384.7" style="fill:#e26a8d;fill-opacity:1;fill-rule:nonzero;stroke:none" transform="matrix(0.13333333,0,0,-0.13333333,0,5333.3333)" data-index="57"></path>
      <path id="path60" d="m 27009.4,31963.9 c 287.3,-231.3 944.5,-795.3 1472.7,-1506.7 132.9,364.1 227.6,848.6 256.6,1333.5 40.9,682.8 -65.6,998.7 -120.4,1037.9 -141.5,92.6 -875,-147.3 -1608.9,-864.7 z m 1525,-2148.4 -151.5,227.2 c -659.4,989 -1698.5,1769.6 -1708.9,1777.4 l -144.5,107.6 124,130.8 c 759.8,800.8 1759.7,1285.8 2139.7,1038.1 286.5,-186.8 289.4,-903.9 265.6,-1314.8 -38.5,-663.3 -188.1,-1307.4 -400.3,-1723.1 l -124.1,-243.2" style="fill:#021149;fill-opacity:1;fill-rule:nonzero;stroke:none" transform="matrix(0.13333333,0,0,-0.13333333,0,5333.3333)" data-index="58"></path>
      <path id="path61" d="m 19932.1,24179.8 c 354.4,-668.9 996.2,-518.8 1272.8,-296.4 155.4,-108.5 813.5,-499 1361.3,233.2 547.8,1357.7 -3082.4,1311.1 -2634.1,63.2" style="fill:#ffffff;fill-opacity:1;fill-rule:nonzero;stroke:none" transform="matrix(0.13333333,0,0,-0.13333333,0,5333.3333)" data-index="59"></path>
      <path id="path62" d="m 21179.1,24444.7 c -265.2,-213.2 -749.8,-474.6 -1283.6,-100.3 4.1,-52.3 16,-107.1 36.6,-164.6 354.4,-668.9 996.2,-518.8 1272.8,-296.4 155.5,-108.5 813.5,-499 1361.3,233.2 18.4,45.6 32.1,89.6 41.4,132.1 -841.4,-365.3 -1243.6,-10.1 -1428.5,196" style="fill:#c3ddf4;fill-opacity:1;fill-rule:nonzero;stroke:none" transform="matrix(0.13333333,0,0,-0.13333333,0,5333.3333)" data-index="60"></path>
      <path id="path63" d="m 19995.9,24213.6 c 342.7,-443.7 781.4,-476.6 1208.1,-133.6 201.7,-148.8 458.1,-255.7 709.9,-237.6 231.9,19.1 427.9,154.5 613.1,303.5 21.7,19.3 55.9,16.8 73.5,-6.7 11.7,-15.5 12.9,-35.7 5,-52 -59.8,-121.6 -135.5,-242.5 -246.7,-337.2 -337.8,-321.4 -895.2,-279.6 -1245.5,2.1 l 191.8,6.6 c -346.3,-286.3 -907.4,-301.3 -1224.3,32 -100.6,104.8 -167.4,229.2 -212.4,355.4 -13.6,37.8 6.1,79.5 44,93 31.3,11.3 64.6,-0.4 83.5,-25.5" style="fill:#021149;fill-opacity:1;fill-rule:nonzero;stroke:none" transform="matrix(0.13333333,0,0,-0.13333333,0,5333.3333)" data-index="61"></path>
      <path id="path64" d="m 21204.9,23883.4 c 0,0 -36.5,329 -25.8,561.3" style="fill:#ffffff;fill-opacity:1;fill-rule:nonzero;stroke:none" transform="matrix(0.13333333,0,0,-0.13333333,0,5333.3333)" data-index="62"></path>
      <path id="path65" d="m 21045.8,23865.7 c 11.1,196.7 27.8,388.2 65.3,582.1 7.5,37.3 43.7,61.5 81,54.1 30.3,-6.1 52,-31.2 55,-60.3 11.6,-90.5 29.4,-181.4 49.4,-271.9 20.1,-89.2 42.7,-181.5 67.4,-268.7 54.7,-246.3 -317.4,-287.7 -318.1,-35.3" style="fill:#021149;fill-opacity:1;fill-rule:nonzero;stroke:none" transform="matrix(0.13333333,0,0,-0.13333333,0,5333.3333)" data-index="63"></path>
      <path id="path66" d="m 20569.1,23700.3 c 0,-210.2 69,-1339.2 870.8,-1339.2 776.5,0 841.6,1004.3 787.9,1439 -465.2,-94.3 -741.4,-3 -1022.9,83.3 -70.8,-103.1 -298.9,-159.3 -635.8,-183.1" style="fill:#021149;fill-opacity:1;fill-rule:nonzero;stroke:none" transform="matrix(0.13333333,0,0,-0.13333333,0,5333.3333)" data-index="64"></path>
      <path id="path67" d="m 20867.6,22649.3 c 128.6,-168.4 311.5,-288.2 572.3,-288.2 508.9,0 712.2,431.3 776.8,851 -615.5,285.1 -1254.9,-53.5 -1349.1,-562.8" style="fill:#ffa9b3;fill-opacity:1;fill-rule:nonzero;stroke:none" transform="matrix(0.13333333,0,0,-0.13333333,0,5333.3333)" data-index="65"></path>
      <path id="path68" d="m 21439.9,22241.1 c -979.6,0 -990.8,1399.6 -990.8,1459.2 0,66.3 53.7,120 120,120 66.2,0 119.9,-53.7 119.9,-120 0,-12.2 8.6,-1219.2 750.9,-1219.2 179.3,0 320,60.5 430.1,185 261.6,295.9 270.5,861.6 238.7,1119.3 -8.1,65.8 38.6,125.7 104.4,133.8 65.5,8.1 125.7,-38.6 133.8,-104.4 39.1,-316.6 20.5,-948.4 -297.1,-1307.6 -156.1,-176.6 -361.3,-266.1 -609.9,-266.1" style="fill:#021149;fill-opacity:1;fill-rule:nonzero;stroke:none" transform="matrix(0.13333333,0,0,-0.13333333,0,5333.3333)" data-index="66"></path>
      <path id="path69" d="m 27615.7,23864.4 c 0,-486 -531.8,-880.1 -1187.8,-880.1 -656,0 -1187.8,394.1 -1187.8,880.1 0,486.1 531.8,880.1 1187.8,880.1 656,0 1187.8,-394 1187.8,-880.1" style="fill:#ffa4a4;fill-opacity:1;fill-rule:nonzero;stroke:none" transform="matrix(0.13333333,0,0,-0.13333333,0,5333.3333)" data-index="67"></path>
      <path id="path70" d="m 17863.9,24367.9 c 0,486 -483.2,880.1 -1079.3,880.1 -212.3,0 -410.2,-50.2 -577.1,-136.6 -99.8,-390.6 -145.3,-890 -25.3,-1473.9 172,-94.5 379.3,-149.7 602.4,-149.7 596.1,0 1079.3,394 1079.3,880.1" style="fill:#ffa4a4;fill-opacity:1;fill-rule:nonzero;stroke:none" transform="matrix(0.13333333,0,0,-0.13333333,0,5333.3333)" data-index="68"></path>
      <path id="path71" d="m 23945.6,29853 c 470.1,441.1 1428.3,343.5 1522.3,-849.7 -546,401.4 -715.9,502.6 -1522.3,849.7" style="fill:#021149;fill-opacity:1;fill-rule:nonzero;stroke:none" transform="matrix(0.13333333,0,0,-0.13333333,0,5333.3333)" data-index="69"></path>
      <path id="path72" d="m 18178.5,28843.3 c 504.4,425.8 617.5,613.9 1442.7,810.8 -349.9,561.4 -1377.7,504.4 -1442.7,-810.8" style="fill:#021149;fill-opacity:1;fill-rule:nonzero;stroke:none" transform="matrix(0.13333333,0,0,-0.13333333,0,5333.3333)" data-index="70"></path>
      <path id="path73" d="m 21510.2,20398.9 c -1812.2,-58.9 -4205,636.1 -5167.2,2294.3 -390.1,696 -500.4,1573.3 -323.8,2350 93,396.9 248.5,781.5 498.8,1107 l -34.4,-104.4 c -11.3,613.2 58.6,1215.9 164.4,1817.2 107.9,596.4 265.1,1182.6 462.5,1755.4 l -5.2,-84 c -184.7,983.8 -247.9,1978.7 -149.2,2975.2 71.6,649.1 295,1616.5 1112.4,1642.3 910,34.9 1994.8,-829 2646.2,-1413.3 l -159.2,33.1 c 103.4,35.4 199.7,64.7 299.7,92 890,245 1818.9,337.8 2740.1,288 106.3,-9.4 356.9,-31.1 460.1,-42.3 146.6,-27.4 311.4,-42.6 457,-71.5 103.4,-23.4 351.6,-75.6 451.9,-101 97.4,-25.7 344.7,-104 444.4,-131.4 l -139.6,-21.1 c 928.4,629.9 2546.3,1554.5 3679.1,1168.7 1299.2,-456.8 854.1,-2653.5 628.6,-3681 -84.5,-360.2 -180.3,-713.3 -296,-1068.7 l -5.4,112.7 c 430.7,-1043 726.6,-2158.4 675,-3294.3 0,-2.7 -6.4,54.8 -6.4,54.2 469.8,-1764.2 -169.2,-3576.3 -1728.2,-4560.6 -179.1,-113.4 -371.1,-225 -563.2,-315.9 -88,-40.7 -202.1,-103 -291.3,-136.6 l -297.9,-119.3 c -391.2,-147.5 -816.6,-267.7 -1226.6,-351.2 -831.8,-169 -1678.6,-228 -2518.5,-203.2 -32.8,0.9 -58.5,28.3 -57.5,61 0.8,30.3 24.4,54.7 53.9,57.3 830.9,83.5 1655.7,185 2459.1,371.3 1187.3,271 2369.1,764 3156.3,1710.8 781.6,924.3 996.4,2236.6 717.9,3396.6 l -7.5,27.9 1.1,27.4 c 42,808.5 -123.4,1617.8 -366.9,2387.3 -89.2,277.9 -190.3,554 -305.5,816.4 227.4,698.3 405.2,1428.2 501,2157.4 73.1,644.8 167.4,1739.3 -416.2,2154.2 -972.8,611.1 -2835,-487.1 -3667,-1067.2 -131.7,37.4 -369.6,110.2 -500.5,148 -93.2,24.5 -333.7,73.4 -431.5,96.4 -872.5,159.1 -1774,158.7 -2649.5,18.7 -416.8,-68.5 -837,-161.8 -1234.5,-302.4 -253.5,238 -526.9,464.5 -811,670.8 -258.9,187.5 -528.9,359.6 -810.7,496.7 -268.4,128.6 -568.6,240 -861.8,225.4 -298.8,-9.7 -487.8,-202.5 -604.6,-468.6 -122.5,-272 -182.6,-586.5 -219.5,-900.5 -70.3,-635.5 -49.3,-1285.2 8.4,-1923.2 31.4,-319.9 71.4,-642.9 135.7,-950.5 l 8.7,-41.5 -13.8,-42.6 c -378.4,-1108.5 -618.8,-2282.7 -609.8,-3456.4 l 1.7,-57 -36.1,-47.5 c -20.6,-28.1 -47.2,-68.3 -69.6,-104.9 -447.8,-740.4 -506.2,-1674.3 -252.7,-2491.3 412.9,-1252.3 1676.1,-1969.3 2868.5,-2349.8 357.4,-113.1 722.8,-204.3 1092.6,-280.9 369.4,-79.2 743.5,-141.3 1120.9,-205.4 73.4,-10.4 67,-122 -7.7,-124.2" style="fill:#021149;fill-opacity:1;fill-rule:nonzero;stroke:none" transform="matrix(0.13333333,0,0,-0.13333333,0,5333.3333)" data-index="71"></path>
      <path id="path74" d="m 17256.4,29407.4 c -18.5,0 -37.3,3.3 -55.6,10.1 -82.8,30.7 -125.1,122.6 -94.4,205.4 33.8,91.5 858.6,2250.5 3449.1,3154.5 83.4,29 174.8,-15 203.8,-98.4 29.1,-83.4 -14.9,-174.6 -98.3,-203.7 -2443.2,-852.6 -3246.8,-2942.6 -3254.6,-2963.6 -24,-64.4 -85.1,-104.3 -150,-104.3" style="fill:#021149;fill-opacity:1;fill-rule:nonzero;stroke:none" transform="matrix(0.13333333,0,0,-0.13333333,0,5333.3333)" data-index="72"></path>
      <path id="path75" d="m 21175.9,24367.9 c -274.8,0 -705.4,414.2 -665.3,697.8 43.4,306.5 1266.5,284.8 1315.3,0 41.3,-241 -375.1,-697.8 -650,-697.8" style="fill:#021149;fill-opacity:1;fill-rule:nonzero;stroke:none" transform="matrix(0.13333333,0,0,-0.13333333,0,5333.3333)" data-index="73"></path>
      <path id="path76" d="m 21083.1,24802.3 c -118.3,0 -303.6,142.3 -286.4,239.7 9.2,51.6 140.7,76.2 274.7,76.2 139,0 280.6,-26.4 291.3,-76.2 17.8,-82.8 -161.4,-239.7 -279.6,-239.7" style="fill:#677092;fill-opacity:1;fill-rule:nonzero;stroke:none" transform="matrix(0.13333333,0,0,-0.13333333,0,5333.3333)" data-index="74"></path>
      <path id="path77" d="m 7407.04,10112.6 c 0,0 -943.72,-640 -976.26,-656.2 -32.54,-16.3 59.66,-699.7 81.36,-721.4 21.69,-21.7 1125.84,123.8 2467.77,-135.6 1458.99,-282 2744.39,-1046.7 3037.29,-1166.1 292.8,-119.3 970.8,461.1 1003.3,461.1 32.6,0 374.3,-775.6 450.2,-840.7 75.9,-65.1 1102.8,30.7 2679.3,-692.4 1262.7,-579.2 2279.6,-1310.2 2838,-1630.5 375.5,-215.4 568.1,-275.1 901.6,-87.9 885.6,496.7 2640.3,1618 3868,2419.8 1323.6,864.5 2286.8,1473.2 2700.4,1821.1 184.1,154.9 230.2,426.1 5,672.4 -173.2,189.5 -1027.3,998 -2427,1652 L 7407.04,10112.6" style="fill: rgb(67, 175, 255); fill-opacity: 1; fill-rule: nonzero; opacity: 1;" transform="matrix(0.13333333,0,0,-0.13333333,0,5333.3333)" data-index="75"></path>
      <path id="path78" d="m 26458,8883.8 c 131.5,110.7 191.9,280.7 134,458.5 -2285.1,-1675.1 -6573.2,-4385.6 -7064.8,-4412.9 -281.5,-15.6 -1823.4,1068.5 -3341,1721.1 -1290.1,554.8 -2615.1,693.2 -2574.5,690.6 114.8,-7.3 -273.3,679.4 -515.2,770.2 -241.9,90.8 -813.6,-385.1 -1008.8,-341.7 -195.3,43.4 -2055.6,1209.5 -5353.19,1303.5 l -242.2,422.9 c -34.55,-22.8 -57.02,-37.4 -61.53,-39.6 -32.54,-16.3 59.66,-699.7 81.36,-721.4 21.69,-21.7 1125.84,123.8 2467.77,-135.6 1458.99,-282 2744.39,-1046.7 3037.29,-1166.1 292.8,-119.3 970.8,461.1 1003.3,461.1 32.6,0 374.3,-775.6 450.2,-840.7 75.9,-65.1 1102.8,30.7 2679.3,-692.4 1262.7,-579.2 2279.6,-1310.2 2838,-1630.5 375.5,-215.4 568.1,-275.1 901.6,-87.9 885.6,496.7 2640.3,1618 3868,2419.8 1323.6,864.5 2286.8,1473.2 2700.4,1821.1" style="fill:#94d6ff;fill-opacity:1;fill-rule:nonzero;stroke:none" transform="matrix(0.13333333,0,0,-0.13333333,0,5333.3333)" data-index="76"></path>
      <path id="path79" d="m 6521.42,9324.5 c -11.28,-7.1 -15.38,-9.3 -17.9,-10.6 6.45,3.3 12.41,6.8 17.9,10.6 z M 19525,4371.3 c -208.4,-0.1 -395.1,93.7 -616.6,220.7 -159.9,91.7 -354.6,215.1 -580,358 -568.4,360.3 -1346.7,853.7 -2245.1,1265.9 -1172.8,537.9 -2041.8,613.5 -2412.9,645.8 -179.4,15.6 -246.6,21.4 -303.8,70.5 -57.3,49.1 -119.4,165.8 -303.3,541.6 -29.3,59.8 -64,130.8 -94.2,190.8 -372.5,-266.4 -748.2,-487.1 -1012.3,-379.5 -64.8,26.5 -164.2,76.7 -301.8,146.3 -506.8,256.4 -1561.4,789.8 -2705.46,1011 -1043.14,201.6 -1943.23,153.8 -2282.12,135.9 -172.64,-9.1 -213.6,-11.3 -268.54,43.8 -102.39,102.2 -139.45,795.6 -131,847.7 11.99,73.9 55.96,110.2 85.06,126.4 54.66,33.3 618.8,414.5 964.3,648.9 73.1,49.6 172.64,30.5 222.22,-42.7 49.59,-73.1 30.52,-172.6 -42.63,-222.2 -567.79,-385.1 -807.95,-546 -911.76,-614.4 6.44,-110.7 33.64,-332.3 55.34,-468.5 3.35,0.2 6.72,0.3 10.06,0.5 349.56,18.6 1278.1,67.8 2359.82,-141.3 1187.81,-229.6 2269.41,-776.6 2789.11,-1039.5 125.9,-63.7 225.4,-114 278.1,-135.5 55.6,-22.5 227.3,-3.8 752.3,377.1 104,75.5 132,95.8 190.7,95.8 114.9,0 131.2,-33.3 330.2,-440 64.2,-131.1 165.9,-339 215.6,-421.2 33.4,-4.2 84.8,-8.6 131.8,-12.7 387.7,-33.7 1295.4,-112.7 2518.6,-673.8 918,-421.1 1707,-921.2 2283,-1286.4 222.3,-140.9 414.2,-262.6 567.9,-350.7 355.2,-203.7 479.8,-235.2 743.8,-87.2 848.5,476 2549.7,1559.3 3858.7,2414.3 241.2,157.5 470.4,306.5 686.5,447 968.1,629.5 1667.6,1084.3 1998.4,1362.6 59.3,49.9 94.5,115.8 99.1,185.4 5.5,83.8 -32.3,172.5 -109.2,256.6 -8.1,8.8 -823.3,889.2 -2376.6,1615 -80,37.4 -114.6,132.6 -77.2,212.7 37.4,80 132.7,114.4 212.7,77.2 1610.3,-752.5 2468.8,-1679.7 2477.3,-1689 173.2,-189.4 200.2,-372.9 192.3,-493.4 -10.3,-157.4 -85.7,-302.8 -212.4,-409.4 -345.8,-290.9 -1052.3,-750.2 -2030,-1385.9 -215.9,-140.5 -444.9,-289.3 -685.9,-446.7 -1313.4,-857.9 -3021.7,-1945.6 -3877.2,-2425.5 -166.4,-93.4 -309.2,-132 -442.9,-132" style="fill:#021149;fill-opacity:1;fill-rule:nonzero;stroke:none" transform="matrix(0.13333333,0,0,-0.13333333,0,5333.3333)" data-index="77"></path>
      <path id="path80" d="m 12346.2,8176.4 c -177.2,0 -1234.8,688.8 -2715.45,1046.8 -1234.5,298.4 -2296.02,153.6 -2332.18,160.9 -36.16,7.2 -50.62,1345 -50.62,1431.8 0,86.8 5279.05,3109.6 5495.95,3174.7 217,65.1 2993.9,824.4 7224.4,-1106.5 0,0 2879.9,911.2 5821.4,-2046.5 43.6,-43.8 7.2,-1489.7 0,-1605.4 C 25786.2,9177 24383.7,8272 22935,7352 21345.5,6342.5 19693.1,5312.7 19599.5,5312.7 c -179,0 -1880.2,1167.9 -3514.6,1793.4 -1177.4,450.7 -2108,513.5 -2173.1,520.7 -65,7.2 -289.2,972.6 -620.1,1064.8 -330.8,92.2 -768.3,-515.2 -945.5,-515.2" style="fill: rgb(255, 255, 255); fill-opacity: 1; fill-rule: nonzero; opacity: 1;" transform="matrix(0.13333333,0,0,-0.13333333,0,5333.3333)" data-index="78"></path>
      <path id="path81" d="m 19642.9,6793.3 6101.6,3465.8 v -108.5 c 0,0 -2356.6,-1589.1 -2353.9,-1708.5 2.7,-119.3 2353.9,1139 2353.9,1139 v -92.2 l -6101.6,-3777.2 32.5,213.9 c 0,0 3498.3,2147.7 3388.2,2330.7 -54.8,91.2 -3442.4,-1844.4 -3442.4,-1844.4 l 21.7,381.4" style="fill:#c3ddf4;fill-opacity:1;fill-rule:nonzero;stroke:none" transform="matrix(0.13333333,0,0,-0.13333333,0,5333.3333)" data-index="79"></path>
      <path id="path82" d="m 13469.3,8555.9 c 2212.3,107.6 6151.9,-1815 6151.9,-1815 v -329 c 0,0 -2243.6,1061.2 -2250.9,956.4 -7.2,-104.9 2156.9,-1442.7 2156.9,-1442.7 0,0 81.1,-261.9 0,-206.1 -931.1,640 -2289.7,1331.5 -3941.3,1914.5 -778.7,274.9 -1738.2,301 -1738.2,301 l -70.5,119.4 c 718.6,-67.8 1643.3,-97.2 1228.4,32.5 -250,78.2 -1312.5,169.4 -1312.5,169.4 l -223.8,299.6" style="fill: rgb(195, 221, 244); fill-opacity: 1; fill-rule: nonzero; opacity: 1;" transform="matrix(0.13333333,0,0,-0.13333333,0,5333.3333)" data-index="80"></path>
      <path id="path83" d="M 12293.6,8555.9 C 9851.31,9955.4 7577.89,9773.7 7577.89,9773.7 c 0,0 591.18,107.3 561.35,246.7 -29.83,139.5 -735.03,219.7 -705.08,219.7 788.03,100.3 3154.74,304.6 5506.44,-1503.3 -195.8,-339.6 -1419.9,624.8 -1498.3,497.2 -83.8,-136.3 553.1,-297.2 851.3,-678.1" style="fill: rgb(195, 221, 244); fill-opacity: 1; fill-rule: nonzero; opacity: 1;" transform="matrix(0.13333333,0,0,-0.13333333,0,5333.3333)" data-index="81"></path>
      <path id="path84" d="m 13889.3,9470.8 c 0,0 736.7,94 1631.6,-47 l 5521.3,2904.4 c -767.5,241.4 -1739.2,194.4 -1739.2,194.4 L 13889.3,9470.8" style="fill:#c3ddf4;fill-opacity:1;fill-rule:nonzero;stroke:none" transform="matrix(0.13333333,0,0,-0.13333333,0,5333.3333)" data-index="82"></path>
      <path id="path85" d="m 12472.8,12471.9 -1963.4,-1388.4 c 1757.3,-471.9 2431.2,-1279.4 2431.2,-1279.4 l -467.8,2667.8" style="fill:#c3ddf4;fill-opacity:1;fill-rule:nonzero;stroke:none" transform="matrix(0.13333333,0,0,-0.13333333,0,5333.3333)" data-index="83"></path>
      <path id="path86" d="M 25638.8,10789.1 Z M 7302.11,9543.8 h -0.03 z m 5053.49,-1208 h 0.5 z m -24.9,-1.1 z m 1677,-556.4 c 359.4,-36.8 1174.5,-155.4 2134.4,-522.8 1054.2,-403.4 2116.3,-1018.7 2819.1,-1425.8 261,-151.2 530,-307 630.6,-349.2 201.1,97.9 1148.5,667.2 3257.5,2006.5 2113,1342 2652.2,1714.4 2783.4,1816.3 9.8,275.2 28.7,1239.3 10,1455 -1469.6,1462.7 -2914.1,1922.9 -3870.1,2050.7 -1044.5,139.9 -1749.3,-75.3 -1756.3,-77.5 l -58.5,-18.3 -56,25.4 c -4224.6,1928.1 -6995.9,1133.6 -7111.9,1098.7 -319.6,-121.1 -4844.48,-2727.3 -5381.54,-3096.2 2.17,-258.2 13.16,-907.6 29.39,-1187.6 781.79,52.8 1531.79,-5.9 2230.59,-174.8 1011.46,-244.6 1821.16,-637.2 2304.96,-871.8 151.7,-73.6 308.2,-149.5 368.4,-167.6 43.8,21.9 135.3,99.5 203.7,157.4 225.1,190.8 505.3,428 789.3,349.1 281.9,-78.6 454.2,-484.2 620.1,-928.9 17.3,-46.3 37.2,-99.7 52.9,-138.6 z m 5611.1,-2307.5 z m -57,-3.5 v 0 z m 37.7,-314.6 c -98.6,0 -229.9,70.7 -798.7,400.1 -694,402 -1742.8,1009.6 -2773.1,1403.9 -981.6,375.7 -1802.6,481 -2110,508.8 l -23.5,2.3 c -118.3,13.1 -151.2,101.4 -239.2,337.2 -70.6,189.1 -257.9,691.2 -406.2,732.5 -120.6,34.3 -346.8,-158.1 -496.4,-284.9 -161.8,-137.1 -278.7,-236.2 -406.2,-236.2 -90.3,0 -202.2,52 -512.6,202.5 -472.2,229 -1262.4,612.3 -2240.45,848.8 -690.14,166.8 -1434.18,220.9 -2211.35,160.9 -71.1,-5.4 -87.99,-6.8 -114.58,-1.4 -134.64,26.9 -140.33,139.3 -151.61,363.4 -5.81,115.5 -11.16,275.6 -15.87,475.8 -7.98,340.5 -11.79,700.5 -11.79,749.5 0,112.3 0,121.4 906.42,661 469.07,279.2 1122.68,660.3 1840.45,1073.1 109.04,62.8 2672.58,1536.7 2863.18,1593.8 84.6,25.4 864.3,246.5 2158.6,201.9 1631.5,-56.6 3355.3,-491.1 5124.6,-1291.7 200.8,52.6 873.3,197.6 1815.4,74.6 1017.2,-132.7 2555.2,-618.3 4106.5,-2178.2 56.4,-56.6 75.3,-75.7 65.6,-890.5 -4.5,-377.1 -15.4,-774.4 -19.3,-837.7 -6.3,-100 -7.4,-118.1 -957.5,-739.7 C 24514.2,8170 23851,7744.2 23020.8,7216.9 19770.4,5152.7 19667.5,5152.7 19599.5,5152.7" style="fill:#021149;fill-opacity:1;fill-rule:nonzero;stroke:none" transform="matrix(0.13333333,0,0,-0.13333333,0,5333.3333)" data-index="84"></path>
      <path id="path87" d="m 13169.1,8696.7 95.5,423.4" style="fill:#ffffff;fill-opacity:1;fill-rule:nonzero;stroke:none" transform="matrix(0.13333333,0,0,-0.13333333,0,5333.3333)" data-index="85"></path>
      <path id="path88" d="m 13169.3,8536.7 c -11.7,0 -23.5,1.3 -35.4,3.9 -86.2,19.5 -140.3,105.1 -120.9,191.3 l 95.5,423.4 c 19.5,86.2 104.9,140.1 191.3,120.9 86.2,-19.5 140.3,-105.1 120.9,-191.3 l -95.5,-423.4 c -16.8,-74.4 -82.8,-124.8 -155.9,-124.8" style="fill:#021149;fill-opacity:1;fill-rule:nonzero;stroke:none" transform="matrix(0.13333333,0,0,-0.13333333,0,5333.3333)" data-index="86"></path>
      <path id="path89" d="m 19642.9,6975 c -86.3,0 -184.6,46.9 -512.1,209.2 -848.4,420.6 -2835.4,1405.6 -5885.5,1777.1 -87.7,10.7 -150.2,90.4 -139.5,178.1 10.7,87.7 90.3,150 178.1,139.5 3104.6,-378.1 5125.9,-1380.1 5989.1,-1808 148.4,-73.6 301.4,-149.4 364,-171.3 414,165 3827.8,2269.8 6067.7,3673.6 74.8,46.9 173.6,24.2 220.6,-50.7 46.9,-74.8 24.2,-173.6 -50.7,-220.5 -14.7,-9.2 -1494.9,-936.6 -2985.1,-1852 C 19837.2,6975 19724.9,6975 19642.9,6975" style="fill:#021149;fill-opacity:1;fill-rule:nonzero;stroke:none" transform="matrix(0.13333333,0,0,-0.13333333,0,5333.3333)" data-index="87"></path>
      <path id="path90" d="m 13264.5,8960.1 c -35.6,0 -71.3,11.8 -101,36 -2601.1,2122.2 -5859.32,1666.4 -5891.91,1661.5 -87.38,-12.8 -168.77,47.3 -181.84,134.7 -13.03,87.3 47.12,168.7 134.48,181.9 34.84,5.1 867.09,126.2 2043.58,-24.5 1086.29,-139.1 2678.99,-548 4097.99,-1705.6 68.4,-55.9 78.6,-156.7 22.8,-225.1 -31.6,-38.8 -77.7,-58.9 -124.1,-58.9" style="fill:#021149;fill-opacity:1;fill-rule:nonzero;stroke:none" transform="matrix(0.13333333,0,0,-0.13333333,0,5333.3333)" data-index="88"></path>
      <path id="path91" d="m 19599.6,5152.7 c -2.6,0 -5.2,0 -7.7,0.2 -88.3,4.2 -156.4,79.1 -152.2,167.4 42.7,896.7 43.1,1805.7 43.1,1814.7 0,88.4 71.7,160.1 160.1,160.1 88.3,0 160,-71.7 160,-160.1 0,-9.1 -0.5,-925.4 -43.6,-1829.9 -4.1,-85.7 -74.8,-152.4 -159.7,-152.4" style="fill:#021149;fill-opacity:1;fill-rule:nonzero;stroke:none" transform="matrix(0.13333333,0,0,-0.13333333,0,5333.3333)" data-index="89"></path>
      <path id="path92" d="m 19642.8,8045.5 c -24.4,0 -49,7.5 -70.3,22.8 -1721.9,1246.6 -4043.9,1561.9 -4067.2,1564.9 -65.7,8.6 -112,68.8 -103.4,134.6 8.6,65.7 69.1,112.1 134.5,103.4 97.3,-12.7 2404.4,-325.4 4176.8,-1608.4 53.7,-38.9 65.7,-113.9 26.8,-167.6 -23.4,-32.4 -60.1,-49.7 -97.2,-49.7" style="fill:#021149;fill-opacity:1;fill-rule:nonzero;stroke:none" transform="matrix(0.13333333,0,0,-0.13333333,0,5333.3333)" data-index="90"></path>
      <path id="path93" d="m 20546.7,8692.8 c -25.4,0 -51,8 -72.8,24.7 -1503.5,1149.6 -3632.9,1604.1 -3654.2,1608.5 -64.8,13.6 -106.5,77.2 -92.9,142 13.5,64.8 77.2,106.3 141.9,93 89.3,-18.6 2203.2,-469.4 3751,-1652.9 52.6,-40.2 62.7,-115.6 22.4,-168.2 -23.6,-30.9 -59.3,-47.1 -95.4,-47.1" style="fill:#021149;fill-opacity:1;fill-rule:nonzero;stroke:none" transform="matrix(0.13333333,0,0,-0.13333333,0,5333.3333)" data-index="91"></path>
      <path id="path94" d="m 21523,9220.6 c -26.3,0 -52.8,8.6 -74.9,26.4 -1688.9,1351.1 -3491.9,1664.5 -3509.9,1667.5 -65.4,10.9 -109.5,72.7 -98.6,138 10.8,65.5 72.5,109.8 137.9,98.7 76,-12.6 1880.5,-324.8 3620.5,-1716.8 51.8,-41.4 60.2,-116.9 18.8,-168.7 -23.8,-29.6 -58.6,-45.1 -93.8,-45.1" style="fill:#021149;fill-opacity:1;fill-rule:nonzero;stroke:none" transform="matrix(0.13333333,0,0,-0.13333333,0,5333.3333)" data-index="92"></path>
      <path id="path95" d="m 22441.4,9734.1 c -28.8,0 -57.7,10.3 -80.6,31.2 -1306,1186.6 -3404.8,1702.7 -3425.8,1707.7 -64.4,15.6 -104.1,80.4 -88.6,144.8 15.5,64.5 80.4,104.3 144.8,88.5 88.3,-21.2 2178.7,-534.7 3531,-1763.3 49,-44.6 52.6,-120.5 8.1,-169.6 -23.7,-26 -56.2,-39.3 -88.9,-39.3" style="fill:#021149;fill-opacity:1;fill-rule:nonzero;stroke:none" transform="matrix(0.13333333,0,0,-0.13333333,0,5333.3333)" data-index="93"></path>
      <path id="path96" d="m 23352.6,10323.5 c -28.5,0 -57.2,10.1 -80.1,30.7 -1398.5,1254.8 -3475.8,1598.2 -3496.7,1601.5 -65.4,10.4 -110,71.9 -99.6,137.3 10.4,65.5 71.9,110.4 137.4,99.7 87.8,-14 2166.8,-356.8 3619.2,-1659.9 49.3,-44.2 53.4,-120.1 9.2,-169.4 -23.7,-26.5 -56.5,-39.9 -89.4,-39.9" style="fill:#021149;fill-opacity:1;fill-rule:nonzero;stroke:none" transform="matrix(0.13333333,0,0,-0.13333333,0,5333.3333)" data-index="94"></path>
      <path id="path97" d="m 20460.2,12673.2 c 1306.2,-94.4 2651.3,-577 3656.7,-1426.1 l 202.1,-174.7 c 116.5,-105.6 -33.7,-282.2 -156.8,-181.4 -69.9,61.3 -227.9,199.6 -295.3,258.9 -434.2,345.4 -914.9,629.2 -1429.5,836.8 -627.8,257.5 -1308.1,429.2 -1984.8,479.3 -137,5.7 -133,210.7 7.6,207.2" style="fill:#021149;fill-opacity:1;fill-rule:nonzero;stroke:none" transform="matrix(0.13333333,0,0,-0.13333333,0,5333.3333)" data-index="95"></path>
      <path id="path98" d="m 12603.6,10306.8 c -27,0 -54.3,9.1 -76.7,27.8 -1183.2,984.9 -3077.87,997.7 -3096.86,997.7 -66.26,0 -119.95,53.8 -119.92,120 0.02,66.3 53.71,120 119.97,120 81.05,0 1999.41,-12 3250.41,-1053.2 50.9,-42.4 57.8,-118.1 15.4,-169 -23.7,-28.5 -57.9,-43.3 -92.3,-43.3" style="fill:#021149;fill-opacity:1;fill-rule:nonzero;stroke:none" transform="matrix(0.13333333,0,0,-0.13333333,0,5333.3333)" data-index="96"></path>
      <path id="path99" d="m 11761.3,11597.4 c -23.2,0 -46.6,6.7 -67.2,20.7 -402.9,273 -1243.1,364.8 -1251.6,365.7 -65.9,7 -113.6,66 -106.7,132 7,65.8 66.6,113.2 132,106.6 36.8,-3.9 908.2,-98.8 1360.9,-405.7 54.9,-37.1 69.2,-111.7 32.1,-166.6 -23.3,-34.2 -61,-52.7 -99.5,-52.7" style="fill:#021149;fill-opacity:1;fill-rule:nonzero;stroke:none" transform="matrix(0.13333333,0,0,-0.13333333,0,5333.3333)" data-index="97"></path>
      <path id="path100" d="m 7247.76,10248 c 650.18,48.4 1325.16,52.8 1947.87,-162.7 39.84,-15.1 25.22,-77 -17.35,-72.1 -80.18,9.2 -158.97,19.9 -239.26,24.7 -237.65,20 -476.73,17.4 -715.38,14.6 -278.33,-3.9 -675.25,-27.5 -956.89,-43.7 -154.3,-5.4 -172.87,219.8 -18.99,239.2" style="fill:#021149;fill-opacity:1;fill-rule:nonzero;stroke:none" transform="matrix(0.13333333,0,0,-0.13333333,0,5333.3333)" data-index="98"></path>
      <path id="path101" d="m 10795.1,9735.1 c 763.7,-254.7 1491.3,-618.5 2150.2,-1081.7 126.1,-93.5 -5.4,-283.6 -137.6,-196.6 -321.8,226.9 -654.2,440 -997.7,634 -343.2,194.8 -695.6,378.6 -1051.2,549.6 -56.6,26.2 -24.2,113.4 36.3,94.7" style="fill:#021149;fill-opacity:1;fill-rule:nonzero;stroke:none" transform="matrix(0.13333333,0,0,-0.13333333,0,5333.3333)" data-index="99"></path>
      <path id="path102" d="m 13641.2,8375.6 c 782.8,-17.1 1558.1,-179.2 2273.2,-495.8 52.9,-23.1 22.5,-105.6 -33.3,-87.2 -181.3,60.3 -362.6,119 -548.3,162.2 -547.3,132 -1122.6,197.5 -1683.8,180.9 -163.8,-7 -173,235.9 -7.8,239.9" style="fill:#021149;fill-opacity:1;fill-rule:nonzero;stroke:none" transform="matrix(0.13333333,0,0,-0.13333333,0,5333.3333)" data-index="100"></path>
      <path id="path103" d="m 18244.7,7003.9 1441.3,-673.5 -118.8,-4.8 c 803.1,511.4 1610.6,1014.5 2460.4,1447 45.5,22.9 89.7,-41.7 46.7,-74.7 -569.5,-434.1 -1170.4,-817.3 -1773.1,-1200.9 -220.8,-140.7 -444.2,-278.3 -669.3,-412.2 l -56.3,32.5 -1387.5,801.8 c -58.8,38.2 -4.3,122.8 56.6,84.8" style="fill:#021149;fill-opacity:1;fill-rule:nonzero;stroke:none" transform="matrix(0.13333333,0,0,-0.13333333,0,5333.3333)" data-index="101"></path>
      <path id="path104" d="m 23886.6,8760.6 1856.8,1249.4 c 55,37 129.6,22.4 166.6,-32.6 37,-55.1 22.5,-129.7 -32.6,-166.7 -2.9,-3.1 -1947.3,-1108.7 -1952.3,-1112.1 -39.2,-22.5 -77.2,36 -38.5,62" style="fill:#021149;fill-opacity:1;fill-rule:nonzero;stroke:none" transform="matrix(0.13333333,0,0,-0.13333333,0,5333.3333)" data-index="102"></path>
      <path id="path105" d="m 13264.6,9120.1 6703.7,3764 c 0,0 -71.6,1319.1 -1120.9,3355.5 -730.4,1417.4 -1840.4,2079.1 -1873,2079.1 -32.5,0 -2162.2,-922.1 -3590.5,-1605.4 -1129,-540.3 -4371.45,-2108 -4371.45,-2191.2 0,-83.2 2639.55,-1739.2 4252.15,-5402" style="fill:#ffffff;fill-opacity:1;fill-rule:nonzero;stroke:none" transform="matrix(0.13333333,0,0,-0.13333333,0,5333.3333)" data-index="103"></path>
      <path id="path106" d="m 19642.1,12701 c -117.7,698.4 -331.8,1548.9 -527.1,1680.1 -144.2,96.8 -6186.3,-2946.6 -6217.7,-3011.7 -26.8,-55.4 595.1,-814.7 846.2,-1980.4 l 5898.6,3312" style="fill:#c3ddf4;fill-opacity:1;fill-rule:nonzero;stroke:none" transform="matrix(0.13333333,0,0,-0.13333333,0,5333.3333)" data-index="104"></path>
      <path id="path107" d="m 16916.9,18169.9 v 0 z m -7641.14,-3666 c 6.18,-4.9 12.36,-9.8 18.54,-14.8 1772.4,-1410.7 3132.5,-3140.4 4044.7,-5143.7 l 6459.9,3627.1 c -39.9,336.7 -233.8,1524.9 -1093.7,3193.8 -598.6,1161.6 -1488.9,1827.7 -1740.6,1977.5 -350.5,-143.7 -2199.7,-947.1 -3511.6,-1574.9 -1494.2,-715 -3589,-1738 -4177.24,-2065 z m 3913.44,-5609.6 -71,161.3 c -890.9,2023.6 -2244.5,3767.5 -4023.17,5183.2 -205.54,163.6 -242.58,193.1 -242.58,283.3 0,130.1 0,153.6 1851.55,1067.6 900.4,444.6 1969.2,960.8 2610.9,1267.9 821.2,392.9 1807.9,833.4 2323,1060.9 1267.6,560.1 1302.6,560.1 1336.5,560.1 137.8,0 595.5,-377.8 783.1,-550.2 346.2,-318.1 841,-856.6 1232.1,-1615.5 C 20042.5,14269.6 20125,12948 20128,12892.8 l 5.4,-99.5 -6944.2,-3899" style="fill:#021149;fill-opacity:1;fill-rule:nonzero;stroke:none" transform="matrix(0.13333333,0,0,-0.13333333,0,5333.3333)" data-index="105"></path>
      <path id="path108" d="m 13693.1,10744.7 c -50.6,0 -97.6,32.1 -114.1,82.7 -576.7,1765.5 -2646.4,3721.4 -2667.2,3741 -48.3,45.3 -50.8,121.3 -5.4,169.6 45.3,48.3 121.3,50.8 169.6,5.4 86.9,-81.6 2135.5,-2018.1 2731.1,-3841.5 20.6,-63 -13.8,-130.7 -76.8,-151.3 -12.3,-4 -24.9,-5.9 -37.2,-5.9" style="fill:#021149;fill-opacity:1;fill-rule:nonzero;stroke:none" transform="matrix(0.13333333,0,0,-0.13333333,0,5333.3333)" data-index="106"></path>
      <path id="path109" d="m 14747,11364.8 c -51.8,0 -99.6,33.9 -115,86.1 -681.4,2311.2 -2520.2,3717.1 -2538.8,3731 -52.9,39.9 -63.5,115.1 -23.6,168 39.8,52.9 115,63.6 167.9,23.8 78.1,-58.7 1920.1,-1465.1 2624.7,-3854.9 18.7,-63.6 -17.6,-130.3 -81.2,-149 -11.3,-3.4 -22.7,-5 -34,-5" style="fill:#021149;fill-opacity:1;fill-rule:nonzero;stroke:none" transform="matrix(0.13333333,0,0,-0.13333333,0,5333.3333)" data-index="107"></path>
      <path id="path110" d="m 15813.7,12091.6 c -52.6,0 -100.8,34.8 -115.5,87.9 -693.4,2493 -2305.5,3484.5 -2321.7,3494.3 -56.7,34 -75.2,107.7 -41.2,164.5 34,56.8 107.5,75.5 164.4,41.5 69.4,-41.5 1709.1,-1045.1 2429.7,-3636.1 17.7,-63.8 -19.7,-129.9 -83.5,-147.7 -10.7,-3 -21.6,-4.4 -32.2,-4.4" style="fill:#021149;fill-opacity:1;fill-rule:nonzero;stroke:none" transform="matrix(0.13333333,0,0,-0.13333333,0,5333.3333)" data-index="108"></path>
      <path id="path111" d="m 16959.9,12670.1 c -50.6,0 -97.7,32.3 -114.1,83 -747.1,2304.6 -2160.6,3483.3 -2174.8,3494.9 -51.3,42 -58.7,117.7 -16.7,168.9 42,51.2 117.6,58.8 168.9,16.7 60.1,-49.3 1482.3,-1235.5 2250.9,-3606.5 20.4,-63 -14.1,-130.7 -77.1,-151.1 -12.3,-4 -24.8,-5.9 -37.1,-5.9" style="fill:#021149;fill-opacity:1;fill-rule:nonzero;stroke:none" transform="matrix(0.13333333,0,0,-0.13333333,0,5333.3333)" data-index="109"></path>
      <path id="path112" d="m 17885.5,13138.4 c -54.1,0 -103.2,36.8 -116.5,91.8 -526.1,2172.5 -2099.1,3496.8 -2115,3509.9 -51,42.3 -58.1,117.9 -15.8,169 42.3,51 117.8,58.2 168.9,15.9 67.1,-55.5 1649.6,-1385.5 2195.1,-3638.4 15.6,-64.4 -24,-129.2 -88.4,-144.9 -9.5,-2.3 -19,-3.3 -28.3,-3.3" style="fill:#021149;fill-opacity:1;fill-rule:nonzero;stroke:none" transform="matrix(0.13333333,0,0,-0.13333333,0,5333.3333)" data-index="110"></path>
      <path id="path113" d="m 18760.5,13659 c -54.5,0 -103.8,37.3 -116.7,92.6 -454.7,1939.9 -1931.3,3444.2 -1946.2,3459.2 -46.6,47 -46.4,123 0.6,169.7 47,46.6 122.9,46.5 169.7,-0.5 62.6,-63 1538.9,-1565.9 2009.5,-3573.6 15.2,-64.5 -24.9,-129.1 -89.4,-144.2 -9.2,-2.2 -18.4,-3.2 -27.5,-3.2" style="fill:#021149;fill-opacity:1;fill-rule:nonzero;stroke:none" transform="matrix(0.13333333,0,0,-0.13333333,0,5333.3333)" data-index="111"></path>
    </g>
  </g>
</svg>