<?xml version="1.0" encoding="utf-8"?>
<!-- Svg Vector Icons : http://www.onlinewebfonts.com/icon -->
<!DOCTYPE svg PUBLIC "-//W3C//DTD SVG 1.1//EN" "http://www.w3.org/Graphics/SVG/1.1/DTD/svg11.dtd">
<svg version="1.1" xmlns="http://www.w3.org/2000/svg" xmlns:xlink="http://www.w3.org/1999/xlink" x="0px" y="0px" viewBox="0 0 256 256" enable-background="new 0 0 256 256" xml:space="preserve">
<metadata> Svg Vector Icons : http://www.onlinewebfonts.com/icon </metadata>
<g><g><path fill="#000000" d="M142.4,232c-0.3,0-0.6,0.1-0.9,0.1C142.2,232,142.4,232,142.4,232z"/><path fill="#000000" d="M114.5,232.1c-0.2,0-0.4,0-0.6-0.1C113.4,232,112.8,231.9,114.5,232.1z"/><path fill="#000000" d="M114.5,232.1c-0.2,0-0.4,0-0.6-0.1C113.4,232,112.8,231.9,114.5,232.1z"/><path fill="#000000" d="M142.4,232c-0.3,0-0.6,0.1-0.9,0.1C142.2,232,142.4,232,142.4,232z"/><path fill="#000000" d="M114.5,232.1c-0.2,0-0.4,0-0.6-0.1C113.4,232,112.8,231.9,114.5,232.1z"/><path fill="#000000" d="M142.4,232c-0.3,0-0.6,0.1-0.9,0.1C142.2,232,142.4,232,142.4,232z"/><path fill="#000000" d="M222,56.8c-15.6-20.3-37.3-35.3-62-42.3c-24.9-7.1-52.4-5.6-76.4,4.3c-23.6,9.8-43.6,26.8-56.8,48.7c-13.3,22.1-19,48.7-15.9,74.3c2.9,24.2,13.2,47,29.4,65.1c1,1.1,2,2.2,3.1,3.3c2.1,2.2,4.3,4.3,6.6,6.3c16.6,14.6,37.4,24.6,59.2,28c26.2,4.1,53.1-0.5,76.3-13.4c7.4-4.1,14.3-9,20.6-14.6c3.4-3,6.6-6.2,9.7-9.6l0,0c8-8.9,14.7-19,19.6-29.9c7-15.4,10.6-32.1,10.7-49C246,102.5,237.6,77.1,222,56.8z M198.2,205.9c-1.1,1-2.1,1.9-3.3,2.8c-0.6,0.5-1.1,0.9-1.7,1.4c-0.2,0.2-1.1,0.8-1.4,1.1c0.2-0.1,0.3-0.2,0.5-0.4c-0.8,0.6-0.8,0.6-0.5,0.4c-2.2,1.7-4.5,3.3-6.9,4.8c-5.1,3.3-10.4,6.1-16,8.5c-0.1,0-0.1,0.1-0.2,0.1c0.2-0.1,0.3-0.1,0.5-0.2c-1.6,0.7-1,0.4-0.5,0.2c-0.2,0.1-0.4,0.1-0.5,0.2c-0.7,0.3-1.3,0.6-2,0.8c-1.5,0.6-3,1.1-4.5,1.6c-2.9,1-5.9,1.8-8.9,2.6c-3,0.7-6.1,1.3-9.2,1.8c-0.4,0.1-0.9,0.1-1.3,0.2c0,0-0.3,0-0.9,0.1c0.3,0,0.6-0.1,0.9-0.1c0.1,0-1.4,0.2-1.8,0.2c-1.6,0.2-3.3,0.3-4.9,0.4c-6.4,0.5-12.8,0.3-19.2-0.3c-0.7-0.1-1.5-0.2-2.3-0.3c-0.1,0-0.2,0-0.3,0c0.2,0,0.4,0,0.6,0.1c-1.7-0.2-1.1-0.1-0.6-0.1c-0.2,0-0.4,0-0.6-0.1c-1.6-0.2-3.2-0.5-4.8-0.8c-3-0.6-6.1-1.3-9-2.1c-3-0.8-5.9-1.8-8.7-2.9c-1.1-0.4-2.2-0.9-3.3-1.3c0.2,0.1,0.2,0.1-0.7-0.3c0.2,0.1,0.5,0.2,0.7,0.3c-0.3-0.1-1.2-0.5-1.5-0.7c-0.8-0.3-1.5-0.7-2.3-1.1c-5.5-2.6-10.7-5.6-15.7-9.1c-1.2-0.8-2.4-1.7-3.5-2.5c-0.2-0.1-0.4-0.3-0.6-0.4c0,0,0.1,0.1,0.2,0.1c0.7,0.6,0.3,0.3,0,0c-0.1-0.1-0.3-0.2-0.4-0.3c0.1,0.1,0.2,0.1,0.3,0.2c0,0,0,0-0.1-0.1c-0.7-0.5-1.3-1-2-1.6c-1.7-1.4-3.3-2.8-4.9-4.3l0,0c0.4-0.6,0.8-1.2,1.3-1.7c0.1-0.1,0.2-0.3,0.3-0.4c-0.3,0.4-0.6,0.8,0.3-0.5c-0.1,0.1-0.2,0.3-0.3,0.5c0.1-0.1,0.1-0.2,0.2-0.2c1-1.2,2-2.4,3-3.6c2-2.3,4-4.4,6.2-6.5c2-1.9,4.1-3.7,6.3-5.4c-0.3,0.2-0.3,0.2,0.6-0.4c-0.2,0.1-0.4,0.3-0.6,0.4c0.3-0.2,1-0.8,1.2-0.9c0.6-0.4,1.2-0.8,1.8-1.3c1.3-0.9,2.6-1.8,3.9-2.6c2.6-1.6,5.2-3.1,7.9-4.5c1.3-0.6,2.6-1.3,3.9-1.9c0.3-0.1,0.6-0.3,1-0.4c-0.1,0-0.1,0-0.2,0.1c-1.3,0.5,1.5-0.7,0.2-0.1c0,0,0,0,0,0c0.7-0.3,1.4-0.6,2.2-0.9c5.8-2.2,11.7-3.8,17.8-4.9c0.7-0.1,1.5-0.2,2.2-0.4c0,0,0,0,0.1,0c-0.1,0-0.2,0-0.3,0c0.3,0,0.6-0.1,0.7-0.1c0.4,0,0.6-0.1,0,0c-0.1,0-0.3,0-0.4,0c0.3,0,0.5-0.1,0.8-0.1c1.6-0.2,3.3-0.3,4.9-0.5c3.2-0.2,6.4-0.2,9.6-0.1c1.5,0,3.1,0.1,4.6,0.3c0.7,0.1,1.5,0.1,2.3,0.2c0.4,0,0.7,0.1,1.1,0.1c0.1,0,0.2,0,0.3,0c0,0-0.1,0-0.1,0c-1.1-0.2,1.4,0.2,0.1,0c3,0.4,6,1,9,1.8c3,0.7,5.9,1.6,8.8,2.6c1.4,0.5,2.7,1,4.1,1.6c0.1,0,0.2,0.1,0.3,0.1c-0.4-0.2-0.7-0.3,0.7,0.3c-0.2-0.1-0.5-0.2-0.7-0.3c0.2,0.1,0.3,0.1,0.5,0.2c0.8,0.3,1.5,0.7,2.3,1.1c5.5,2.6,10.6,5.7,15.5,9.2c0.4,0.3,0.7,0.6,1.1,0.8c-0.2-0.2-0.1-0.1,0.6,0.5c-0.2-0.2-0.4-0.3-0.6-0.5c0.3,0.2,1,0.8,1.3,1c1.2,1,2.4,2,3.6,3c2.2,2,4.4,4.1,6.4,6.3c0.9,1,1.8,2,2.6,3c0.5,0.6,0.9,1.1,1.4,1.7c0.2,0.2,0.7,0.8,0.9,1.2c-0.1-0.2-0.2-0.3-0.4-0.5c0.7,0.9,0.6,0.8,0.4,0.5c0.5,0.7,1,1.4,1.5,2.1C199.1,205.1,198.5,205.7,198.2,205.9z M105.3,91.1c0.2-0.2,0.4-0.3,0.6-0.5l0,0c1.3-0.9,2.6-1.8,3.9-2.6c1.3-0.7,2.5-1.4,3.9-2c0,0,0.1,0,0.2-0.1c0.2-0.1,0.4-0.2,0.6-0.2c0.8-0.3,1.6-0.6,2.4-0.8c1.4-0.5,2.8-0.8,4.3-1.1c0.7-0.1,1.3-0.3,2-0.4c0.5,0,0.9-0.1,1.4-0.1c1.5-0.1,3.1-0.1,4.6-0.1c0.8,0,1.5,0.1,2.3,0.1c0.4,0,0.7,0.1,1.1,0.1c0.1,0,0.2,0,0.2,0c3,0.5,5.9,1.3,8.8,2.3c0.2,0.1,0.3,0.1,0.5,0.2c0.1,0,0.2,0.1,0.2,0.1c0.6,0.3,1.3,0.6,2,0.9c1.4,0.7,2.7,1.5,4,2.4c0.7,0.4,1.3,0.9,1.9,1.3c0.4,0.3,0.7,0.6,1.1,0.9c1.3,1.1,2.5,2.3,3.6,3.5c0.6,0.6,1.1,1.3,1.6,1.9c0.1,0.1,0.1,0.2,0.2,0.3c0.2,0.2,0.3,0.4,0.5,0.7c1,1.4,1.9,2.8,2.7,4.3c0.4,0.7,0.8,1.5,1.2,2.2c0.1,0.3,0.3,0.6,0.4,0.9c0,0,0,0.1,0.1,0.2c0.6,1.6,1.2,3.2,1.6,4.9c0.2,0.8,0.4,1.7,0.6,2.5c0.1,0.4,0.3,1.7,0.3,2c0.2,1.5,0.2,3,0.2,4.5s-0.1,3.1-0.2,4.6c0,0.1,0,0.1,0,0.2c0,0.2-0.1,0.4-0.1,0.6c-0.1,0.9-0.3,1.7-0.5,2.6c-0.3,1.4-0.7,2.8-1.2,4.2c-0.2,0.7-0.5,1.3-0.7,1.9c-0.2,0.4-0.4,0.8-0.6,1.2c-0.6,1.3-1.3,2.6-2.1,3.8c-0.4,0.6-0.8,1.2-1.2,1.8c-0.2,0.3-1,1.3-1.2,1.6c-1.7,2.1-3.7,4-5.7,5.8c-0.2,0.2-0.4,0.3-0.6,0.5c0,0,0,0,0,0c-0.6,0.4-1.2,0.8-1.8,1.2c-1.3,0.9-2.6,1.6-4,2.4c-0.7,0.3-1.3,0.7-2,0.9c0,0-0.1,0-0.2,0.1c-0.2,0.1-0.4,0.2-0.6,0.2c-1.5,0.6-3,1-4.5,1.4c-1.4,0.4-2.8,0.7-4.2,0.9c-0.3,0-0.7,0.1-1,0.1c-0.9,0.1-1.8,0.1-2.7,0.1c-0.3,0-0.5,0-0.8,0c-0.3,0-0.6,0-0.9,0c-1,0-2,0-2.9-0.1c-0.3,0-1.3-0.1-1.7-0.2c-0.6-0.1-1.2-0.2-1.8-0.3c-1.4-0.3-2.9-0.7-4.3-1.1c-0.7-0.2-1.4-0.5-2.1-0.7c-0.3-0.1-0.6-0.2-0.9-0.4c-0.1,0-0.1,0-0.2-0.1c-2.7-1.2-5.3-2.8-7.8-4.6l0,0c-0.2-0.2-0.4-0.3-0.6-0.5c-0.6-0.5-1.1-0.9-1.6-1.4c-1.2-1-2.2-2.2-3.3-3.3c-0.3-0.3-0.5-0.6-0.8-0.9c0-0.1-0.8-1.1-1-1.4c-0.9-1.3-1.7-2.6-2.5-4c-0.4-0.6-0.7-1.3-1-1.9c-0.1-0.3-0.5-1.2-0.7-1.5c-0.5-1.2-0.9-2.5-1.3-3.7c-0.4-1.4-0.7-2.9-1-4.3c0-0.3-0.1-0.6-0.1-0.9c-0.1-0.8-0.2-1.7-0.2-2.6c-0.1-1.5-0.1-3.1,0-4.6c0-0.7,0.1-1.5,0.2-2.3c0-0.1,0-0.2,0-0.3c0-0.3,0.1-0.6,0.1-0.9c0.5-2.7,1.3-5.4,2.2-8c0.1-0.1,0.6-1.3,0.7-1.6c0.3-0.6,0.6-1.3,1-1.9c0.7-1.4,1.6-2.7,2.5-4c0.2-0.2,0.7-0.9,0.9-1.2c0.3-0.4,0.6-0.7,0.9-1.1c1-1.2,2.1-2.3,3.3-3.3C104.2,92.1,104.7,91.6,105.3,91.1z M105.8,90.7C104.8,91.5,105.4,91,105.8,90.7L105.8,90.7z M150.3,148.1C151.2,147.4,150.6,147.9,150.3,148.1L150.3,148.1z M105.6,148.1C105.3,147.8,104.9,147.5,105.6,148.1L105.6,148.1z M232.4,137.6c-0.1,1.5-0.3,3-0.5,4.5c0-0.1,0-0.1,0-0.2c0.2-1.4-0.2,1.7,0,0.3c0,0,0,0,0,0c0,0.3-0.1,0.6-0.1,0.9c-0.1,0.9-0.3,1.7-0.4,2.6c-1.1,6.1-2.6,12.1-4.7,17.9c-0.5,1.4-1,2.7-1.5,4.1c-0.1,0.3-0.4,1.1-0.6,1.4c0.1-0.2,0.2-0.4,0.3-0.7c-0.4,1-0.4,1-0.3,0.7c-0.2,0.6-0.5,1.1-0.7,1.7c-1.3,2.7-2.6,5.5-4.1,8.1c-1.5,2.6-3,5.2-4.7,7.7c-0.8,1.2-1.6,2.4-2.5,3.5c-0.4,0.6-0.8,1.2-1.3,1.7c0,0-0.1,0.1-0.1,0.2c0.1-0.1,0.2-0.2,0.3-0.4c-1.1,1.4-0.6,0.8-0.3,0.4c-0.2,0.3-0.4,0.5-0.6,0.8c-0.7,0.9-1.5,1.8-2.2,2.7l0,0l0,0l0,0c-2.4-3.2-5-6.2-7.8-9.2c-12.1-12.6-27.4-21.6-44-26.5c3.8-2.7,7.2-5.9,10-9.5c7-8.9,10.9-19.6,10.9-30.9c0-13.6-5.8-26.9-15.8-36.2c-10-9.3-23.8-14.2-37.5-13.1c-13.5,1.1-26.3,7.7-34.7,18.3c-4.3,5.5-7.5,11.6-9.3,18.4c-1.9,7.1-2,14.3-0.8,21.5c2.1,12.7,9.8,24,20.2,31.5c-14.5,4.3-28,11.9-39.4,22.1c-4.6,4.2-8.8,8.8-12.5,13.7c-0.5-0.6-1-1.2-1.5-1.9c-0.4-0.5-0.8-1-1.3-1.6c0,0,0,0,0,0.1c0.8,1.1-1-1.3-0.1-0.2c0,0,0.1,0.1,0.1,0.1c-0.3-0.4-0.6-0.7-0.8-1.1c-3.6-4.8-6.8-10-9.5-15.3c-0.7-1.3-1.3-2.6-1.9-3.9c-0.3-0.6-0.6-1.3-0.9-2c-0.1-0.3-0.3-0.7-0.4-1c0.6,1.4-0.5-1.1,0,0c0,0,0,0,0,0c0,0,0-0.1,0-0.1c-1.2-2.8-2.2-5.7-3.1-8.6c-1.9-5.9-3.2-11.9-4.1-18c0,0,0,0.1,0,0.1c0.2,1.4-0.2-1.7,0-0.3c0,0,0,0.1,0,0.2c0-0.3-0.1-0.7-0.1-1c-0.1-0.7-0.2-1.5-0.2-2.3c-0.2-1.6-0.3-3.3-0.4-5c-0.2-3.2-0.2-6.4-0.1-9.6c0.1-3.2,0.4-6.4,0.7-9.5c0-0.3,0.1-0.5,0.1-0.8c0,0,0,0.1,0,0.2c-0.1,1.1-0.1,0.5,0,0c0-0.1,0-0.3,0.1-0.5c0,0.1,0,0.2,0,0.3c0,0,0,0,0-0.1c0.1-0.7,0.2-1.5,0.3-2.2c0.3-1.6,0.6-3.2,0.9-4.8c1.3-6,3-11.9,5.3-17.7c0.2-0.6,0.5-1.3,0.8-1.9c0,0,0,0,0,0.1c-0.5,1.3,0.6-1.5,0.1-0.2c0,0,0,0.1,0,0.1c0.1-0.3,0.3-0.6,0.4-0.9c0.6-1.4,1.3-2.9,2-4.3c1.3-2.7,2.8-5.3,4.3-7.9c1.5-2.6,3.2-5.1,5-7.5c0.4-0.6,0.8-1.2,1.3-1.7c0.2-0.3,0.4-0.5,0.6-0.8c0,0-0.1,0.1-0.1,0.1c-0.8,1.1,1-1.3,0.1-0.2c0,0,0,0,0,0.1c0.9-1.2,1.9-2.4,2.9-3.5c3.9-4.6,8.1-8.8,12.7-12.7c1.1-0.9,2.2-1.9,3.3-2.7c0,0,0,0,0.1,0c-0.1,0.1-0.2,0.1-0.3,0.2c0.3-0.2,0.5-0.4,0.6-0.5c0.2-0.2,0.4-0.3,0,0C64.1,44.9,64,45,63.9,45c0.2-0.1,0.4-0.3,0.6-0.5c0.7-0.5,1.3-1,2-1.5c2.4-1.8,5-3.4,7.5-5c2.6-1.6,5.3-3,7.9-4.3c1.3-0.7,2.6-1.3,3.9-1.9c0.3-0.1,1.2-0.5,1.5-0.6c-0.2,0.1-0.5,0.2-0.7,0.3c0.9-0.4,1-0.4,0.7-0.3c0.6-0.2,1.1-0.5,1.7-0.7c5.7-2.3,11.6-4,17.7-5.3c1.5-0.3,2.9-0.6,4.4-0.8c0.7-0.1,1.5-0.2,2.2-0.4c0.1,0,0.1,0,0.2,0c-0.3,0-0.2,0,0.9-0.1c-0.3,0-0.6,0.1-0.9,0.1c0.3,0,0.8-0.1,1-0.1c3.2-0.4,6.3-0.6,9.5-0.7c3.2-0.1,6.4-0.1,9.6,0.1c1.5,0.1,3.1,0.2,4.6,0.3c0.7,0.1,1.5,0.1,2.3,0.2c0.4,0,0.7,0.1,1.1,0.1c0.1,0,0.2,0,0.2,0c0,0-0.1,0-0.1,0c-1.1-0.2,1.4,0.2,0.1,0c6.1,0.8,12.1,2.2,18,4.1c2.9,0.9,5.8,2,8.6,3.1c0,0,0,0,0.1,0c-0.1,0-0.2-0.1-0.3-0.1c0.3,0.1,0.6,0.2,0.7,0.3c0.3,0.1,0.5,0.2,0,0c-0.1,0-0.3-0.1-0.4-0.2c0.2,0.1,0.5,0.2,0.7,0.3c0.7,0.3,1.3,0.6,2,0.9c1.4,0.7,2.8,1.3,4.2,2.1c5.4,2.7,10.5,5.9,15.3,9.5c0.2,0.1,0.8,0.6,1.2,0.9c-0.2-0.1-0.3-0.3-0.5-0.4c0.9,0.7,0.8,0.6,0.5,0.4c0.4,0.3,0.8,0.6,1.2,1c1.2,1,2.4,2,3.6,3c2.3,2,4.4,4,6.5,6.2c2.1,2.1,4.1,4.4,6,6.7c0.5,0.6,0.9,1.1,1.3,1.7c0.1,0.1,0.2,0.2,0.3,0.4c-0.3-0.4-0.6-0.7,0.4,0.5c-0.1-0.2-0.3-0.3-0.4-0.5c0.1,0.1,0.2,0.2,0.2,0.3c0.9,1.3,1.9,2.5,2.7,3.8c3.4,5,6.5,10.2,9.1,15.7c0.5,1.1,1,2.2,1.5,3.3c0-0.1-0.1-0.2-0.1-0.2c0,0,0.1,0.2,0.4,0.8l0,0l0,0c-0.1-0.2-0.2-0.5-0.3-0.7c0.1,0.4,0.5,1.2,0.6,1.5c0.3,0.8,0.6,1.6,0.9,2.4c1.1,2.9,2,5.8,2.9,8.7c1.3,4.7,2.3,9.5,3,14.4c0-0.1,0-0.3,0-0.4c0.1,1.1,0.2,1.3,0.1,0.6c0-0.1,0-0.1,0-0.2c0,0.2,0,0.5,0.1,0.7c0.1,0.6,0.1,1.3,0.2,1.9c0.1,1.3,0.2,2.5,0.3,3.8c0.2,2.6,0.3,5.1,0.3,7.7C232.9,131.3,232.7,134.5,232.4,137.6z"/><path fill="#000000" d="M142.4,232c-0.3,0-0.6,0.1-0.9,0.1C142.2,232,142.4,232,142.4,232z"/><path fill="#000000" d="M114.5,232.1c-0.2,0-0.4,0-0.6-0.1C113.4,232,112.8,231.9,114.5,232.1z"/><path fill="#000000" d="M181.4,186.9c0.2,0.1,0.4,0.3,0.6,0.5C181.3,186.8,181.2,186.8,181.4,186.9z"/><path fill="#000000" d="M139.6,169.6c0,0,0.1,0,0.1,0C141,169.7,138.5,169.4,139.6,169.6z"/><path fill="#000000" d="M197.2,202.5c0.1,0.2,0.2,0.3,0.4,0.5C197.8,203.4,197.9,203.4,197.2,202.5z"/><path fill="#000000" d="M116.6,169.5C117.2,169.5,116.9,169.5,116.6,169.5L116.6,169.5z"/><path fill="#000000" d="M192.4,210.9c-0.2,0.1-0.3,0.2-0.5,0.4C191.6,211.5,191.6,211.5,192.4,210.9z"/><path fill="#000000" d="M87.5,224.8c-0.2-0.1-0.5-0.2-0.7-0.3C87.6,224.9,87.7,224.9,87.5,224.8z"/><path fill="#000000" d="M169.3,224.5c-0.2,0.1-0.3,0.1-0.5,0.2C168.3,224.9,167.7,225.2,169.3,224.5z"/><path fill="#000000" d="M115.8,169.7c0.1,0,0.2,0,0.3,0c0.1,0,0.3,0,0.4,0C116.4,169.6,116.1,169.6,115.8,169.7z"/><path fill="#000000" d="M93.7,175.8c0.1,0,0.1,0,0.2-0.1c0,0,0,0,0,0C95.1,175.1,92.4,176.3,93.7,175.8z"/><path fill="#000000" d="M64.1,211.2C64.4,211.5,64.8,211.8,64.1,211.2L64.1,211.2z"/><path fill="#000000" d="M74.2,187.3c0.2-0.1,0.4-0.3,0.6-0.4C73.9,187.5,73.9,187.5,74.2,187.3z"/><path fill="#000000" d="M64.1,211.2c0,0-0.1-0.1-0.2-0.1c-0.1-0.1-0.2-0.1-0.3-0.2C63.8,211,64,211.1,64.1,211.2z"/><path fill="#000000" d="M58.5,203c0.1-0.1,0.2-0.3,0.3-0.5C57.9,203.8,58.2,203.4,58.5,203z"/><path fill="#000000" d="M162,175.7c0.2,0.1,0.5,0.2,0.7,0.3C161.3,175.4,161.6,175.5,162,175.7z"/><path fill="#000000" d="M105.8,90.7C105.4,91,104.8,91.5,105.8,90.7L105.8,90.7z"/><path fill="#000000" d="M150.3,148.1C150.6,147.9,151.2,147.4,150.3,148.1L150.3,148.1z"/><path fill="#000000" d="M105.6,148.1C104.9,147.5,105.3,147.8,105.6,148.1L105.6,148.1z"/><path fill="#000000" d="M232,141.9c0,0.1,0,0.1,0,0.2c0,0,0,0,0,0C231.8,143.6,232.2,140.5,232,141.9z"/><path fill="#000000" d="M224.9,168.5c-0.1,0.2-0.2,0.4-0.3,0.7C224.4,169.4,224.4,169.4,224.9,168.5z"/><path fill="#000000" d="M168.4,31.2c0.1,0,0.2,0.1,0.3,0.1c0.1,0,0.3,0.1,0.4,0.2C169,31.5,168.7,31.4,168.4,31.2z"/><path fill="#000000" d="M191.6,44.7c0.2,0.1,0.3,0.3,0.5,0.4C192.5,45.3,192.5,45.3,191.6,44.7z"/><path fill="#000000" d="M86.7,31.6c0.2-0.1,0.5-0.2,0.7-0.3C87.7,31.2,87.6,31.2,86.7,31.6z"/><path fill="#000000" d="M211.4,191.7c-0.1,0.1-0.2,0.2-0.3,0.4C210.8,192.5,210.4,193.1,211.4,191.7z"/><path fill="#000000" d="M141.9,24.1c0,0,0.1,0,0.1,0C143.3,24.2,140.8,23.9,141.9,24.1z"/><path fill="#000000" d="M169.1,31.5C169.6,31.7,169.4,31.6,169.1,31.5L169.1,31.5z"/><path fill="#000000" d="M211,64c0.1,0.2,0.3,0.3,0.4,0.5C210.5,63.2,210.7,63.6,211,64z"/><path fill="#000000" d="M224.9,87.7c-0.1-0.2-0.2-0.5-0.3-0.7c0-0.1-0.1-0.2-0.1-0.2c0,0,0,0,0.1,0.2C224.7,87.2,224.8,87.5,224.9,87.7L224.9,87.7z"/><path fill="#000000" d="M224.9,87.7c-0.2-0.6-0.4-0.8-0.4-0.8c0,0,0,0,0.1,0.2C224.7,87.2,224.8,87.5,224.9,87.7z"/><path fill="#000000" d="M231.9,113.6c0,0.1,0,0.3,0,0.4c0,0.1,0,0.1,0,0.2C232.1,114.9,232.1,114.7,231.9,113.6z"/><path fill="#000000" d="M113.6,24.1c0.3,0,0.6-0.1,0.9-0.1C113.4,24.2,113.3,24.2,113.6,24.1z"/><path fill="#000000" d="M24,114.1C24,114.6,23.9,115.2,24,114.1L24,114.1z"/><path fill="#000000" d="M31.3,168.8L31.3,168.8C30.9,167.8,31.9,170.2,31.3,168.8z"/><path fill="#000000" d="M24.1,142.2C24.1,142.2,24.1,142.1,24.1,142.2c0-0.1,0-0.2,0-0.3C23.8,140.5,24.2,143.6,24.1,142.2z"/><path fill="#000000" d="M64.2,44.8C64.6,44.5,64.5,44.6,64.2,44.8L64.2,44.8z"/><path fill="#000000" d="M45,192.2C45,192.1,45,192.1,45,192.2c-0.1-0.1-0.1-0.1-0.1-0.2C44,190.9,45.8,193.2,45,192.2z"/><path fill="#000000" d="M63.6,45.2c0.1-0.1,0.2-0.1,0.3-0.2c0.1-0.1,0.2-0.2,0.4-0.3C64.1,44.9,63.9,45,63.6,45.2z"/><path fill="#000000" d="M208.3,195.5L208.3,195.5L208.3,195.5L208.3,195.5z"/><path fill="#000000" d="M44.8,64.1c0,0,0.1-0.1,0.1-0.1c0,0,0,0,0-0.1C45.8,62.9,44,65.2,44.8,64.1z"/><path fill="#000000" d="M31.3,87.3C31.3,87.3,31.3,87.3,31.3,87.3c0.1-0.1,0.1-0.2,0.1-0.2C31.9,85.8,30.8,88.6,31.3,87.3z"/><path fill="#000000" d="M24,114.1c0-0.1,0-0.1,0-0.2c0-0.1,0-0.2,0-0.3C24.1,113.8,24.1,113.9,24,114.1z"/><path fill="#000000" d="M224.9,87.7c-0.3-0.6-0.4-0.8-0.4-0.8C224.5,86.9,224.6,87.1,224.9,87.7L224.9,87.7z"/></g></g>
</svg>