<?xml version="1.0" encoding="utf-8"?>
<svg xmlns="http://www.w3.org/2000/svg" viewBox="0 0.73 277.626 296.622">
  <g id="svg2" transform="matrix(1, 0, 0, 1, 28.58182, 25.108177)">
    <g transform="matrix(1.333333, 0, 0, -1.333333, -257.20224, 496.224396)" id="g10">
      <g transform="scale(0.1)" id="g12">
        <g>
          <path id="path86" style="fill: rgb(226, 205, 211); fill-opacity: 1; fill-rule: nonzero; stroke: none; stroke-width: 1px;" d="M 3566.89 1804.55 C 3566.89 1870.53 3205.8 1924.03 2760.36 1924.03 C 2314.93 1924.03 1953.84 1870.53 1953.84 1804.55 C 1953.84 1738.56 2314.93 1685.07 2760.36 1685.07 C 3205.8 1685.07 3566.89 1738.56 3566.89 1804.55"/>
          <path id="path88" style="fill: rgb(177, 185, 198); fill-opacity: 1; fill-rule: nonzero; stroke: none; stroke-width: 1px;" d="M 2830.64 2584.97 L 2936.97 2586.18 C 3017.86 2693.05 2994.86 2915.51 2994.86 2915.51 L 3120.72 2915.51 L 3212.32 3036.83 L 3140.61 3137.94 L 2765.49 3137.94 L 2830.64 2584.97"/>
          <path id="path90" style="fill: rgb(103, 132, 144); fill-opacity: 1; fill-rule: nonzero; stroke: none; stroke-width: 1px;" d="M 2956.13 2571.69 L 2917.84 2600.67 C 2992.01 2698.67 2971.18 2910.91 2970.97 2913.05 L 3018.74 2917.98 C 3019.72 2908.51 3041.74 2684.8 2956.13 2571.69"/>
          <path id="path92" style="fill: rgb(255, 255, 255); fill-opacity: 1; fill-rule: nonzero; stroke: none; stroke-width: 1px;" d="M 2439.99 2441.76 C 2439.99 2441.76 2376.34 2540.71 2255.24 2550.09 C 2134.14 2559.46 1988.82 2506.76 2023.44 2441.76 C 2058.09 2376.77 2183.41 2420.1 2183.41 2420.1 L 2339.43 2371.3 L 2439.99 2441.76"/>
          <path id="path94" style="fill: rgb(227, 227, 227); fill-opacity: 1; fill-rule: nonzero; stroke: none; stroke-width: 1px;" d="M 2101.43 2382.16 C 2063.03 2382.15 2022.47 2392.54 2002.27 2430.47 C 1990.58 2452.4 1991.69 2476.05 2005.43 2497.05 C 2042.53 2553.76 2164.93 2581.14 2257.09 2574.02 C 2388.57 2563.85 2457.32 2459.2 2460.18 2454.75 C 2467.36 2443.59 2464.13 2428.74 2452.97 2421.56 C 2441.84 2414.41 2427.01 2417.61 2419.82 2428.71 C 2419.22 2429.64 2360.55 2517.85 2253.39 2526.15 C 2161.45 2533.22 2066.2 2502.22 2045.63 2470.76 C 2041.49 2464.44 2041.21 2459.48 2044.63 2453.05 C 2064.95 2414.97 2148.07 2433.35 2175.59 2442.8 C 2188.11 2447.11 2201.78 2440.43 2206.09 2427.91 C 2210.41 2415.38 2203.78 2401.73 2191.26 2397.4 C 2188.07 2396.3 2146.22 2382.16 2101.43 2382.16"/>
          <path id="path96" style="fill: rgb(227, 227, 227); fill-opacity: 1; fill-rule: nonzero; stroke: none; stroke-width: 1px;" d="M 2352.3 3068.25 L 2043.04 3068.25 C 2029.79 3068.25 2019.04 3079 2019.04 3092.26 C 2019.04 3105.52 2029.79 3116.27 2043.04 3116.27 L 2352.3 3116.27 C 2365.57 3116.27 2376.32 3105.52 2376.32 3092.26 C 2376.32 3079 2365.57 3068.25 2352.3 3068.25"/>
          <path id="path98" style="fill: rgb(227, 227, 227); fill-opacity: 1; fill-rule: nonzero; stroke: none; stroke-width: 1px;" d="M 2352.3 2983.07 L 2191.76 2983.07 C 2178.49 2983.07 2167.74 2993.83 2167.74 3007.08 C 2167.74 3020.34 2178.49 3031.09 2191.76 3031.09 L 2352.3 3031.09 C 2365.57 3031.09 2376.32 3020.34 2376.32 3007.08 C 2376.32 2993.83 2365.57 2983.07 2352.3 2983.07"/>
          <path id="path100" style="fill: rgb(227, 227, 227); fill-opacity: 1; fill-rule: nonzero; stroke: none; stroke-width: 1px;" d="M 2352.3 3495.24 L 2191.76 3495.24 C 2178.49 3495.24 2167.74 3505.99 2167.74 3519.25 C 2167.74 3532.51 2178.49 3543.26 2191.76 3543.26 L 2352.3 3543.26 C 2365.57 3543.26 2376.32 3532.51 2376.32 3519.25 C 2376.32 3505.99 2365.57 3495.24 2352.3 3495.24"/>
          <path id="path102" style="fill: rgb(119, 118, 119); fill-opacity: 1; fill-rule: nonzero; stroke: none; stroke-width: 1px;" d="M 2905.89 2235.18 C 2901.43 2233.38 2896.59 2232.32 2891.49 2232.15 L 2707.05 2226.15 C 2683.74 2225.39 2664.24 2243.66 2663.49 2266.95 C 2662.74 2290.25 2681.01 2309.75 2704.3 2310.51 L 2888.74 2316.51 C 2912.03 2317.27 2931.53 2299 2932.3 2275.71 C 2932.89 2257.5 2921.86 2241.61 2905.89 2235.18"/>
          <path id="path104" style="fill: rgb(96, 92, 93); fill-opacity: 1; fill-rule: nonzero; stroke: none; stroke-width: 1px;" d="M 2890.13 2292.52 C 2889.93 2292.52 2889.72 2292.52 2889.53 2292.52 L 2705.07 2286.51 C 2700.22 2286.35 2695.72 2284.31 2692.39 2280.77 C 2689.07 2277.22 2687.32 2272.59 2687.49 2267.73 C 2687.64 2262.88 2689.68 2258.37 2693.24 2255.05 C 2696.78 2251.72 2701.45 2249.89 2706.26 2250.14 L 2890.72 2256.15 C 2892.86 2256.23 2894.97 2256.66 2896.93 2257.45 C 2903.97 2260.3 2908.55 2267.32 2908.3 2274.93 C 2907.97 2284.75 2899.89 2292.52 2890.13 2292.52 Z M 2905.89 2235.18 L 2905.93 2235.18 L 2905.89 2235.18 Z M 2705.61 2202.11 C 2688.74 2202.11 2672.76 2208.42 2660.39 2220.01 C 2647.49 2232.1 2640.07 2248.49 2639.49 2266.17 C 2638.91 2283.85 2645.26 2300.69 2657.36 2313.6 C 2669.45 2326.51 2685.84 2333.93 2703.51 2334.5 L 2887.97 2340.51 C 2924.41 2341.9 2955.11 2312.98 2956.3 2276.49 C 2957.2 2248.81 2940.55 2223.26 2914.88 2212.91 C 2914.86 2212.91 2914.86 2212.91 2914.86 2212.91 C 2907.68 2210.01 2900.07 2208.41 2892.28 2208.16 L 2707.82 2202.15 C 2707.09 2202.12 2706.34 2202.11 2705.61 2202.11"/>
          <path id="path106" style="fill: rgb(255, 255, 255); fill-opacity: 1; fill-rule: nonzero; stroke: none; stroke-width: 1px;" d="M 3363.39 2086.61 C 3346.68 2085.48 3330.59 2095.46 3324.68 2112.02 L 3187.95 2495.59 C 3180.84 2515.55 3191.24 2537.49 3211.2 2544.61 C 3231.18 2551.72 3253.11 2541.31 3260.22 2521.35 L 3396.95 2137.78 C 3404.07 2117.82 3393.66 2095.88 3373.7 2088.76 C 3370.3 2087.55 3366.84 2086.84 3363.39 2086.61"/>
          <path id="path108" style="fill: rgb(227, 227, 227); fill-opacity: 1; fill-rule: nonzero; stroke: none; stroke-width: 1px;" d="M 3289.61 2410.23 C 3279.78 2410.23 3270.57 2416.31 3267.03 2426.08 L 3236.72 2509.79 C 3236.61 2510.12 3236.49 2510.42 3236.36 2510.72 C 3230.95 2522.84 3236.41 2537.03 3248.51 2542.42 C 3260.61 2547.83 3274.82 2542.38 3280.22 2530.27 C 3280.82 2528.92 3281.38 2527.54 3281.89 2526.13 L 3312.18 2442.42 C 3316.7 2429.96 3310.26 2416.19 3297.78 2411.67 C 3295.09 2410.7 3292.32 2410.23 3289.61 2410.23"/>
          <path id="path110" style="fill: rgb(227, 227, 227); fill-opacity: 1; fill-rule: nonzero; stroke: none; stroke-width: 1px;" d="M 3545.39 2070.26 L 3352.7 2115.56 L 3520.99 2219.78 C 3532.26 2226.75 3535.74 2241.56 3528.76 2252.83 C 3521.78 2264.1 3506.97 2267.58 3495.7 2260.6 L 3327.43 2156.39 L 3376.66 2365.8 C 3379.7 2378.71 3371.7 2391.64 3358.78 2394.67 C 3345.89 2397.71 3332.95 2389.7 3329.91 2376.79 L 3280.68 2167.38 L 3176.47 2335.66 C 3169.49 2346.93 3154.68 2350.41 3143.41 2343.43 C 3132.14 2336.45 3128.66 2321.65 3135.64 2310.38 L 3239.86 2142.1 L 3047.16 2187.4 C 3034.28 2190.44 3021.34 2182.44 3018.3 2169.53 C 3015.26 2156.62 3023.26 2143.69 3036.18 2140.66 L 3228.86 2095.36 L 3060.59 1991.14 C 3049.3 1984.16 3045.82 1969.36 3052.82 1958.09 C 3057.36 1950.75 3065.2 1946.72 3073.24 1946.72 C 3077.55 1946.72 3081.93 1947.88 3085.86 1950.32 L 3254.14 2054.53 L 3204.91 1845.12 C 3201.86 1832.21 3209.86 1819.28 3222.78 1816.25 C 3224.63 1815.82 3226.47 1815.61 3228.3 1815.61 C 3239.18 1815.61 3249.05 1823.07 3251.64 1834.13 L 3300.89 2043.54 L 3405.09 1875.26 C 3409.64 1867.92 3417.49 1863.88 3425.53 1863.88 C 3429.84 1863.88 3434.22 1865.05 3438.16 1867.49 C 3449.43 1874.47 3452.91 1889.27 3445.93 1900.54 L 3341.72 2068.82 L 3534.39 2023.51 C 3536.24 2023.08 3538.09 2022.87 3539.91 2022.87 C 3550.8 2022.87 3560.66 2030.33 3563.26 2041.39 C 3566.3 2054.3 3558.3 2067.23 3545.39 2070.26"/>
          <path id="path112" style="fill: rgb(227, 227, 227); fill-opacity: 1; fill-rule: nonzero; stroke: none; stroke-width: 1px;" d="M 2494.74 2072.43 L 2301.7 2116.09 L 2469.07 2221.73 C 2480.28 2228.8 2483.64 2243.63 2476.57 2254.85 C 2469.49 2266.06 2454.66 2269.41 2443.45 2262.34 L 2276.07 2156.7 L 2319.72 2349.76 C 2322.64 2362.69 2314.53 2375.55 2301.61 2378.47 C 2288.66 2381.4 2275.82 2373.28 2272.89 2360.35 L 2229.22 2167.29 L 2114.41 2349.22 C 2107.34 2360.43 2092.51 2363.78 2081.28 2356.71 C 2070.07 2349.63 2066.72 2334.8 2073.8 2323.59 L 2188.61 2141.67 L 1995.56 2185.33 C 1982.62 2188.25 1969.77 2180.14 1966.85 2167.2 C 1963.91 2154.27 1972.04 2141.42 1984.96 2138.49 L 2178.01 2094.83 L 2010.63 1989.19 C 1999.42 1982.11 1996.07 1967.29 2003.14 1956.07 C 2007.71 1948.83 2015.51 1944.87 2023.47 1944.87 C 2027.86 1944.87 2032.29 1946.07 2036.27 1948.58 L 2203.66 2054.22 L 2159.99 1861.16 C 2157.07 1848.23 2165.18 1835.37 2178.11 1832.45 C 2179.89 1832.04 2181.68 1831.85 2183.43 1831.85 C 2194.39 1831.85 2204.3 1839.42 2206.82 1850.57 L 2250.49 2043.62 L 2365.3 1861.7 C 2369.86 1854.47 2377.66 1850.5 2385.63 1850.5 C 2390.01 1850.5 2394.43 1851.7 2398.41 1854.21 C 2409.63 1861.29 2412.99 1876.12 2405.91 1887.33 L 2291.09 2069.25 L 2484.16 2025.59 C 2485.93 2025.19 2487.72 2024.99 2489.47 2024.99 C 2500.45 2024.99 2510.34 2032.56 2512.86 2043.71 C 2515.8 2056.64 2507.68 2069.5 2494.74 2072.43"/>
          <path id="path114" style="fill: rgb(119, 118, 119); fill-opacity: 1; fill-rule: nonzero; stroke: none; stroke-width: 1px;" d="M 3280.91 1878.91 C 3171.64 1878.91 3079.26 1989.09 3079.26 2119.49 C 3079.26 2249.88 3171.64 2360.07 3280.91 2360.07 C 3390.18 2360.07 3482.49 2249.88 3482.49 2119.49 C 3482.49 1989.09 3390.18 1878.91 3280.91 1878.91 Z M 3280.91 2434.43 C 3122.91 2434.43 2994.86 2293.42 2994.86 2119.49 C 2994.86 1945.56 3122.91 1804.55 3280.91 1804.55 C 3438.82 1804.55 3566.89 1945.56 3566.89 2119.49 C 3566.89 2293.42 3438.82 2434.43 3280.91 2434.43"/>
          <path id="path116" style="fill: rgb(96, 92, 93); fill-opacity: 1; fill-rule: nonzero; stroke: none; stroke-width: 1px;" d="M 3280.88 2410.39 C 3136.41 2410.39 3018.91 2279.89 3018.91 2119.47 C 3018.91 1959.06 3136.41 1828.56 3280.88 1828.56 C 3425.32 1828.56 3542.84 1959.06 3542.84 2119.47 C 3542.84 2279.89 3425.32 2410.39 3280.88 2410.39 Z M 3280.88 1780.54 C 3109.93 1780.54 2970.88 1932.58 2970.88 2119.47 C 2970.88 2306.37 3109.93 2458.41 3280.88 2458.41 C 3451.8 2458.41 3590.86 2306.37 3590.86 2119.47 C 3590.86 1932.58 3451.8 1780.54 3280.88 1780.54"/>
          <path id="path118" style="fill: rgb(96, 92, 93); fill-opacity: 1; fill-rule: nonzero; stroke: none; stroke-width: 1px;" d="M 3280.88 2336.03 C 3184.61 2336.03 3103.3 2236.86 3103.3 2119.47 C 3103.3 2002.09 3184.61 1902.91 3280.88 1902.91 C 3377.13 1902.91 3458.45 2002.09 3458.45 2119.47 C 3458.45 2236.86 3377.13 2336.03 3280.88 2336.03 Z M 3280.88 1854.89 C 3158.59 1854.89 3055.28 1976.06 3055.28 2119.47 C 3055.28 2262.89 3158.59 2384.05 3280.88 2384.05 C 3403.16 2384.05 3506.47 2262.89 3506.47 2119.47 C 3506.47 1976.06 3403.16 1854.89 3280.88 1854.89"/>
          <path id="path120" style="fill: rgb(119, 118, 119); fill-opacity: 1; fill-rule: nonzero; stroke: none; stroke-width: 1px;" d="M 2239.89 1878.91 C 2130.63 1878.91 2038.24 1989.09 2038.24 2119.49 C 2038.24 2249.88 2130.63 2360.07 2239.89 2360.07 C 2349.16 2360.07 2441.47 2249.88 2441.47 2119.49 C 2441.47 1989.09 2349.16 1878.91 2239.89 1878.91 Z M 2239.89 2434.43 C 2081.91 2434.43 1953.84 2293.42 1953.84 2119.49 C 1953.84 1945.56 2081.91 1804.55 2239.89 1804.55 C 2397.8 1804.55 2525.88 1945.56 2525.88 2119.49 C 2525.88 2293.42 2397.8 2434.43 2239.89 2434.43"/>
          <path id="path122" style="fill: rgb(96, 92, 93); fill-opacity: 1; fill-rule: nonzero; stroke: none; stroke-width: 1px;" d="M 2239.86 2410.39 C 2095.41 2410.39 1977.88 2279.89 1977.88 2119.47 C 1977.88 1959.06 2095.41 1828.56 2239.86 1828.56 C 2384.32 1828.56 2501.82 1959.06 2501.82 2119.47 C 2501.82 2279.89 2384.32 2410.39 2239.86 2410.39 Z M 2239.86 1780.54 C 2068.93 1780.54 1929.87 1932.58 1929.87 2119.47 C 1929.87 2306.37 2068.93 2458.41 2239.86 2458.41 C 2410.78 2458.41 2549.84 2306.37 2549.84 2119.47 C 2549.84 1932.58 2410.78 1780.54 2239.86 1780.54"/>
          <path id="path124" style="fill: rgb(96, 92, 93); fill-opacity: 1; fill-rule: nonzero; stroke: none; stroke-width: 1px;" d="M 2239.86 2336.03 C 2143.61 2336.03 2062.3 2236.86 2062.3 2119.47 C 2062.3 2002.09 2143.61 1902.91 2239.86 1902.91 C 2336.11 1902.91 2417.43 2002.09 2417.43 2119.47 C 2417.43 2236.86 2336.11 2336.03 2239.86 2336.03 Z M 2239.86 1854.89 C 2117.57 1854.89 2014.28 1976.06 2014.28 2119.47 C 2014.28 2262.89 2117.57 2384.05 2239.86 2384.05 C 2362.14 2384.05 2465.45 2262.89 2465.45 2119.47 C 2465.45 1976.06 2362.14 1854.89 2239.86 1854.89"/>
          <path id="path126" style="fill: rgb(255, 191, 140); fill-opacity: 1; fill-rule: nonzero; stroke: none; stroke-width: 1px;" d="M 2762.05 2161.7 L 2754.99 2161.7 L 2568.47 2501.78 L 3027.3 2501.78 L 2762.05 2161.7 Z M 2497.09 2472.37 L 2667.47 2161.7 L 2313.78 2161.7 L 2497.09 2472.37 Z M 3102.74 2838.86 L 3015.88 2838.86 L 3077.49 2586.18 L 2490.34 2586.18 C 2475.39 2586.18 2461.57 2578.35 2453.97 2565.46 L 2203.53 2140.91 C 2195.86 2127.86 2195.7 2111.67 2203.22 2098.55 C 2210.74 2085.35 2224.7 2077.3 2239.89 2077.3 L 2779.16 2077.3 C 2790.2 2077.3 2800.72 2081.52 2808.63 2089.19 L 3107.72 2462.26 L 3191.89 2473.46 L 3102.74 2838.86"/>
          <path id="path128" style="fill: rgb(255, 170, 116); fill-opacity: 1; fill-rule: nonzero; stroke: none; stroke-width: 1px;" d="M 2355.8 2185.69 L 2626.93 2185.69 L 2496.3 2423.86 L 2355.8 2185.69 Z M 2667.49 2137.66 L 2313.76 2137.66 C 2305.14 2137.66 2297.18 2142.28 2292.91 2149.77 C 2288.63 2157.25 2288.7 2166.45 2293.07 2173.88 L 2476.39 2484.61 C 2480.78 2492.04 2488.88 2496.62 2497.45 2496.42 C 2506.07 2496.28 2513.97 2491.53 2518.13 2483.95 L 2688.53 2173.22 C 2692.61 2165.78 2692.47 2156.74 2688.14 2149.44 C 2683.82 2142.14 2675.97 2137.66 2667.49 2137.66 Z M 2609.01 2477.79 L 2761.41 2199.91 L 2978.14 2477.79 L 2609.01 2477.79 Z M 2762.05 2137.66 L 2754.99 2137.66 C 2746.24 2137.66 2738.16 2142.44 2733.95 2150.13 L 2547.41 2490.26 C 2543.32 2497.7 2543.47 2506.74 2547.8 2514.04 C 2552.13 2521.34 2559.97 2525.82 2568.45 2525.82 L 3027.32 2525.82 C 3036.49 2525.82 3044.88 2520.58 3048.89 2512.34 C 3052.93 2504.09 3051.89 2494.28 3046.26 2487.04 L 2780.97 2146.91 C 2776.43 2141.08 2769.45 2137.66 2762.05 2137.66 Z M 2779.16 2053.29 L 2241.09 2053.29 C 2225.51 2053.29 2210.63 2058.23 2199.2 2067.21 C 2172.7 2088.04 2165.82 2124.16 2182.82 2153.08 L 2433.3 2577.67 C 2445.11 2597.72 2466.97 2610.19 2490.34 2610.19 L 3046.93 2610.19 L 2992.55 2833.17 C 2990.8 2840.33 2992.45 2847.89 2996.99 2853.69 C 3001.55 2859.48 3008.51 2862.87 3015.88 2862.87 L 3102.74 2862.87 C 3113.8 2862.87 3123.45 2855.3 3126.07 2844.55 L 3198.7 2546.9 C 3201.84 2534.01 3193.95 2521.02 3181.05 2517.88 C 3168.16 2514.72 3155.18 2522.63 3152.05 2535.51 L 3083.89 2814.84 L 3046.45 2814.84 L 3100.82 2591.87 C 3102.57 2584.71 3100.93 2577.14 3096.38 2571.35 C 3091.82 2565.55 3084.86 2562.17 3077.49 2562.17 L 2490.34 2562.17 C 2483.8 2562.17 2477.95 2558.84 2474.66 2553.27 L 2224.2 2128.71 C 2220.2 2121.9 2220.51 2111.54 2228.89 2104.97 C 2231.89 2102.61 2236.22 2101.31 2241.09 2101.31 L 2779.16 2101.31 C 2783.57 2101.31 2787.74 2102.83 2791.03 2105.62 L 3088.99 2477.28 C 3092.86 2482.1 3098.43 2485.25 3104.55 2486.06 L 3143.99 2491.31 C 3157.14 2493.03 3169.2 2483.82 3170.95 2470.67 C 3172.7 2457.53 3163.47 2445.46 3150.32 2443.7 L 3120.43 2439.73 L 2827.36 2074.17 C 2826.74 2073.4 2826.07 2072.66 2825.36 2071.96 C 2812.95 2059.92 2796.55 2053.29 2779.16 2053.29"/>
          <path id="path130" style="fill: rgb(255, 255, 255); fill-opacity: 1; fill-rule: nonzero; stroke: none; stroke-width: 1px;" d="M 2861.51 2135.44 C 2861.51 2210.49 2800.68 2271.33 2725.63 2271.33 C 2650.57 2271.33 2589.74 2210.49 2589.74 2135.44 C 2589.74 2060.4 2650.57 1999.56 2725.63 1999.56 C 2800.68 1999.56 2861.51 2060.4 2861.51 2135.44"/>
          <path id="path132" style="fill: rgb(227, 227, 227); fill-opacity: 1; fill-rule: nonzero; stroke: none; stroke-width: 1px;" d="M 2725.63 2247.32 C 2663.93 2247.32 2613.76 2197.13 2613.76 2135.44 C 2613.76 2073.76 2663.93 2023.57 2725.63 2023.57 C 2787.3 2023.57 2837.49 2073.76 2837.49 2135.44 C 2837.49 2197.13 2787.3 2247.32 2725.63 2247.32 Z M 2725.63 1975.55 C 2637.45 1975.55 2565.74 2047.28 2565.74 2135.44 C 2565.74 2223.61 2637.45 2295.34 2725.63 2295.34 C 2813.78 2295.34 2885.51 2223.61 2885.51 2135.44 C 2885.51 2047.28 2813.78 1975.55 2725.63 1975.55"/>
          <path id="path134" style="fill: rgb(227, 227, 227); fill-opacity: 1; fill-rule: nonzero; stroke: none; stroke-width: 1px;" d="M 2725.63 2151.3 C 2716.89 2151.3 2709.76 2144.19 2709.76 2135.44 C 2709.76 2126.7 2716.89 2119.58 2725.63 2119.58 C 2734.36 2119.58 2741.49 2126.7 2741.49 2135.44 C 2741.49 2144.19 2734.36 2151.3 2725.63 2151.3 Z M 2725.63 2071.56 C 2690.41 2071.56 2661.74 2100.22 2661.74 2135.44 C 2661.74 2170.67 2690.41 2199.32 2725.63 2199.32 C 2760.84 2199.32 2789.51 2170.67 2789.51 2135.44 C 2789.51 2100.22 2760.84 2071.56 2725.63 2071.56"/>
          <path id="path136" style="fill: rgb(119, 118, 119); fill-opacity: 1; fill-rule: nonzero; stroke: none; stroke-width: 1px;" d="M 2676.47 2099.29 C 2672.01 2097.49 2667.16 2096.43 2662.07 2096.27 L 2477.63 2090.26 C 2454.32 2089.5 2434.82 2107.77 2434.07 2131.07 C 2433.32 2154.36 2451.59 2173.87 2474.88 2174.62 L 2659.32 2180.63 C 2682.61 2181.39 2702.11 2163.12 2702.88 2139.82 C 2703.47 2121.62 2692.45 2105.73 2676.47 2099.29"/>
          <path id="path138" style="fill: rgb(96, 92, 93); fill-opacity: 1; fill-rule: nonzero; stroke: none; stroke-width: 1px;" d="M 2660.7 2156.64 C 2660.51 2156.64 2660.3 2156.64 2660.11 2156.63 L 2475.66 2150.62 C 2470.8 2150.46 2466.3 2148.42 2462.97 2144.88 C 2459.66 2141.33 2457.91 2136.71 2458.07 2131.84 C 2458.39 2121.82 2466.8 2113.95 2476.84 2114.26 L 2661.3 2120.27 C 2663.45 2120.34 2665.53 2120.77 2667.49 2121.57 C 2667.49 2121.57 2667.49 2121.57 2667.51 2121.57 C 2674.55 2124.41 2679.13 2131.43 2678.88 2139.04 C 2678.55 2148.86 2670.47 2156.64 2660.7 2156.64 Z M 2476.22 2066.23 C 2440.7 2066.23 2411.24 2094.52 2410.07 2130.28 C 2409.49 2147.96 2415.84 2164.8 2427.93 2177.71 C 2440.03 2190.62 2456.43 2198.05 2474.11 2198.62 L 2658.55 2204.63 C 2659.26 2204.65 2659.99 2204.66 2660.72 2204.66 C 2696.26 2204.66 2725.7 2176.37 2726.88 2140.6 C 2727.78 2112.92 2711.13 2087.37 2685.45 2077.02 C 2678.26 2074.12 2670.64 2072.53 2662.86 2072.27 L 2478.41 2066.26 C 2477.68 2066.24 2476.95 2066.23 2476.22 2066.23"/>
          <path id="path140" style="fill: rgb(255, 255, 255); fill-opacity: 1; fill-rule: nonzero; stroke: none; stroke-width: 1px;" d="M 3283.45 2081.18 C 3266.74 2080.05 3250.64 2090.04 3244.74 2106.59 L 3108.01 2490.17 C 3100.89 2510.12 3111.3 2532.07 3131.26 2539.18 C 3151.22 2546.3 3221.32 2543.29 3221.32 2543.29 L 3212.57 2425.35 L 3317.01 2132.36 C 3324.13 2112.4 3313.72 2090.45 3293.76 2083.34 C 3290.36 2082.12 3286.89 2081.42 3283.45 2081.18"/>
          <path id="path142" style="fill: rgb(227, 227, 227); fill-opacity: 1; fill-rule: nonzero; stroke: none; stroke-width: 1px;" d="M 3280.72 2057.1 C 3254.78 2057.1 3230.97 2073.66 3222.11 2098.55 L 3085.36 2482.13 C 3079.76 2497.8 3080.61 2514.74 3087.76 2529.81 C 3094.91 2544.85 3107.47 2556.22 3123.14 2561.83 C 3125.41 2562.64 3127.76 2563.1 3130.16 2563.21 L 3220.24 2567.27 C 3245.78 2568.41 3269.93 2553.54 3280.24 2530.2 C 3285.61 2518.07 3280.13 2503.89 3267.99 2498.53 C 3255.84 2493.17 3241.68 2498.66 3236.32 2510.79 C 3233.95 2516.15 3228.36 2519.57 3222.41 2519.3 L 3136.82 2515.44 C 3134.36 2513.99 3132.39 2511.84 3131.14 2509.21 C 3129.51 2505.76 3129.3 2501.87 3130.59 2498.28 L 3267.34 2114.67 C 3269.49 2108.64 3275.47 2104.67 3281.82 2105.17 C 3283.89 2105.29 3285.88 2105.87 3287.76 2106.86 C 3293.82 2110.04 3296.53 2118.34 3293.91 2125.75 L 3172.39 2466.46 C 3167.93 2478.94 3174.43 2492.68 3186.93 2497.15 C 3199.41 2501.59 3213.14 2495.1 3217.61 2482.62 L 3339.16 2141.84 C 3349.76 2111.9 3337.26 2078.6 3310.05 2064.32 C 3302.16 2060.2 3293.47 2057.75 3284.91 2057.24 C 3283.51 2057.14 3282.11 2057.1 3280.72 2057.1"/>
          <path id="path144" style="fill: rgb(119, 118, 119); fill-opacity: 1; fill-rule: nonzero; stroke: none; stroke-width: 1px;" d="M 2499.91 2733.79 L 2684.91 2709.7 C 2734.16 2703.29 2770.99 2661.35 2770.99 2611.7 C 2770.99 2597.6 2759.55 2586.18 2745.47 2586.18 L 2490.34 2586.18 C 2449.41 2586.18 2416.24 2619.36 2416.24 2660.29 C 2416.24 2705.02 2455.55 2739.56 2499.91 2733.79"/>
          <path id="path146" style="fill: rgb(96, 92, 93); fill-opacity: 1; fill-rule: nonzero; stroke: none; stroke-width: 1px;" d="M 2490.34 2710.39 C 2478.26 2710.39 2466.47 2706.01 2457.28 2697.94 C 2446.45 2688.42 2440.24 2674.71 2440.24 2660.29 C 2440.24 2632.67 2462.72 2610.19 2490.34 2610.19 L 2745.47 2610.19 C 2746.3 2610.19 2746.97 2610.87 2746.97 2611.7 C 2746.97 2649.16 2718.97 2681.05 2681.82 2685.89 L 2496.82 2709.98 C 2494.66 2710.26 2492.49 2710.39 2490.34 2710.39 Z M 2745.47 2562.17 L 2490.34 2562.17 C 2436.24 2562.17 2392.22 2606.19 2392.22 2660.29 C 2392.22 2688.52 2404.39 2715.39 2425.59 2734.02 C 2446.8 2752.64 2475.01 2761.24 2503.01 2757.6 L 2688.01 2733.51 C 2749.01 2725.57 2794.99 2673.2 2794.99 2611.7 C 2794.99 2584.39 2772.78 2562.17 2745.47 2562.17"/>
          <path id="path148" style="fill: rgb(177, 185, 198); fill-opacity: 1; fill-rule: nonzero; stroke: none; stroke-width: 1px;" d="M 2660.84 3050 C 2617.99 2896.2 2430.51 2796.42 2554.07 2672.86 C 2677.64 2549.29 2631.49 2362.08 2540.74 2271.33 C 2449.99 2180.58 2577.34 2150.3 2679.24 2204.89 C 2771.59 2254.36 2866.91 2441.55 2830.64 2584.97 L 2861.51 3095.37 L 2660.84 3050"/>
          <path id="path150" style="fill: rgb(103, 132, 144); fill-opacity: 1; fill-rule: nonzero; stroke: none; stroke-width: 1px;" d="M 2836.61 2638.4 C 2830.76 2650.31 2816.38 2655.24 2804.47 2649.39 C 2792.57 2643.56 2787.64 2629.17 2793.49 2617.27 C 2822.7 2557.64 2821.32 2474.96 2789.7 2390.44 C 2761.55 2315.13 2713.72 2250.6 2667.89 2226.05 C 2640.38 2211.31 2608.41 2202.45 2580.2 2201.74 C 2555.36 2201.07 2539.24 2207.14 2534.88 2213.02 C 2530.97 2218.29 2537.55 2234.18 2557.72 2254.35 C 2608.86 2305.51 2643.99 2381.4 2651.66 2457.38 C 2660.66 2546.31 2632.03 2628.87 2571.05 2689.83 C 2508.88 2752.01 2538.16 2800.63 2599.8 2888.27 C 2631.55 2933.39 2667.53 2984.54 2683.97 3043.56 C 2687.53 3056.33 2680.05 3069.58 2667.28 3073.13 C 2654.53 3076.69 2641.26 3069.22 2637.72 3056.44 C 2623.49 3005.4 2591.49 2959.9 2560.53 2915.9 C 2541.24 2888.48 2521.74 2860.74 2507.86 2832.45 C 2418.84 2910.52 2348.01 2916.8 2302.8 2907.04 C 2246.26 2894.84 2199.74 2850.47 2175.2 2785.32 C 2155.39 2732.74 2095.22 2709.98 2051.47 2721.7 C 2008.96 2733.08 1990.3 2774.36 2000.28 2834.95 C 2002.43 2848.04 1993.58 2860.39 1980.48 2862.55 C 1967.4 2864.71 1955.05 2855.84 1952.89 2842.76 C 1945.54 2798.06 1950.37 2760.21 1967.27 2730.27 C 1982.81 2702.73 2007.63 2683.73 2039.06 2675.31 C 2050.43 2672.26 2062.55 2670.73 2074.99 2670.73 C 2132.18 2670.73 2195.55 2703.12 2220.14 2768.38 C 2239.09 2818.7 2272.05 2851.27 2312.93 2860.09 C 2364.72 2871.29 2425.97 2844.64 2490.59 2783.14 C 2482.84 2742.3 2492.88 2700.1 2537.09 2655.88 C 2601.93 2591.05 2609.2 2514.78 2603.89 2462.2 C 2597.28 2396.89 2567.34 2331.88 2523.76 2288.31 C 2471.53 2236.08 2484.16 2200.79 2496.32 2184.39 C 2511.49 2163.96 2541.53 2153.73 2577.22 2153.73 C 2612.47 2153.73 2653.22 2163.72 2690.57 2183.72 C 2746.95 2213.92 2802.18 2286.69 2834.68 2373.62 C 2870.91 2470.45 2871.61 2566.96 2836.61 2638.4"/>
          <path id="path152" style="fill: rgb(177, 185, 198); fill-opacity: 1; fill-rule: nonzero; stroke: none; stroke-width: 1px;" d="M 3393.41 3850.44 C 3333.78 3910.08 3143.8 3801.61 3060.14 3749.02 C 3018.72 3755.91 2965.3 3758.73 2904.14 3758.46 C 2842.95 3758.73 2789.53 3755.9 2748.11 3749.02 C 2664.43 3801.64 2474.47 3910.04 2414.86 3850.44 C 2355.68 3791.26 2423.26 3628.77 2457.97 3556.37 C 2416.91 3487.05 2401.93 3411.13 2401.93 3345.75 C 2401.93 3289.22 2408.66 3232.76 2422.22 3176.29 C 2448.64 3066.1 2535.78 2981.48 2646.84 2958.98 C 2732.61 2941.64 2818.36 2932.97 2904.14 2932.97 C 2989.91 2932.97 3075.66 2941.64 3161.43 2958.98 C 3272.49 2981.48 3359.63 3066.1 3386.05 3176.29 C 3399.61 3232.76 3406.34 3289.22 3406.34 3345.75 C 3406.34 3411.11 3391.36 3487.01 3350.34 3556.32 C 3384.95 3628.65 3452.61 3791.24 3393.41 3850.44"/>
          <path id="path154" style="fill: rgb(145, 162, 181); fill-opacity: 1; fill-rule: nonzero; stroke: none; stroke-width: 1px;" d="M 2964.86 3718.11 C 2964.86 3624.53 2937.64 3548.73 2904.18 3548.73 C 2870.64 3548.73 2843.41 3624.53 2843.41 3718.11 C 2843.41 3730.93 2843.91 3743.4 2844.91 3755.37 C 2884.39 3757.16 2923.88 3757.16 2963.36 3755.3 C 2964.36 3743.33 2964.86 3730.86 2964.86 3718.11"/>
          <path id="path156" style="fill: rgb(145, 162, 181); fill-opacity: 1; fill-rule: nonzero; stroke: none; stroke-width: 1px;" d="M 2834.45 3748.85 C 2834.45 3655.34 2807.3 3579.47 2773.76 3579.47 C 2741.53 3579.47 2715.01 3650.04 2713.16 3738.89 C 2734.01 3744.33 2755.57 3748.2 2777.64 3750.42 C 2796.55 3752.29 2815.47 3753.79 2834.39 3754.79 C 2834.45 3752.79 2834.45 3750.85 2834.45 3748.85"/>
          <path id="path158" style="fill: rgb(145, 162, 181); fill-opacity: 1; fill-rule: nonzero; stroke: none; stroke-width: 1px;" d="M 3095.13 3739.68 C 3093.41 3650.47 3066.89 3579.47 3034.51 3579.47 C 3000.97 3579.47 2973.82 3655.34 2973.82 3748.85 C 2973.82 3750.85 2973.82 3752.79 2973.89 3754.79 C 2995.59 3753.65 3017.38 3751.86 3039.09 3749.56 C 3058.22 3747.56 3076.93 3744.19 3095.13 3739.68"/>
          <path id="path160" style="fill: rgb(255, 255, 255); fill-opacity: 1; fill-rule: nonzero; stroke: none; stroke-width: 1px;" d="M 3323.55 3706.5 C 3323.55 3706.5 3333.22 3684.57 3334.8 3660 C 3336.3 3637.28 3322.61 3619.94 3304.7 3612.71 C 3267.09 3655.48 3220.66 3690.45 3168.2 3714.74 C 3168.7 3727.06 3173.86 3739.17 3183.89 3748.27 C 3224.16 3784.88 3279.84 3824.36 3319.24 3808.31 C 3387.89 3780.3 3323.55 3706.5 3323.55 3706.5"/>
          <path id="path162" style="fill: rgb(255, 255, 255); fill-opacity: 1; fill-rule: nonzero; stroke: none; stroke-width: 1px;" d="M 2484.68 3706.5 C 2484.68 3706.5 2475.01 3684.57 2473.43 3660 C 2471.93 3637.28 2485.61 3619.94 2503.51 3612.71 C 2541.14 3655.48 2587.57 3690.45 2640.01 3714.74 C 2639.51 3727.06 2634.36 3739.17 2624.32 3748.27 C 2584.05 3784.88 2528.39 3824.36 2488.97 3808.31 C 2420.34 3780.3 2484.68 3706.5 2484.68 3706.5"/>
          <path id="path164" style="fill: rgb(103, 132, 144); fill-opacity: 1; fill-rule: nonzero; stroke: none; stroke-width: 1px;" d="M 3362.7 3181.9 C 3338.57 3081.24 3257.68 3002.97 3156.68 2982.51 C 3072.86 2965.57 2987.91 2956.98 2904.14 2956.98 C 2820.38 2956.98 2735.41 2965.57 2651.61 2982.51 C 2550.59 3002.97 2469.72 3081.24 2445.57 3181.89 C 2432.55 3236.17 2425.95 3291.3 2425.95 3345.75 C 2425.95 3405.55 2439.59 3519.66 2531.03 3612.02 C 2540.36 3621.44 2540.28 3636.64 2530.84 3645.98 C 2521.43 3655.3 2506.22 3655.23 2496.89 3645.8 C 2483.91 3632.69 2472.32 3619.21 2461.97 3605.52 C 2413.61 3717.82 2401.82 3803.48 2431.82 3833.49 C 2460.36 3862.02 2557.82 3832.57 2686.2 3758.31 C 2666.7 3752 2647.91 3744.8 2630.14 3736.81 C 2618.05 3731.37 2612.66 3717.16 2618.09 3705.06 C 2623.53 3692.97 2637.76 3687.57 2649.84 3693.02 C 2671.59 3702.8 2695.09 3711.31 2719.68 3718.31 C 2758.72 3729.39 2820.86 3734.82 2904.24 3734.45 C 2987.59 3734.79 3049.57 3729.39 3088.59 3718.31 C 3113.18 3711.31 3136.7 3702.8 3158.43 3693.02 C 3161.64 3691.58 3164.97 3690.9 3168.28 3690.9 C 3177.43 3690.9 3186.18 3696.17 3190.18 3705.06 C 3195.63 3717.16 3190.22 3731.37 3178.14 3736.81 C 3160.36 3744.81 3141.55 3752.01 3122.01 3758.33 C 3250.34 3832.62 3347.82 3862.06 3376.41 3833.49 C 3406.34 3803.54 3394.57 3717.88 3346.28 3605.53 C 3335.93 3619.22 3324.36 3632.7 3311.38 3645.8 C 3302.05 3655.23 3286.84 3655.3 3277.43 3645.98 C 3267.99 3636.64 3267.91 3621.44 3277.24 3612.02 C 3368.68 3519.66 3382.32 3405.55 3382.32 3345.75 C 3382.32 3291.29 3375.72 3236.16 3362.7 3181.9 Z M 3410.36 3867.44 C 3376.59 3901.2 3316.57 3900.12 3226.84 3864.12 C 3164.64 3839.17 3100.36 3802.31 3055.01 3774.12 C 3015.28 3779.96 2964.82 3782.8 2904.24 3782.47 C 2843.55 3782.8 2793.01 3779.96 2753.22 3774.11 C 2707.8 3802.31 2643.47 3839.2 2581.34 3864.12 C 2491.63 3900.11 2431.61 3901.2 2397.86 3867.44 C 2362.91 3832.49 2340.89 3750.29 2430.89 3557.53 C 2386.2 3476.37 2377.93 3394.78 2377.93 3345.75 C 2377.93 3287.53 2384.97 3228.63 2398.86 3170.69 C 2427.36 3051.94 2522.82 2959.6 2642.09 2935.44 C 2729.01 2917.87 2817.18 2908.96 2904.14 2908.96 C 2991.09 2908.96 3079.26 2917.87 3166.2 2935.44 C 3285.45 2959.6 3380.91 3051.94 3409.41 3170.69 C 3423.3 3228.63 3430.34 3287.52 3430.34 3345.75 C 3430.34 3394.77 3422.07 3476.36 3377.39 3557.52 C 3467.24 3750.37 3445.26 3832.54 3410.36 3867.44"/>
          <path id="path166" style="fill: rgb(96, 92, 93); fill-opacity: 1; fill-rule: nonzero; stroke: none; stroke-width: 1px;" d="M 3246.34 3301.13 C 3246.34 3332.25 3221.11 3357.47 3190.01 3357.47 C 3158.89 3357.47 3133.66 3332.25 3133.66 3301.13 L 3246.34 3301.13"/>
          <path id="path168" style="fill: rgb(96, 92, 93); fill-opacity: 1; fill-rule: nonzero; stroke: none; stroke-width: 1px;" d="M 2820.66 3301.13 C 2820.66 3332.25 2795.45 3357.47 2764.34 3357.47 C 2733.22 3357.47 2707.99 3332.25 2707.99 3301.13 L 2820.66 3301.13"/>
          <path id="path170" style="fill: rgb(145, 162, 181); fill-opacity: 1; fill-rule: nonzero; stroke: none; stroke-width: 1px;" d="M 3332.55 3199.83 L 3243.55 3199.83 C 3232.7 3199.83 3223.89 3208.62 3223.89 3219.47 C 3223.89 3230.32 3232.7 3239.12 3243.55 3239.12 L 3332.55 3239.12 C 3343.41 3239.12 3352.2 3230.32 3352.2 3219.47 C 3352.2 3208.62 3343.41 3199.83 3332.55 3199.83"/>
          <path id="path172" style="fill: rgb(145, 162, 181); fill-opacity: 1; fill-rule: nonzero; stroke: none; stroke-width: 1px;" d="M 3316.36 3116.2 C 3314.11 3116.2 3311.8 3116.6 3309.55 3117.43 L 3236.72 3144.4 C 3226.55 3148.17 3221.36 3159.48 3225.11 3169.65 C 3228.89 3179.82 3240.2 3185.02 3250.36 3181.25 L 3323.2 3154.27 C 3333.36 3150.51 3338.57 3139.2 3334.8 3129.03 C 3331.86 3121.11 3324.36 3116.2 3316.36 3116.2"/>
          <path id="path174" style="fill: rgb(145, 162, 181); fill-opacity: 1; fill-rule: nonzero; stroke: none; stroke-width: 1px;" d="M 2710.8 3199.83 L 2621.78 3199.83 C 2610.93 3199.83 2602.14 3208.62 2602.14 3219.47 C 2602.14 3230.32 2610.93 3239.12 2621.78 3239.12 L 2710.8 3239.12 C 2721.64 3239.12 2730.45 3230.32 2730.45 3219.47 C 2730.45 3208.62 2721.64 3199.83 2710.8 3199.83"/>
          <path id="path176" style="fill: rgb(145, 162, 181); fill-opacity: 1; fill-rule: nonzero; stroke: none; stroke-width: 1px;" d="M 2637.97 3116.2 C 2629.99 3116.2 2622.47 3121.11 2619.55 3129.03 C 2615.78 3139.2 2620.97 3150.51 2631.14 3154.27 L 2703.97 3181.25 C 2714.14 3185.02 2725.45 3179.82 2729.22 3169.65 C 2732.99 3159.48 2727.8 3148.17 2717.61 3144.4 L 2644.78 3117.43 C 2642.55 3116.6 2640.24 3116.2 2637.97 3116.2"/>
          <path id="path178" style="fill: rgb(255, 255, 255); fill-opacity: 1; fill-rule: nonzero; stroke: none; stroke-width: 1px;" d="M 3154.2 3402.92 L 3107.51 3402.92 C 3094.26 3402.92 3083.51 3413.67 3083.51 3426.93 C 3083.51 3440.19 3094.26 3450.94 3107.51 3450.94 L 3154.2 3450.94 C 3167.47 3450.94 3178.22 3440.19 3178.22 3426.93 C 3178.22 3413.67 3167.47 3402.92 3154.2 3402.92"/>
          <path id="path180" style="fill: rgb(255, 255, 255); fill-opacity: 1; fill-rule: nonzero; stroke: none; stroke-width: 1px;" d="M 2846.82 3402.92 L 2800.13 3402.92 C 2786.88 3402.92 2776.11 3413.67 2776.11 3426.93 C 2776.11 3440.19 2786.88 3450.94 2800.13 3450.94 L 2846.82 3450.94 C 2860.09 3450.94 2870.84 3440.19 2870.84 3426.93 C 2870.84 3413.67 2860.09 3402.92 2846.82 3402.92"/>
          <path id="path182" style="fill: rgb(103, 132, 144); fill-opacity: 1; fill-rule: nonzero; stroke: none; stroke-width: 1px;" d="M 3034.47 3212.31 C 3034.47 3185.76 3024.8 3161.9 3009.53 3145.63 C 2996.64 3131.89 2979.76 3123.53 2961.2 3123.53 C 2924.3 3123.53 2893.76 3156.53 2888.61 3199.49 C 2888.07 3203.64 2887.84 3207.94 2887.84 3212.31 C 2887.84 3261.34 2920.68 3267.94 2961.2 3267.94 C 3001.64 3267.94 3034.47 3261.34 3034.47 3212.31"/>
          <path id="path184" style="fill: rgb(253, 128, 166); fill-opacity: 1; fill-rule: nonzero; stroke: none; stroke-width: 1px;" d="M 3009.53 3145.63 C 2996.64 3131.89 2979.76 3123.53 2961.2 3123.53 C 2924.3 3123.53 2893.76 3156.53 2888.61 3199.49 C 2901.51 3213.23 2918.39 3221.59 2936.95 3221.59 C 2973.86 3221.59 3004.39 3188.6 3009.53 3145.63"/>
          <path id="path186" style="fill: rgb(103, 132, 144); fill-opacity: 1; fill-rule: nonzero; stroke: none; stroke-width: 1px;" d="M 2961.16 3143.14 C 2931.59 3143.14 2907.51 3174.17 2907.51 3212.31 C 2907.51 3238.86 2915.61 3248.28 2961.16 3248.28 C 3006.72 3248.28 3014.82 3238.86 3014.82 3212.31 C 3014.82 3174.17 2990.76 3143.14 2961.16 3143.14 Z M 2992.64 3285.67 C 2994.84 3293.4 2996.03 3300.98 2996.59 3307.66 L 3002.16 3307.66 C 3013.01 3307.66 3021.82 3316.45 3021.82 3327.3 C 3021.82 3338.15 3013.01 3346.95 3002.16 3346.95 L 2952.18 3346.95 C 2941.32 3346.95 2932.53 3338.15 2932.53 3327.3 C 2932.53 3316.45 2941.32 3307.66 2952.18 3307.66 L 2957.09 3307.66 C 2956.24 3300.73 2954.53 3293.3 2951.36 3287.48 C 2920.47 3286.75 2868.22 3279.74 2868.22 3212.31 C 2868.22 3152.5 2909.91 3103.85 2961.16 3103.85 C 3012.41 3103.85 3054.11 3152.5 3054.11 3212.31 C 3054.11 3265.53 3021.55 3281.1 2992.64 3285.67"/>
          <path id="path188" style="fill: rgb(103, 132, 144); fill-opacity: 1; fill-rule: nonzero; stroke: none; stroke-width: 1px;" d="M 2685.61 2968.27 C 2652.51 2968.27 2627.76 2906.35 2627.76 2850.98 C 2627.76 2795.62 2652.51 2733.69 2685.61 2733.69 C 2718.72 2733.69 2743.47 2795.62 2743.47 2850.98 C 2743.47 2906.35 2718.72 2968.27 2685.61 2968.27 Z M 2685.61 2685.67 C 2626.24 2685.67 2579.74 2758.28 2579.74 2850.98 C 2579.74 2943.68 2626.24 3016.29 2685.61 3016.29 C 2744.99 3016.29 2791.49 2943.68 2791.49 2850.98 C 2791.49 2758.28 2744.99 2685.67 2685.61 2685.67"/>
          <path id="path190" style="fill: rgb(177, 185, 198); fill-opacity: 1; fill-rule: nonzero; stroke: none; stroke-width: 1px;" d="M 3325.41 2850.98 C 3325.41 2772.94 3288.76 2709.68 3243.55 2709.68 C 3198.32 2709.68 3161.68 2772.94 3161.68 2850.98 C 3161.68 2929.02 3198.32 2992.28 3243.55 2992.28 C 3288.76 2992.28 3325.41 2929.02 3325.41 2850.98"/>
          <path id="path192" style="fill: rgb(103, 132, 144); fill-opacity: 1; fill-rule: nonzero; stroke: none; stroke-width: 1px;" d="M 3243.55 2968.27 C 3210.43 2968.27 3185.68 2906.35 3185.68 2850.98 C 3185.68 2795.62 3210.43 2733.69 3243.55 2733.69 C 3276.66 2733.69 3301.39 2795.62 3301.39 2850.98 C 3301.39 2906.35 3276.66 2968.27 3243.55 2968.27 Z M 3243.55 2685.67 C 3184.18 2685.67 3137.66 2758.28 3137.66 2850.98 C 3137.66 2943.68 3184.18 3016.29 3243.55 3016.29 C 3302.91 3016.29 3349.41 2943.68 3349.41 2850.98 C 3349.41 2758.28 3302.91 2685.67 3243.55 2685.67"/>
          <path id="path194" style="fill: rgb(255, 255, 255); fill-opacity: 1; fill-rule: nonzero; stroke: none; stroke-width: 1px;" d="M 3120.11 2823.3 L 2959.8 2823.3 C 2944.91 2823.3 2931.38 2831.91 2925.07 2845.38 L 2885.93 2928.83 C 2876.66 2948.57 2853.78 2957.19 2833.8 2948.48 L 2615.72 2853.31 C 2596.3 2844.84 2573.7 2853.71 2565.22 2873.13 C 2556.74 2892.55 2565.61 2915.16 2585.03 2923.63 L 2803.09 3018.8 C 2861.47 3044.27 2928.36 3019.07 2955.39 2961.4 L 2984.18 2900.03 L 3088.39 2900.03 L 3094.34 2931.14 C 3101.2 2967.04 3123.86 2997.05 3156.53 3013.48 C 3189.18 3029.9 3226.8 3030.2 3259.72 3014.28 L 3452.99 2920.85 C 3472.07 2911.63 3480.05 2888.69 3470.82 2869.61 C 3461.59 2850.53 3438.66 2842.54 3419.59 2851.77 L 3226.32 2945.2 C 3215.05 2950.64 3202.18 2950.55 3190.99 2944.92 C 3179.82 2939.3 3172.05 2929.03 3169.7 2916.73 L 3157.8 2854.46 C 3154.34 2836.38 3138.53 2823.3 3120.11 2823.3"/>
          <path id="path196" style="fill: rgb(227, 227, 227); fill-opacity: 1; fill-rule: nonzero; stroke: none; stroke-width: 1px;" d="M 2849.99 2975.91 C 2873.99 2975.91 2896.74 2962.29 2907.66 2939.02 L 2946.8 2855.57 C 2949.16 2850.55 2954.26 2847.31 2959.8 2847.31 L 3120.11 2847.31 C 3126.99 2847.31 3132.93 2852.21 3134.22 2858.97 L 3146.13 2921.24 C 3149.89 2940.92 3162.3 2957.37 3180.22 2966.37 C 3198.09 2975.37 3218.72 2975.54 3236.76 2966.82 L 3430.03 2873.39 C 3433.49 2871.71 3437.39 2871.49 3440.99 2872.75 C 3444.63 2874.01 3447.55 2876.61 3449.22 2880.07 C 3452.66 2887.19 3449.66 2895.78 3442.53 2899.23 L 3249.28 2992.66 C 3223.13 3005.31 3193.26 3005.06 3167.32 2992.02 C 3141.38 2978.98 3123.38 2955.14 3117.93 2926.63 L 3111.97 2895.52 C 3109.82 2884.21 3099.91 2876.02 3088.39 2876.02 L 2984.18 2876.02 C 2974.86 2876.02 2966.39 2881.41 2962.45 2889.84 L 2933.66 2951.21 C 2912.2 2997 2859.07 3017.03 2812.7 2996.8 L 2594.64 2901.63 C 2591.13 2900.09 2588.41 2897.28 2587.01 2893.72 C 2585.61 2890.15 2585.7 2886.25 2587.22 2882.73 C 2590.39 2875.48 2598.88 2872.15 2606.13 2875.32 L 2824.18 2970.49 C 2832.63 2974.16 2841.39 2975.91 2849.99 2975.91 Z M 3120.11 2799.29 L 2959.8 2799.29 C 2935.72 2799.29 2913.55 2813.37 2903.32 2835.18 L 2864.18 2918.63 C 2860.43 2926.63 2851.49 2930 2843.39 2926.47 L 2625.34 2831.3 C 2593.8 2817.56 2556.97 2832.01 2543.22 2863.52 C 2536.55 2878.79 2536.22 2895.74 2542.32 2911.25 C 2548.39 2926.76 2560.16 2938.98 2575.43 2945.64 L 2793.49 3040.81 C 2863.88 3071.52 2944.53 3041.12 2977.14 2971.6 L 2999.43 2924.04 L 3068.53 2924.04 L 3070.76 2935.65 C 3079.03 2978.94 3106.36 3015.12 3145.74 3034.93 C 3185.13 3054.74 3230.49 3055.09 3270.18 3035.89 L 3463.43 2942.47 C 3478.43 2935.21 3489.72 2922.55 3495.2 2906.82 C 3500.68 2891.08 3499.7 2874.16 3492.45 2859.16 C 3485.18 2844.15 3472.53 2832.88 3456.8 2827.4 C 3441.05 2821.92 3424.13 2822.9 3409.13 2830.16 L 3215.88 2923.58 C 3211.3 2925.79 3206.32 2925.75 3201.8 2923.48 C 3197.26 2921.19 3194.24 2917.2 3193.28 2912.23 L 3181.39 2849.95 C 3175.78 2820.6 3150.01 2799.29 3120.11 2799.29"/>
          <path id="path198" style="fill: rgb(255, 255, 157); fill-opacity: 1; fill-rule: nonzero; stroke: none; stroke-width: 1px;" d="M 3201.03 2793.15 C 3201.03 2719.78 3155.2 2660.3 3098.66 2660.3 C 3042.11 2660.3 2996.28 2719.78 2996.28 2793.15 C 2996.28 2866.53 3042.11 2926.01 3098.66 2926.01 C 3155.2 2926.01 3201.03 2866.53 3201.03 2793.15"/>
          <path id="path200" style="fill: rgb(255, 229, 164); fill-opacity: 1; fill-rule: nonzero; stroke: none; stroke-width: 1px;" d="M 3098.66 2902 C 3055.45 2902 3020.28 2853.17 3020.28 2793.15 C 3020.28 2733.14 3055.45 2684.31 3098.66 2684.31 C 3141.86 2684.31 3177.03 2733.14 3177.03 2793.15 C 3177.03 2853.17 3141.86 2902 3098.66 2902 Z M 3098.66 2636.29 C 3028.97 2636.29 2972.26 2706.66 2972.26 2793.15 C 2972.26 2879.65 3028.97 2950.02 3098.66 2950.02 C 3168.34 2950.02 3225.05 2879.65 3225.05 2793.15 C 3225.05 2706.66 3168.34 2636.29 3098.66 2636.29"/>
          <path id="path202" style="fill: rgb(255, 229, 164); fill-opacity: 1; fill-rule: nonzero; stroke: none; stroke-width: 1px;" d="M 3111.36 2820.81 C 3111.34 2820.8 3111.34 2820.8 3111.34 2820.8 C 3111.34 2820.8 3111.34 2820.8 3111.36 2820.81 Z M 3111.34 2765.51 C 3111.34 2765.51 3111.34 2765.51 3111.36 2765.5 C 3111.34 2765.51 3111.34 2765.51 3111.34 2765.51 Z M 3098.64 2721.11 C 3094.3 2721.11 3089.91 2722.28 3085.97 2724.74 C 3071.86 2733.51 3056.66 2758.67 3056.66 2793.15 C 3056.66 2827.64 3071.86 2852.8 3085.97 2861.57 C 3097.22 2868.57 3112.03 2865.13 3119.05 2853.87 C 3125.78 2843.05 3122.84 2828.95 3112.61 2821.65 C 3110.57 2819.27 3104.68 2809.47 3104.68 2793.15 C 3104.68 2776.84 3110.57 2767.04 3112.61 2764.66 C 3122.84 2757.36 3125.78 2743.26 3119.05 2732.44 C 3114.49 2725.13 3106.66 2721.11 3098.64 2721.11"/>
          <path id="path204" style="fill: rgb(177, 185, 198); fill-opacity: 1; fill-rule: nonzero; stroke: none; stroke-width: 1px;" d="M 3430.78 2937.39 C 3452.59 2984.86 3417.16 3009.18 3369.7 3030.99 C 3322.24 3052.8 3280.72 3063.83 3258.91 3016.37 C 3237.11 2968.91 3257.89 2912.76 3305.36 2890.95 C 3352.82 2869.14 3408.97 2889.93 3430.78 2937.39"/>
          <path id="path206" style="fill: rgb(103, 132, 144); fill-opacity: 1; fill-rule: nonzero; stroke: none; stroke-width: 1px;" d="M 3306.22 3025.71 C 3291.38 3025.71 3285.82 3017.45 3280.72 3006.34 C 3272.86 2989.22 3272.14 2970.05 3278.68 2952.38 C 3285.22 2934.7 3298.26 2920.63 3315.39 2912.77 C 3332.51 2904.89 3351.66 2904.17 3369.36 2910.71 C 3387.03 2917.26 3401.09 2930.29 3408.97 2947.42 C 3417.93 2966.92 3419.34 2981.76 3359.68 3009.17 C 3333.99 3020.98 3317.45 3025.71 3306.22 3025.71 Z M 3344.78 2858.24 C 3327.91 2858.24 3311.11 2861.88 3295.34 2869.13 C 3266.55 2882.35 3244.64 2906 3233.64 2935.7 C 3222.64 2965.41 3223.86 2997.61 3237.09 3026.39 C 3271.99 3102.32 3347.49 3067.61 3379.74 3052.81 C 3411.97 3037.99 3487.49 3003.29 3452.59 2927.37 C 3439.38 2898.59 3415.74 2876.68 3386.03 2865.68 C 3372.61 2860.71 3358.68 2858.24 3344.78 2858.24"/>
          <path id="path208" style="fill: rgb(177, 185, 198); fill-opacity: 1; fill-rule: nonzero; stroke: none; stroke-width: 1px;" d="M 2797.36 3025.41 C 2777.2 3073.58 2735.32 3063.97 2687.14 3043.79 C 2638.95 3023.61 2602.72 3000.51 2622.91 2952.34 C 2643.09 2904.16 2698.49 2881.46 2746.68 2901.64 C 2794.84 2921.82 2817.55 2977.23 2797.36 3025.41"/>
          <path id="path210" style="fill: rgb(103, 132, 144); fill-opacity: 1; fill-rule: nonzero; stroke: none; stroke-width: 1px;" d="M 2748.95 3036.33 C 2733.53 3036.33 2712.91 3028.55 2696.41 3021.64 C 2635.86 2996.28 2636.76 2981.41 2645.05 2961.61 C 2660.09 2925.72 2701.51 2908.76 2737.39 2923.79 C 2754.78 2931.07 2768.28 2944.68 2775.43 2962.12 C 2782.57 2979.56 2782.51 2998.75 2775.22 3016.13 C 2767.8 3033.86 2759.01 3035.82 2751.38 3036.26 C 2750.57 3036.3 2749.76 3036.33 2748.95 3036.33 Z M 2710.3 2870.29 C 2663.91 2870.28 2619.78 2897.67 2600.76 2943.06 C 2584.53 2981.81 2597.55 3008.68 2611.34 3024.39 C 2628.05 3043.45 2654.34 3056.09 2677.86 3065.94 C 2701.38 3075.79 2728.89 3085.69 2754.14 3084.2 C 2775.01 3083 2803.28 3073.43 2819.51 3034.68 C 2831.76 3005.46 2831.88 2973.23 2819.88 2943.92 C 2807.86 2914.61 2785.16 2891.73 2755.95 2879.49 C 2741.03 2873.25 2725.53 2870.29 2710.3 2870.29"/>
        </g>
      </g>
    </g>
  </g>
</svg>