<?xml version="1.0" encoding="utf-8"?>
<svg xmlns="http://www.w3.org/2000/svg" viewBox="0 0.73 277.626 296.622">
  <g id="svg2" transform="matrix(1, 0, 0, 1, 46.261353, 2.247656)">
    <g transform="matrix(1.333333, 0, 0, -1.333333, -0.634796, 734.12262)" id="g10">
      <g transform="scale(0.1)" id="g12">
        <g id="svg-1" transform="matrix(1, 0, 0, 1, 2787.922607, -1175.630127)">
          <g transform="matrix(10.000002, 0, 0, 10.000002, -720.28656, 1672.723755)" id="group-1">
            <g transform="scale(0.1)" id="group-2">
              <g transform="matrix(1, 0, 0, 1, -5049.289062, 2550.472412)">
                <path id="path16" style="fill:#b1b9c6;fill-opacity:1;fill-rule:nonzero;stroke:none" d="m 3924.13,1409.8 c 118,-76.82 373.33,-9.39 393.71,-105.79 20.37,-96.39 -209.87,-125.59 -366.12,-105.1 l -27.59,210.89"/>
                <path id="path18" style="fill:#e2cdd3;fill-opacity:1;fill-rule:nonzero;stroke:none" d="m 4340.85,370.379 c 0,66.48 -233.83,120.371 -522.28,120.371 -288.44,0 -522.27,-53.891 -522.27,-120.371 0,-66.488 233.83,-120.379 522.27,-120.379 288.45,0 522.28,53.891 522.28,120.379"/>
                <path id="path20" style="fill:#777677;fill-opacity:1;fill-rule:nonzero;stroke:none" d="m 3705.99,402.859 c -0.04,45.563 -37,82.461 -82.57,82.422 -45.56,-0.031 -82.46,-37 -82.42,-82.562 0.04,-45.559 37,-82.457 82.56,-82.43 45.56,0.043 82.46,37.012 82.43,82.57"/>
                <path id="path22" style="fill:#605c5d;fill-opacity:1;fill-rule:nonzero;stroke:none" d="m 3623.5,461.27 c -0.02,0 -0.04,0 -0.05,0 -32.25,-0.032 -58.46,-26.282 -58.44,-58.532 0.03,-32.226 26.26,-58.429 58.48,-58.429 0.02,0 0.03,0 0.05,0 15.62,0.011 30.3,6.113 41.34,17.16 11.03,11.062 17.11,25.75 17.09,41.363 v 0 c -0.01,15.629 -6.11,30.309 -17.16,41.34 -11.04,11.027 -25.72,17.098 -41.31,17.098 z m -0.01,-164.989 c -58.69,0 -106.46,47.719 -106.51,106.418 -0.04,58.731 47.7,106.551 106.42,106.602 0.03,0 0.07,0 0.1,0 28.41,0 55.13,-11.051 75.24,-31.141 20.14,-20.101 31.24,-46.828 31.26,-75.281 v -0.008 c 0.05,-58.73 -47.69,-106.551 -106.42,-106.59 -0.03,0 -0.06,0 -0.09,0"/>
                <path id="path24" style="fill:#777677;fill-opacity:1;fill-rule:nonzero;stroke:none" d="m 4259.42,548.23 c -0.04,45.559 -37,82.461 -82.56,82.418 -45.56,-0.027 -82.47,-37 -82.43,-82.558 0.04,-45.559 37,-82.461 82.56,-82.43 45.56,0.039 82.47,37.012 82.43,82.57"/>
                <path id="path26" style="fill:#605c5d;fill-opacity:1;fill-rule:nonzero;stroke:none" d="m 4176.93,606.641 c -0.02,0 -0.03,0 -0.05,0 -32.25,-0.032 -58.46,-26.282 -58.43,-58.532 0.01,-15.621 6.1,-30.3 17.16,-41.339 11.04,-11.02 25.71,-17.09 41.31,-17.09 0.02,0 0.03,0 0.05,0 15.62,0.011 30.3,6.109 41.34,17.16 11.03,11.051 17.11,25.742 17.09,41.359 -0.01,15.633 -6.1,30.313 -17.16,41.34 -11.04,11.031 -25.71,17.102 -41.31,17.102 z m -0.01,-164.993 c -28.42,0 -55.14,11.051 -75.25,31.141 -20.13,20.102 -31.23,46.832 -31.25,75.281 -0.03,28.45 11.03,55.211 31.13,75.34 20.1,20.129 46.84,31.231 75.29,31.262 0.03,0 0.06,0 0.09,0 28.42,0 55.13,-11.063 75.25,-31.141 20.13,-20.101 31.23,-46.832 31.25,-75.281 0.03,-28.449 -11.03,-55.211 -31.13,-75.34 -20.1,-20.14 -46.84,-31.23 -75.29,-31.262 -0.03,0 -0.06,0 -0.09,0"/>
                <path id="path28" style="fill:#fd80a6;fill-opacity:1;fill-rule:nonzero;stroke:none" d="m 4350.5,768.648 c -18.53,79.364 -270.91,88.282 -563.69,19.922 -292.79,-68.359 -515.12,-188.109 -496.59,-267.48 18.53,-79.36 270.9,-88.281 563.69,-19.918 292.79,68.359 515.12,188.117 496.59,267.476"/>
                <path id="path30" style="fill:#f6608e;fill-opacity:1;fill-rule:nonzero;stroke:none" d="m 4140.18,810.531 c -99.46,0 -221.54,-15.84 -347.91,-45.34 -309.34,-72.23 -490.12,-189.582 -478.66,-238.64 11.44,-49.051 225.5,-74.219 534.83,-1.992 139.6,32.589 267.14,77.832 359.12,127.371 64.34,34.66 126.26,82.5 119.55,111.261 v 0.008 c -6.72,28.75 -83.42,44.231 -156.46,46.813 -9.89,0.347 -20.06,0.519 -30.47,0.519 z M 3499.53,430.992 c -126,0 -218.76,24.957 -232.7,84.637 -11.99,51.371 36.31,106.711 143.55,164.473 95.61,51.5 227.35,98.328 370.96,131.859 143.61,33.531 282.54,49.879 391,46.051 121.74,-4.301 189.54,-32.532 201.54,-83.903 v 0 c 11.99,-51.371 -36.3,-106.699 -143.55,-164.468 -95.6,-51.5 -227.35,-98.321 -370.96,-131.86 -125.4,-29.269 -254.28,-46.789 -359.84,-46.789"/>
                <path id="path32" style="fill:#b1b9c6;fill-opacity:1;fill-rule:nonzero;stroke:none" d="m 3986.68,1113.86 c 164.87,-13.81 254.23,-68.32 207.73,-216.598 -46.5,-148.282 -119.89,-205.071 -167.75,-173.91 -47.86,31.16 1.92,192.257 1.92,192.257 0,0 -148.29,-8.328 -236.74,49.25 l 194.84,149.001"/>
                <path id="path34" style="fill:#b1b9c6;fill-opacity:1;fill-rule:nonzero;stroke:none" d="m 3791.84,964.859 c 0,0 -144.54,-471.328 -269.18,-445.379 -144.4,30.141 103.29,684.04 108.5,697.72 -102.13,-94.82 -221.83,-149.96 -335.73,-174.03 -136.66,-28.89 -217,83.05 -31.99,151.36 243.67,90.44 306.81,329.18 306.81,329.18 l 329.93,-0.57 c 0,0 327.12,-466.24 -108.34,-558.281"/>
                <path id="path36" style="fill:#678490;fill-opacity:1;fill-rule:nonzero;stroke:none" d="m 4287.26,1272.96 c -29.44,-34.87 -130.66,-57.66 -245.56,-56.18 -2.17,46.63 -13.58,93.5 -28.64,136.46 40.04,-7.13 82.71,-9.56 124.38,-11.9 73.61,-4.13 149.73,-8.4 156.91,-42.32 2.06,-9.77 -0.12,-17.81 -7.09,-26.06 z m -119.09,-251.63 c 18.22,-27.682 19.31,-65.908 3.32,-116.881 C 4138.86,800.41 4095.67,752 4066.12,741.402 c -10.18,-3.672 -18.56,-3.004 -26.37,2.09 -17.05,11.078 -11.44,89.75 11.77,165.039 2.31,7.5 0.8,15.668 -4.04,21.86 -4.84,6.187 -12.37,9.648 -20.25,9.191 -1.11,-0.051 -89.36,-4.461 -166.1,19.816 75.18,26.813 127.47,69.352 155.97,127.082 79.45,-10.18 128.96,-31.55 151.07,-65.15 z m 173.16,287.63 c -14.78,69.88 -105.33,74.96 -201.2,80.34 -51.19,2.87 -103.97,5.85 -148.45,17.76 -32.22,72.73 -68.57,125.22 -71.83,129.87 l -39.33,-27.58 c 1.62,-2.3 160.97,-232.31 99.55,-388.16 -26.24,-66.59 -91.24,-111.28 -193.19,-132.831 -8.54,-1.8 -15.43,-8.097 -17.99,-16.449 -0.36,-1.16 -36.43,-118.039 -86.98,-229.949 -88.54,-196.02 -140.48,-201.801 -154.34,-198.969 -4.26,0.887 -9.82,3.117 -14.99,12.528 -13.71,24.929 -26.83,102.511 39.29,342 38.25,138.53 85.64,268.04 98.5,302.5 19.67,19.52 37.09,40.27 51.36,62.19 7.24,11.11 4.1,25.99 -7.02,33.23 -11.11,7.23 -25.98,4.09 -33.23,-7.03 -52.11,-80.04 -190.44,-183.58 -371.01,-221.75 -65.24,-13.79 -115.22,11.33 -120.96,34.68 -4.79,19.47 24.4,48.69 100.57,70.11 147.91,42.52 228.09,134.81 269.3,204.75 44.66,75.78 54.24,141.41 54.63,144.16 1.83,13.13 -7.32,25.27 -20.46,27.11 -13.11,1.81 -25.27,-7.32 -27.11,-20.45 -0.33,-2.36 -35.93,-236.47 -289.49,-309.37 -139.72,-39.29 -140.31,-102.45 -134.08,-127.79 11.13,-45.23 67.19,-74.95 132.25,-74.95 14.78,0 30.01,1.53 45.29,4.76 86.01,18.18 191.07,60.17 277.37,120.37 -6.77,-19.46 -14.3,-41.58 -22.2,-65.54 -52.97,1.85 -99.19,-13.3 -132.25,-43.99 -38.25,-35.49 -55.96,-87.74 -51.21,-151.1 4.67,-62.39 -16.76,-113.969 -57.32,-137.969 -38.32,-22.671 -87.18,-18.179 -134.04,12.329 -11.11,7.23 -25.99,4.089 -33.22,-7.028 -7.24,-11.113 -4.09,-25.992 7.02,-33.23 34.86,-22.692 72,-34.18 107.43,-34.18 27.41,0 53.79,6.879 77.27,20.77 56.63,33.507 86.82,101.89 80.75,182.898 -3.62,48.27 8.83,87.102 35.99,112.309 20.82,19.321 49.93,29.961 84.1,31.221 -11.58,-36.639 -23.43,-76.038 -34.52,-116.229 -54.63,-197.871 -66.11,-321.492 -35.09,-377.922 10.78,-19.609 27.12,-32.199 47.27,-36.399 5.03,-1.05 10.07,-1.582 15.13,-1.582 60.49,0.012 123.81,74.954 192.96,228.161 37.13,82.25 65.99,165.043 79.9,207.07 65.57,-31.438 146.84,-37.617 191.36,-38.399 -3.82,-15.621 -8.14,-35.621 -11.21,-56.601 -10.19,-69.68 -1.15,-112.668 27.64,-131.399 12.34,-8.031 26.22,-12.109 40.64,-12.109 9.26,0 18.74,1.68 28.18,5.07 53.1,19.071 102.3,89.739 134.96,193.891 20.29,64.68 17.25,117.718 -9.03,157.658 -29.43,44.73 -85.26,71.95 -174.28,84.85 2.99,11.91 5.08,24.01 6.38,36.24 3.48,-0.04 6.92,-0.1 10.45,-0.1 104.06,0 227.08,18.72 273.12,73.25 16.5,19.54 22.51,42.7 17.37,66.98"/>
                <path id="path38" style="fill:#777677;fill-opacity:1;fill-rule:nonzero;stroke:none" d="m 3277.91,1990.24 c 0,0 -333.37,-110.85 -255.14,-296.79 77.3,-183.75 389.36,305.68 389.36,305.68 l -134.22,-8.89"/>
                <path id="path40" style="fill:#605c5d;fill-opacity:1;fill-rule:nonzero;stroke:none" d="m 3074.7,1628.17 c -2.22,0 -4.41,0.09 -6.57,0.27 -20.85,1.77 -49.48,12.87 -67.49,55.69 -18.78,44.64 -18.42,89.07 1.08,132.06 56.77,125.18 259.99,193.97 268.61,196.84 12.6,4.18 26.19,-2.63 30.36,-15.21 4.19,-12.59 -2.62,-26.18 -15.21,-30.37 -2.5,-0.84 -192.07,-65.25 -240.04,-171.15 -13.92,-30.72 -14.09,-61.32 -0.54,-93.54 10.54,-25.04 22.71,-26.07 27.29,-26.46 69.09,-5.85 228.56,192.8 319.69,335.74 7.13,11.18 21.97,14.47 33.17,7.34 11.18,-7.13 14.46,-21.98 7.33,-33.16 -2.35,-3.69 -58.37,-91.28 -129.56,-179.23 -97.31,-120.2 -172.05,-178.82 -228.12,-178.82"/>
                <path id="path42" style="fill:#b1b9c6;fill-opacity:1;fill-rule:nonzero;stroke:none" d="m 4152.87,2423.99 c -73.42,47.79 -243.19,-103.26 -316.93,-174.67 -43.56,-1.9 -98.46,-10.5 -160.57,-23.92 -62.24,-12.87 -115.93,-27.22 -156.54,-43.11 -96.37,35.5 -312.71,104.87 -360.48,31.49 -47.44,-72.86 56.15,-223.49 106.97,-289.62 -26.82,-79.27 -25.74,-159.65 -11.7,-226.09 12.15,-57.46 31.12,-113.39 57.01,-167.87 50.55,-106.32 157.27,-173.6 274.98,-172.61 90.89,0.8 179.92,10.41 267.09,28.84 87.16,18.42 172.47,45.66 255.91,81.7 108.04,46.73 178.41,151.44 181.61,269.12 1.64,60.29 -3.65,119.12 -15.79,176.58 -14.04,66.43 -45.57,140.35 -102.15,201.98 19.65,80.94 53.48,260.72 -19.41,308.18"/>
                <path id="path44" style="fill:#91a2b5;fill-opacity:1;fill-rule:nonzero;stroke:none" d="m 3745.75,2197.43 c 20.1,-95.1 8.72,-177.99 -25.29,-185.18 -34.08,-7.2 -78.04,63.99 -98.14,159.09 -2.75,13.04 -4.92,25.82 -6.47,38.19 39.74,10.31 79.86,18.79 120.39,25.38 3.59,-11.95 6.77,-24.51 9.51,-37.48"/>
                <path id="path46" style="fill:#91a2b5;fill-opacity:1;fill-rule:nonzero;stroke:none" d="m 3606.62,2200.66 c 20.08,-95.03 8.78,-177.98 -25.3,-185.18 -32.77,-6.93 -74.87,59.1 -95.85,149 20.02,10.01 41.11,18.58 63.06,25.58 18.82,5.95 37.73,11.55 56.74,16.63 0.5,-2.02 0.92,-3.99 1.35,-6.03"/>
                <path id="path48" style="fill:#91a2b5;fill-opacity:1;fill-rule:nonzero;stroke:none" d="m 3873.51,2247.33 c 17.41,-91.03 5.72,-168.89 -27.19,-175.84 -34.08,-7.21 -77.98,64.08 -98.07,159.11 -0.43,2.04 -0.84,4 -1.2,6.06 22.31,3.5 44.83,6.36 67.39,8.69 19.87,2.07 39.6,2.66 59.07,1.98"/>
                <path id="path50" style="fill:#ffffff;fill-opacity:1;fill-rule:nonzero;stroke:none" d="m 4112.79,2262.68 c 0,0 14.54,-20.2 21.42,-44.84 6.41,-22.76 -3.77,-43.32 -20.42,-54.53 -47.42,35.4 -102.12,60.96 -160.65,74.38 -2.13,12.63 0.51,26.05 8.75,37.45 33.06,45.86 81.16,97.95 124.66,90.1 75.78,-13.73 26.24,-102.56 26.24,-102.56"/>
                <path id="path52" style="fill:#ffffff;fill-opacity:1;fill-rule:nonzero;stroke:none" d="m 3260.22,2082.48 c 0,0 -5.12,-24.36 -1.44,-49.68 3.35,-23.4 20.98,-38.08 40.74,-41.59 29.04,51.55 68.72,97.06 116.81,133.02 -3.16,12.41 -11,23.61 -23.15,30.71 -48.79,28.56 -113.86,56.72 -150.46,31.94 -63.74,-43.21 17.5,-104.4 17.5,-104.4"/>
                <path id="path54" style="fill:#678490;fill-opacity:1;fill-rule:nonzero;stroke:none" d="m 4297.92,1918.8 c -10.52,49.8 -36.48,130.96 -99.42,203.78 49.94,215.14 10.19,293.71 -32.56,321.55 -79.36,51.65 -227.45,-63.03 -340.23,-171.34 -41.63,-2.59 -93.59,-10.57 -155.2,-23.88 -89.24,-18.44 -155.46,-38.84 -196.83,-60.64 -25.6,-13.51 -49.69,-28.48 -71.59,-44.48 -10.7,-7.83 -13.04,-22.85 -5.22,-33.56 4.71,-6.43 12.01,-9.85 19.41,-9.85 4.92,0 9.88,1.51 14.15,4.63 20.02,14.63 42.12,28.35 65.65,40.77 37.37,19.69 99.33,38.57 184.36,56.14 84.65,18.3 148.94,26.13 191.08,23.22 26.55,-1.83 52.3,-5.44 76.56,-10.72 12.99,-2.82 25.75,5.4 28.57,18.36 2.82,12.96 -5.4,25.75 -18.36,28.57 -20.4,4.44 -41.75,7.77 -63.65,10 115.55,104.3 209.4,155.76 245.09,132.53 37.35,-24.32 43.83,-114.92 18.45,-240.7 -13.76,12.05 -28.78,23.6 -45.23,34.43 -11.07,7.29 -25.97,4.23 -33.26,-6.85 -7.3,-11.08 -4.23,-25.98 6.85,-33.27 113.04,-74.41 151.52,-187.71 164.39,-248.63 11.72,-55.42 16.86,-112.93 15.29,-170.95 -2.93,-107.85 -68.54,-205.09 -167.14,-247.73 -81.58,-35.25 -166.15,-62.25 -251.35,-80.26 -85.19,-18.01 -173.45,-27.53 -262.32,-28.32 -0.78,0 -1.53,0 -2.3,0 -106.54,0 -204.8,62.18 -250.79,158.91 -24.91,52.43 -43.49,107.11 -55.2,162.52 -12.87,60.92 -23.54,180.1 49.72,293.89 7.18,11.15 3.96,26.01 -7.19,33.19 -11.15,7.19 -26.01,3.96 -33.19,-7.19 -82.57,-128.24 -70.73,-261.69 -56.33,-329.82 12.49,-59.1 32.28,-117.38 58.81,-173.21 53.93,-113.43 169.17,-186.33 294.18,-186.32 0.9,0 1.8,0 2.7,0 92.07,0.82 183.53,10.69 271.84,29.36 88.32,18.67 175.96,46.65 260.48,83.16 115.68,50.02 192.65,164.06 196.09,290.51 1.67,61.79 -3.81,123.09 -16.31,182.2"/>
                <path id="path56" style="fill:#605c5d;fill-opacity:1;fill-rule:nonzero;stroke:none" d="m 3990.37,1782.4 c -11.11,0 -21.08,7.75 -23.47,19.06 -4.56,21.57 -0.44,43.62 11.58,62.1 12.03,18.47 30.53,31.16 52.11,35.72 21.55,4.57 43.61,0.45 62.09,-11.58 18.48,-12.03 31.16,-30.53 35.72,-52.11 2.74,-12.97 -5.55,-25.71 -18.53,-28.45 -12.96,-2.75 -25.71,5.55 -28.46,18.53 -1.9,9.01 -7.21,16.75 -14.93,21.78 -7.73,5.02 -16.94,6.74 -25.96,4.84 -9.02,-1.91 -16.76,-7.21 -21.78,-14.94 -5.04,-7.72 -6.75,-16.94 -4.85,-25.96 2.75,-12.97 -5.55,-25.72 -18.52,-28.46 -1.68,-0.36 -3.35,-0.53 -5,-0.53"/>
                <path id="path58" style="fill:#605c5d;fill-opacity:1;fill-rule:nonzero;stroke:none" d="m 3557.75,1690.97 c -11.11,0 -21.08,7.74 -23.47,19.05 -9.41,44.52 19.15,88.4 63.68,97.82 21.57,4.56 43.62,0.44 62.1,-11.58 18.48,-12.03 31.16,-30.54 35.72,-52.11 2.74,-12.97 -5.55,-25.71 -18.53,-28.46 -12.96,-2.74 -25.72,5.56 -28.46,18.54 -3.93,18.61 -22.3,30.54 -40.9,26.62 -18.61,-3.94 -30.56,-22.28 -26.62,-40.9 2.75,-12.97 -5.55,-25.72 -18.53,-28.46 -1.67,-0.35 -3.34,-0.52 -4.99,-0.52"/>
                <path id="path60" style="fill:#91a2b5;fill-opacity:1;fill-rule:nonzero;stroke:none" d="m 4119.58,1727.38 c -9.08,0 -17.24,6.34 -19.2,15.59 -2.24,10.61 4.55,21.04 15.16,23.28 l 90.47,19.13 c 10.6,2.25 21.04,-4.54 23.29,-15.16 2.24,-10.62 -4.54,-21.05 -15.16,-23.29 l -90.47,-19.12 c -1.37,-0.29 -2.74,-0.43 -4.09,-0.43"/>
                <path id="path62" style="fill:#91a2b5;fill-opacity:1;fill-rule:nonzero;stroke:none" d="m 4211.62,1658.04 c -0.96,0 -1.92,0.07 -2.9,0.21 l -79.81,11.77 c -10.74,1.59 -18.16,11.57 -16.57,22.31 1.58,10.73 11.58,18.11 22.3,16.57 l 79.81,-11.77 c 10.74,-1.58 18.16,-11.57 16.58,-22.3 -1.44,-9.77 -9.83,-16.79 -19.41,-16.79"/>
                <path id="path64" style="fill:#91a2b5;fill-opacity:1;fill-rule:nonzero;stroke:none" d="m 3487.67,1593.82 c -9.09,0 -17.25,6.34 -19.2,15.59 -2.25,10.61 4.54,21.04 15.16,23.28 l 90.47,19.13 c 10.59,2.25 21.04,-4.54 23.28,-15.16 2.25,-10.62 -4.54,-21.05 -15.15,-23.29 l -90.47,-19.12 c -1.37,-0.29 -2.74,-0.43 -4.09,-0.43"/>
                <path id="path66" style="fill:#91a2b5;fill-opacity:1;fill-rule:nonzero;stroke:none" d="m 3522.12,1512.31 c -6.52,0 -12.89,3.24 -16.63,9.16 -5.79,9.18 -3.05,21.31 6.13,27.1 l 68.23,43.07 c 9.16,5.79 21.3,3.05 27.1,-6.14 5.79,-9.17 3.05,-21.3 -6.13,-27.1 l -68.23,-43.06 c -3.26,-2.05 -6.88,-3.03 -10.47,-3.03"/>
                <path id="path68" style="fill:#ffffff;fill-opacity:1;fill-rule:nonzero;stroke:none" d="m 3936.77,1904.64 c -11.11,0 -21.09,7.75 -23.47,19.05 -2.75,12.98 5.55,25.72 18.52,28.46 l 47.46,10.04 c 12.99,2.74 25.72,-5.55 28.46,-18.53 2.75,-12.97 -5.55,-25.72 -18.52,-28.46 l -47.46,-10.03 c -1.68,-0.36 -3.35,-0.53 -4.99,-0.53"/>
                <path id="path70" style="fill:#ffffff;fill-opacity:1;fill-rule:nonzero;stroke:none" d="m 3624.36,1838.61 c -11.11,0 -21.08,7.75 -23.47,19.06 -2.74,12.97 5.55,25.71 18.53,28.46 l 47.46,10.03 c 12.96,2.74 25.72,-5.56 28.46,-18.54 2.74,-12.97 -5.55,-25.71 -18.53,-28.45 l -47.46,-10.03 c -1.67,-0.36 -3.35,-0.53 -4.99,-0.53"/>
                <path id="path72" style="fill:#c1a8e0;fill-opacity:1;fill-rule:nonzero;stroke:none" d="m 3250.36,1817.18 c 0,0 269.84,136.73 553.08,436.11 0,0 -122.47,136.83 -248.25,161.62 0,0 -162.63,-2.46 -266.37,-86.02 0,0 -154.26,-98.87 -167.04,-256.56 0,0 22.3,-132.48 128.58,-255.15"/>
                <path id="path74" style="fill:#aa8cdc;fill-opacity:1;fill-rule:nonzero;stroke:none" d="m 3146,2073.56 c 3.73,-18.26 28.1,-124.04 110.21,-225.93 61.37,34.13 282.58,165.57 513.98,405.61 -35.34,35.33 -126.33,118.47 -217.05,137.58 -20.08,-0.77 -159.97,-8.72 -249.26,-80.63 -0.67,-0.54 -1.38,-1.05 -2.11,-1.52 -1.4,-0.9 -142.31,-93.3 -155.77,-235.11 z m 104.37,-280.39 c -6.8,0 -13.48,2.88 -18.16,8.29 -109.44,126.3 -133.15,261.2 -134.11,266.88 -0.33,1.96 -0.41,3.95 -0.25,5.93 13.13,162.11 161.07,263.7 176.86,274.1 108.94,86.98 273.16,90.45 280.12,90.55 1.67,0.08 3.36,-0.12 5.01,-0.45 132.14,-26.04 256.27,-163.33 261.49,-169.16 8.34,-9.31 8.14,-23.45 -0.44,-32.52 -282.86,-298.97 -548.51,-435.37 -559.68,-441.03 -3.45,-1.75 -7.16,-2.59 -10.84,-2.59"/>
                <path id="path76" style="fill:#b1b9c6;fill-opacity:1;fill-rule:nonzero;stroke:none" d="m 3492.16,2081.48 174.94,143.08 c 0,0 -76.52,109.73 -168.61,48.1 -92.1,-61.63 -6.33,-191.18 -6.33,-191.18"/>
                <path id="path78" style="fill:#aa8cdc;fill-opacity:1;fill-rule:nonzero;stroke:none" d="m 3556.19,2267.06 c -14.01,0 -28.95,-4.06 -44.35,-14.36 -29.07,-19.46 -38.22,-49.54 -27.99,-91.97 3.87,-16 9.91,-30.85 15.43,-42.4 l 133.82,109.45 c -15.93,16.58 -43.79,39.28 -76.91,39.28 z m -64.03,-209.59 c -1.2,0 -2.4,0.09 -3.6,0.27 -6.71,1.02 -12.68,4.82 -16.43,10.49 -34.22,51.69 -75.55,165.12 13,224.39 88.32,59.11 170.54,-9.69 201.67,-54.32 7.17,-10.3 5.22,-24.38 -4.5,-32.33 l -174.94,-143.08 c -4.32,-3.53 -9.7,-5.42 -15.2,-5.42"/>
                <path id="path80" style="fill:#678490;fill-opacity:1;fill-rule:nonzero;stroke:none" d="m 3932.42,1759.92 c 23.39,5.16 45.03,-14.36 42.03,-38.12 -2.12,-16.7 -7.28,-32.69 -15.04,-47.23 -18.25,-34.19 -50.79,-60.49 -91.63,-69.5 -40.84,-9.01 -81.43,1.15 -112.48,24.47 -13.15,9.92 -24.56,22.25 -33.51,36.52 -12.73,20.29 -1.3,47.1 22.09,52.26 l 188.54,41.6"/>
                <path id="path82" style="fill:#fd80a6;fill-opacity:1;fill-rule:nonzero;stroke:none" d="m 3922.81,1619.14 c -31.29,-22.87 -72.02,-32.42 -112.72,-22.8 -40.71,9.62 -72.85,36.4 -90.69,70.89 31.32,22.98 72.07,32.64 112.89,22.99 40.7,-9.62 72.82,-36.51 90.52,-71.08"/>
                <path id="path84" style="fill:#678490;fill-opacity:1;fill-rule:nonzero;stroke:none" d="m 3950.58,1724.87 c -6,-47.37 -41.37,-86.11 -88.02,-96.4 -46.65,-10.3 -95.04,9.97 -120.41,50.42 -2.46,3.92 -1.51,7.65 -0.73,9.51 0.66,1.58 2.73,5.36 7.7,6.46 l 188.42,41.56 v 0 c 0.85,0.19 1.65,0.27 2.4,0.27 3.68,0 6.24,-1.92 7.29,-2.87 1.5,-1.37 3.93,-4.35 3.35,-8.95 z m 29.03,44.42 c -14.15,12.91 -33.76,18.15 -52.42,14.04 l -65.73,-14.51 -4.33,12.73 c 12.37,3.2 20.16,15.57 17.49,28.19 -2.74,12.98 -15.49,21.27 -28.46,18.53 l -50.81,-10.74 c -12.98,-2.74 -21.28,-15.49 -18.53,-28.46 2.39,-11.3 12.36,-19.06 23.47,-19.06 1.64,0 3.31,0.17 4.99,0.53 l 4.55,0.96 4.44,-13.08 -75.5,-16.66 c -18.68,-4.12 -34.25,-17.13 -41.65,-34.8 -7.34,-17.52 -5.71,-37.56 4.34,-53.59 29.86,-47.61 82.1,-75.58 136.84,-75.58 11.48,0 23.09,1.23 34.61,3.78 66.42,14.65 116.78,69.82 125.31,137.26 2.39,18.79 -4.57,37.65 -18.61,50.46"/>
              </g>
            </g>
          </g>
        </g>
      </g>
    </g>
  </g>
</svg>