<?xml version="1.0" encoding="utf-8"?>
<svg xmlns="http://www.w3.org/2000/svg" viewBox="0 0.73 277.626 296.622">
  <g id="svg2" transform="matrix(1, 0, 0, 1, -1.157371, 2.352781)">
    <g transform="matrix(1.333333, 0, 0, -1.333333, -221.513184, 488.83905)" id="g10">
      <g transform="scale(0.1)" id="g12">
        <g transform="matrix(1, 0, 0, 1, -972.904724, -1079.68457)">
          <path id="path212" style="fill:#93f6f8;fill-opacity:1;fill-rule:nonzero;stroke:none" d="m 4077.52,4492.54 c 20.46,0 39.95,-4.02 57.89,-11.11 35.02,49.89 92.87,82.58 158.45,82.58 83.57,0 154.56,-53.06 181.66,-127.26 15.9,6.59 33.32,10.26 51.6,10.26 74.59,0 135.06,-60.47 135.06,-135.07 0,-74.6 -60.47,-135.06 -135.06,-135.06 -42.07,0 -410.64,0 -449.6,0 -87.17,0 -157.83,70.66 -157.83,157.83 0,87.17 70.66,157.83 157.83,157.83"/>
          <path id="path214" style="fill:#b1b9c6;fill-opacity:1;fill-rule:nonzero;stroke:none" d="m 4170.39,4714.48 c -79.32,56.91 -275.93,-102.68 -361.62,-178.47 -48.59,0.09 -110.14,-6.72 -179.96,-18.53 -69.93,-11.18 -130.42,-24.44 -176.43,-40.09 -105.49,44.39 -342.83,132.51 -399.7,53.24 -56.49,-78.72 51.23,-251.63 104.47,-327.8 -33.85,-86.9 -36.71,-176.43 -24.43,-251.1 10.63,-64.58 28.93,-127.8 55,-189.75 50.91,-120.9 166.32,-201.19 297.4,-206.02 101.23,-3.7 200.82,2.51 298.78,18.63 97.97,16.11 194.3,42.13 289.01,78.05 122.63,46.56 206.25,159.58 215.75,290.42 4.86,67.04 1.94,132.8 -8.68,197.37 -12.28,74.66 -43.65,158.54 -103.52,230 25.95,89.12 72.68,287.54 -6.07,344.05"/>
          <path id="path216" style="fill:#91a2b5;fill-opacity:1;fill-rule:nonzero;stroke:none" d="m 3705.76,4482.8 c 17.58,-106.88 0.72,-198.58 -37.5,-204.87 -38.3,-6.3 -83.64,75.18 -101.22,182.06 -2.41,14.65 -4.18,28.98 -5.29,42.84 44.76,9.46 89.86,16.88 135.3,22.17 3.4,-13.48 6.31,-27.62 8.71,-42.2"/>
          <path id="path218" style="fill:#91a2b5;fill-opacity:1;fill-rule:nonzero;stroke:none" d="m 3551.03,4493.41 c 17.57,-106.8 0.8,-198.57 -37.5,-204.87 -36.83,-6.06 -80.37,69.58 -99.19,170.71 22.8,10.14 46.7,18.61 71.49,25.29 21.26,5.68 42.58,10.96 64,15.66 0.46,-2.28 0.82,-4.49 1.2,-6.79"/>
          <path id="path220" style="fill:#91a2b5;fill-opacity:1;fill-rule:nonzero;stroke:none" d="m 3850.49,4531.91 c 14.8,-102.21 -2.14,-188.3 -39.14,-194.38 -38.3,-6.3 -83.57,75.26 -101.14,182.07 -0.38,2.29 -0.74,4.5 -1.03,6.81 25.01,2.77 50.23,4.81 75.46,6.27 22.22,1.3 44.22,0.97 65.85,-0.77"/>
          <path id="path222" style="fill:#ffffff;fill-opacity:1;fill-rule:nonzero;stroke:none" d="m 4117.64,4536.93 c 0,0 15.17,-23.23 21.58,-51 5.99,-25.66 -6.38,-48.04 -25.49,-59.67 -51,41.79 -110.6,73.01 -175.07,90.9 -1.75,14.17 1.87,28.97 11.62,41.25 39.12,49.38 95.29,104.94 143.32,94.01 83.67,-19.1 24.04,-115.49 24.04,-115.49"/>
          <path id="path224" style="fill:#ffffff;fill-opacity:1;fill-rule:nonzero;stroke:none" d="m 3159.46,4379.33 c 0,0 -6.93,-26.87 -4.11,-55.23 2.55,-26.23 21.43,-43.46 43.25,-48.36 34.94,55.92 81.4,104.58 136.75,142.19 -2.89,13.98 -11.06,26.84 -24.23,35.35 -52.87,34.25 -123.88,68.89 -165.88,43.15 -73.14,-44.89 14.22,-117.1 14.22,-117.1"/>
          <path id="path226" style="fill:#678490;fill-opacity:1;fill-rule:nonzero;stroke:none" d="m 4264.96,3944.79 c -8.79,-121.08 -87.48,-227.03 -200.47,-269.94 -92.79,-35.19 -188.48,-61.03 -284.44,-76.82 -95.97,-15.78 -194.91,-21.96 -294.05,-18.33 -120.79,4.45 -229.28,79.62 -276.38,191.5 -25.19,59.82 -43.17,121.86 -53.45,184.38 -11.34,68.92 -17.23,203.03 70.69,326.88 7.59,10.69 5.07,25.52 -5.62,33.12 -10.71,7.59 -25.54,5.08 -33.13,-5.62 -13.71,-19.31 -25.3,-38.83 -35.18,-58.33 -80.04,123.42 -111.05,223.27 -80.98,265.17 28.77,40.1 151.15,24.09 318.05,-39.94 -23.96,-11.94 -46.78,-24.96 -67.86,-38.94 -10.93,-7.26 -13.91,-22 -6.66,-32.93 4.57,-6.9 12.12,-10.63 19.82,-10.63 4.51,0 9.07,1.28 13.11,3.96 23.17,15.37 48.58,29.6 75.53,42.3 42.85,20.15 113.05,38.13 208.84,53.44 95.43,16.14 167.69,21.58 214.72,16.24 29.61,-3.41 58.24,-8.75 85.11,-15.89 12.68,-3.37 25.7,4.18 29.06,16.86 3.37,12.69 -4.17,25.7 -16.86,29.07 -24.46,6.5 -50.27,11.52 -76.82,15.16 137.54,114.16 248.34,168.52 288.51,139.69 41.83,-30.01 44.46,-134.52 8.27,-277.12 -15.6,15.31 -32.83,30.08 -52,43.98 -10.62,7.71 -25.47,5.34 -33.18,-5.29 -7.7,-10.62 -5.33,-25.47 5.29,-33.17 122.95,-89.17 160.32,-218.1 171.66,-287.02 10.28,-62.52 13.12,-127.04 8.42,-191.78 z m 38.46,199.5 c -9.19,55.9 -34.03,147.61 -100.72,231.67 13.41,47.86 28.9,113.89 33.62,176.99 6.77,90.33 -10.76,151.18 -52.12,180.85 -84.31,60.5 -254.2,-59.75 -384.49,-174.12 -46.49,-0.7 -104.94,-6.95 -174.65,-18.74 -69.99,-11.19 -127.43,-24 -171.71,-38.25 -57.11,23.72 -137.98,54.03 -213.96,70.9 -107.47,23.87 -174.88,14.35 -206.05,-29.09 -61.18,-85.28 31.13,-248.41 97.16,-344.89 -36.25,-100.99 -30.41,-195.83 -21.22,-251.74 10.89,-66.2 29.91,-131.84 56.55,-195.11 54.25,-128.85 179.23,-215.41 318.43,-220.54 18.94,-0.69 37.86,-1.04 56.78,-1.04 83.23,0 165.99,6.69 246.72,19.97 99.07,16.29 197.84,42.97 293.58,79.28 130.22,49.44 220.89,171.48 231.01,310.92 4.97,68.46 1.96,136.74 -8.93,202.94"/>
          <path id="path228" style="fill:#605c5d;fill-opacity:1;fill-rule:nonzero;stroke:none" d="m 4022.19,4045.69 c -5.85,35.54 -39.39,59.61 -74.93,53.76 -35.54,-5.84 -59.61,-39.39 -53.77,-74.93 5.85,-35.54 39.4,-59.61 74.94,-53.77 35.53,5.85 59.61,39.4 53.76,74.94"/>
          <path id="path230" style="fill:#605c5d;fill-opacity:1;fill-rule:nonzero;stroke:none" d="m 3535.98,3965.71 c -5.85,35.54 -39.4,59.61 -74.93,53.77 -35.54,-5.85 -59.61,-39.4 -53.77,-74.93 5.85,-35.54 39.39,-59.61 74.93,-53.77 35.54,5.85 59.61,39.4 53.77,74.93"/>
          <path id="path232" style="fill:#91a2b5;fill-opacity:1;fill-rule:nonzero;stroke:none" d="m 4034.31,3932.44 c -9.34,0 -17.59,6.77 -19.15,16.29 -1.75,10.59 5.43,20.59 16.02,22.34 l 101.68,16.72 c 10.6,1.77 20.59,-5.43 22.33,-16.03 1.74,-10.59 -5.43,-20.59 -16.02,-22.33 l -101.68,-16.72 c -1.07,-0.18 -2.13,-0.27 -3.18,-0.27"/>
          <path id="path234" style="fill:#91a2b5;fill-opacity:1;fill-rule:nonzero;stroke:none" d="m 3324.12,3815.63 c -9.35,0 -17.59,6.76 -19.15,16.28 -1.75,10.6 5.43,20.6 16.02,22.34 l 101.67,16.73 c 10.59,1.74 20.6,-5.43 22.34,-16.03 1.74,-10.59 -5.43,-20.59 -16.03,-22.33 l -101.67,-16.73 c -1.07,-0.18 -2.13,-0.26 -3.18,-0.26"/>
          <path id="path236" style="fill:#91a2b5;fill-opacity:1;fill-rule:nonzero;stroke:none" d="m 3358.36,3723.16 c -6.76,0 -13.33,3.53 -16.91,9.82 -5.31,9.33 -2.06,21.2 7.27,26.51 l 78.12,44.49 c 9.34,5.32 21.2,2.06 26.51,-7.27 5.32,-9.33 2.06,-21.2 -7.27,-26.51 l -78.12,-44.49 c -3.03,-1.73 -6.34,-2.55 -9.6,-2.55"/>
          <path id="path238" style="fill:#ffffff;fill-opacity:1;fill-rule:nonzero;stroke:none" d="m 3839.95,4139.54 c -11.42,0 -21.5,8.26 -23.41,19.91 -2.13,12.94 6.64,25.16 19.59,27.29 l 53.34,8.77 c 12.94,2.12 25.16,-6.64 27.29,-19.58 2.13,-12.95 -6.64,-25.18 -19.59,-27.3 l -53.34,-8.77 c -1.3,-0.22 -2.6,-0.32 -3.88,-0.32"/>
          <path id="path240" style="fill:#ffffff;fill-opacity:1;fill-rule:nonzero;stroke:none" d="m 3488.85,4081.79 c -11.42,0 -21.5,8.26 -23.41,19.9 -2.13,12.95 6.64,25.17 19.58,27.3 l 53.34,8.77 c 12.95,2.13 25.17,-6.63 27.3,-19.58 2.13,-12.95 -6.64,-25.17 -19.59,-27.3 l -53.33,-8.77 c -1.31,-0.22 -2.61,-0.32 -3.89,-0.32"/>
          <path id="path242" style="fill:#678490;fill-opacity:1;fill-rule:nonzero;stroke:none" d="m 3826.87,4023.14 c -13.04,1.07 -24.56,-8.62 -25.64,-21.7 -1.21,-14.51 -12.11,-26.29 -26.51,-28.66 -8.38,-1.38 -16.8,0.59 -23.71,5.54 -6.9,4.95 -11.46,12.28 -12.83,20.65 -0.37,2.24 -1.06,4.35 -1.98,6.3 l 6.03,0.99 c 12.95,2.13 21.72,14.35 19.59,27.3 -2.13,12.95 -14.35,21.7 -27.3,19.58 l -57.11,-9.39 c -12.95,-2.13 -21.72,-14.35 -19.59,-27.3 1.92,-11.64 11.99,-19.9 23.41,-19.9 1.29,0 2.58,0.1 3.89,0.32 l 6.1,1 c -0.11,-0.9 -0.25,-1.81 -0.25,-2.73 0.01,-1.28 0.11,-2.58 0.32,-3.88 2.85,-17.29 -8.91,-33.67 -26.19,-36.51 -14.42,-2.37 -28.53,5.29 -34.32,18.65 -5.22,12.03 -19.2,17.58 -31.25,12.35 -12.04,-5.22 -17.56,-19.21 -12.35,-31.25 12.72,-29.33 41.46,-47.7 72.65,-47.7 4.29,0 8.63,0.35 12.98,1.06 21.31,3.51 39.24,15.25 51.09,31.44 17.1,-12.04 37.86,-16.81 58.53,-13.4 35.94,5.91 63.13,35.35 66.15,71.6 1.08,13.07 -8.63,24.55 -21.71,25.64"/>
          <path id="path244" style="fill:#6ee3ce;fill-opacity:1;fill-rule:nonzero;stroke:none" d="m 4680.42,3550.29 c -66.29,152.18 -264.71,98.92 -264.71,98.92 -43.02,104.7 -130.97,196.96 -301.97,224.01 -214.68,33.99 -440.8,-97.72 -620.03,-246.67 -283.14,39.89 -463.87,-28.06 -489.79,-75.54 -23.64,-43.32 111.37,-130.7 219.35,-191.81 -46.69,-53.94 -73.43,-89.52 -73.43,-89.52 L 2972.6,3409.3 c -33.98,26.77 -79.03,34.93 -120.25,21.79 l -141.55,-45.12 c -37.16,-11.84 -51.79,-56.57 -28.8,-88.08 40.24,-55.16 103.01,-137.56 171.41,-213.84 -22.07,-41.41 -49.35,-99.97 -32.56,-109.13 13.03,-7.11 54.58,-0.76 107.78,30.75 49.34,-47.43 98.47,-85.93 141.54,-103.93 82.04,-34.28 187.09,-48.06 302.73,-45.78 -58.01,-110.04 -125.44,-258.33 -81.85,-282.12 60.29,-32.91 348.3,41.49 631.79,385.94 35.9,12.18 71.09,25.2 105.22,38.96 274.4,110.67 741.46,346.99 652.36,551.55"/>
          <path id="path246" style="fill:#93f6f8;fill-opacity:1;fill-rule:nonzero;stroke:none" d="m 4415.7,3649.21 c -127.6,-37.5 -314.87,-162.6 -347.2,-16.61 -25.52,114.95 110.73,164.72 220.84,175.02 l 126.36,-158.41"/>
          <path id="path248" style="fill:#93f6f8;fill-opacity:1;fill-rule:nonzero;stroke:none" d="m 3717.99,3436.31 c 20.6,-70.1 -15.91,-142.56 -81.55,-161.85 -65.64,-19.28 -135.56,21.91 -156.15,92 -20.6,70.1 15.91,142.56 81.56,161.85 65.64,19.29 135.55,-21.9 156.14,-92"/>
          <path id="path250" style="fill:#00d4d7;fill-opacity:1;fill-rule:nonzero;stroke:none" d="m 3594.71,3509.29 c -8.7,0 -17.48,-1.22 -26.17,-3.77 -52.96,-15.57 -82.33,-74.95 -65.46,-132.36 8.26,-28.09 26.17,-51.45 50.45,-65.75 23.77,-14 50.84,-17.61 76.21,-10.15 25.37,7.46 46.18,25.13 58.6,49.76 12.68,25.17 15.12,54.5 6.86,82.59 -14.1,48 -56.14,79.68 -100.49,79.68 z m 8.61,-263.37 c -25.46,0 -50.8,6.94 -73.91,20.56 -34.71,20.44 -60.25,53.58 -71.92,93.28 -24.25,82.56 19.55,168.39 97.66,191.35 78.1,22.92 161.38,-25.55 185.64,-108.1 11.66,-39.71 8.11,-81.39 -10.02,-117.37 -18.39,-36.5 -49.52,-62.77 -87.64,-73.97 -13.1,-3.85 -26.47,-5.75 -39.81,-5.75"/>
          <path id="path252" style="fill:#93f6f8;fill-opacity:1;fill-rule:nonzero;stroke:none" d="m 3462.93,3241.44 c 20.6,-70.1 -15.92,-142.56 -81.56,-161.85 -65.64,-19.29 -135.55,21.9 -156.15,92 -20.6,70.1 15.92,142.56 81.56,161.85 65.64,19.29 135.55,-21.9 156.15,-92"/>
          <path id="path254" style="fill:#00d4d7;fill-opacity:1;fill-rule:nonzero;stroke:none" d="m 3339.79,3314.44 c -8.84,0 -17.67,-1.26 -26.31,-3.8 -25.38,-7.45 -46.19,-25.13 -58.6,-49.76 -12.68,-25.17 -15.12,-54.5 -6.87,-82.59 16.87,-57.41 73.69,-91.46 126.66,-75.9 52.97,15.56 82.34,74.93 65.46,132.35 v 0 c -8.25,28.1 -26.17,51.44 -50.45,65.75 -15.67,9.24 -32.78,13.95 -49.89,13.95 z m 8.78,-263.33 c -64.93,-0.01 -125.96,45.1 -146.14,113.78 -11.67,39.71 -8.11,81.39 10.01,117.37 18.4,36.5 49.52,62.77 87.64,73.97 38.12,11.19 78.51,5.95 113.72,-14.8 34.71,-20.45 60.25,-53.58 71.92,-93.29 24.26,-82.56 -19.55,-168.39 -97.65,-191.34 -13.12,-3.85 -26.39,-5.69 -39.5,-5.69"/>
          <path id="path256" style="fill:#93f6f8;fill-opacity:1;fill-rule:nonzero;stroke:none" d="m 3998.95,3593.74 c 20.6,-70.1 -15.91,-142.56 -81.56,-161.85 -65.64,-19.28 -135.55,21.9 -156.14,92 -20.6,70.1 15.91,142.56 81.55,161.85 65.64,19.29 135.55,-21.9 156.15,-92"/>
          <path id="path258" style="fill:#00d4d7;fill-opacity:1;fill-rule:nonzero;stroke:none" d="m 3875.67,3666.72 c -8.7,0 -17.48,-1.22 -26.17,-3.78 -52.97,-15.56 -82.33,-74.94 -65.46,-132.35 8.25,-28.09 26.17,-51.45 50.45,-65.75 23.77,-14.01 50.83,-17.61 76.21,-10.15 25.37,7.45 46.18,25.13 58.6,49.76 12.68,25.17 15.11,54.5 6.86,82.59 -14.11,48 -56.14,79.68 -100.49,79.68 z m 8.61,-263.37 c -25.46,0 -50.8,6.94 -73.91,20.56 -34.71,20.44 -60.25,53.58 -71.92,93.28 -24.25,82.56 19.55,168.39 97.65,191.35 78.11,22.92 161.39,-25.55 185.65,-108.1 11.66,-39.71 8.11,-81.39 -10.02,-117.37 -18.39,-36.5 -49.52,-62.77 -87.64,-73.97 -13.1,-3.85 -26.48,-5.75 -39.81,-5.75"/>
          <path id="path260" style="fill:#4ecab3;fill-opacity:1;fill-rule:nonzero;stroke:none" d="m 3024.96,3539.94 c 8,13.9 49.51,40.63 132.35,58.36 58.5,12.52 152.2,23.58 279.75,11.09 -90.12,-79.2 -165.97,-159.72 -218.89,-219.93 -186.75,107.77 -193.04,147.21 -193.21,150.48 z m 1677.23,19.81 c -30.74,70.61 -91.82,112.35 -176.65,120.72 -61.5,6.08 -113.8,-7.71 -116,-8.3 -12.65,-3.4 -20.15,-16.4 -16.77,-29.06 3.38,-12.66 16.4,-20.18 29.06,-16.84 7.3,1.94 179.6,45.91 236.79,-85.49 12.75,-29.25 12.22,-59.89 -1.6,-93.68 -61.05,-149.26 -369.51,-318.09 -637.84,-426.31 -8.72,-3.52 -17.56,-7 -26.49,-10.45 31.6,42.28 63.28,88.37 94.65,138.76 6.93,11.14 3.52,25.79 -7.62,32.73 -11.14,6.93 -25.79,3.52 -32.72,-7.62 -172.31,-276.78 -353.14,-421.79 -474.5,-494.7 -142.46,-85.59 -245.56,-97.56 -269.73,-85 -0.96,1.67 -6.92,15.07 8.59,65.09 l 177.55,73.72 c 20.75,8.62 37.83,24.37 48.12,44.33 l 116.44,226.16 c 6.01,11.66 1.42,25.99 -10.25,32 -11.66,6.01 -25.99,1.42 -31.99,-10.25 L 3494.78,2799.4 c -5.15,-10 -13.7,-17.88 -24.09,-22.2 l -136.63,-56.73 c 8.49,20.12 19.01,43.28 32.16,70.08 44.17,90.03 94.82,174.05 95.33,174.89 6.78,11.23 3.18,25.83 -8.05,32.62 -11.22,6.79 -25.83,3.18 -32.62,-8.05 -0.37,-0.6 -29.09,-48.25 -62.33,-110.41 -112.84,-1.01 -206.73,13.76 -279.21,44.07 -31.35,13.08 -69.02,39.48 -112.17,78.54 53.21,37.44 111.59,95.91 163.78,179.75 6.93,11.13 3.52,25.78 -7.62,32.72 -11.14,6.93 -25.79,3.52 -32.72,-7.62 -60.55,-97.26 -123.72,-149.43 -166.05,-176.08 -38.79,-24.41 -68.65,-32.86 -83.86,-34.64 5.77,22.72 29.3,72.01 56.57,117.17 6.79,11.23 3.19,25.84 -8.04,32.62 -11.24,6.79 -25.84,3.19 -32.62,-8.04 -2.45,-4.06 -5.04,-8.41 -7.72,-12.98 -58.69,67.67 -111.85,137.64 -147.69,186.76 -6.41,8.79 -8.14,19.74 -4.77,30.05 3.38,10.3 11.24,18.1 21.59,21.4 l 141.55,45.14 c 33.74,10.74 70.51,4.08 98.34,-17.84 l 177.23,-139.6 c 5.02,-3.96 11.43,-5.72 17.76,-4.9 6.34,0.83 12.08,4.17 15.92,9.28 0.27,0.35 26.89,35.63 72.42,88.23 59.31,68.55 153.88,170.1 267.61,264.65 100.77,83.72 198.76,147.15 291.26,188.51 111.81,49.99 216.09,67.83 309.9,52.98 64.9,-10.28 120.75,-31.06 166.01,-61.76 10.86,-7.37 25.63,-4.53 33,6.32 7.37,10.86 4.53,25.63 -6.33,33 -51.07,34.65 -113.4,57.99 -185.25,69.37 -185.04,29.27 -397.27,-53.29 -630.88,-245.26 -276.76,36.7 -469.89,-27.51 -503.48,-89.05 -22.92,-41.94 26.95,-88.16 66.46,-119.29 33.74,-26.58 79.76,-56.88 137.05,-90.25 -17.63,-20.85 -31.38,-37.83 -40.82,-49.73 l -158.46,124.82 c -40.23,31.7 -93.38,41.33 -142.17,25.79 l -141.55,-45.14 c -25.07,-7.99 -44.14,-26.9 -52.31,-51.9 -8.19,-25 -3.99,-51.53 11.53,-72.81 38.73,-53.08 97.39,-130.16 161.73,-203.1 -20.3,-39.83 -37.35,-82.82 -31.15,-105.78 2.49,-9.2 8.2,-16.64 16.08,-20.93 6.52,-3.56 15.28,-5.43 25.87,-5.42 22.85,0 54.21,8.72 89.82,27.63 51.41,-47.83 97.08,-80.27 135.86,-96.46 72.86,-30.46 164.52,-46.44 272.82,-47.71 -1.1,-2.18 -2.2,-4.36 -3.3,-6.55 -38.94,-77.77 -89.03,-187.37 -74.51,-241.13 4.85,-17.98 15.54,-27.03 23.64,-31.45 11.66,-6.36 28.5,-9.88 49.85,-9.88 59.3,0 153.34,27.13 267.45,95.68 90.47,54.35 212.67,147.11 340.09,300.79 34.23,11.74 67.83,24.21 99.9,37.16 134.57,54.27 580.16,247.31 664.04,452.38 18.67,45.64 19.07,89.6 1.19,130.64"/>
          <path id="path262" style="fill:#00d4d7;fill-opacity:1;fill-rule:nonzero;stroke:none" d="m 4289.34,3807.62 h 0.04 z m -6.27,-24.53 c -66.3,-7.46 -145.56,-30.98 -178.43,-76.1 -14.6,-20.05 -18.84,-42.7 -12.95,-69.25 4.98,-22.5 14.05,-36.91 27.71,-44.06 39.3,-20.57 119.88,12.42 190.97,41.52 24.26,9.93 49.11,20.11 72.79,28.41 -24.17,48.96 -57.74,89.04 -100.09,119.48 z m -132.88,-243.23 c -19.26,0 -37.06,3.47 -52.82,11.72 -26.47,13.85 -43.99,39.38 -52.07,75.88 -8.89,40.05 -1.84,76.23 20.94,107.51 17.73,24.34 74.62,82.36 219.83,96.2 5.63,0.8 11.56,-0.4 16.64,-3.84 60.25,-40.88 105.67,-97.76 134.97,-169.09 2.41,-5.87 2.38,-12.45 -0.09,-18.28 -2.47,-5.84 -7.17,-10.45 -13.06,-12.81 -0.7,-0.28 -1.41,-0.52 -2.14,-0.74 -28.59,-8.4 -60.37,-21.41 -94.02,-35.18 -61.97,-25.37 -125.49,-51.37 -178.18,-51.37"/>
          <path id="path264" style="fill:#b1b9c6;fill-opacity:1;fill-rule:nonzero;stroke:none" d="m 3183.84,3359.82 c -44.27,52.19 -8.16,95.38 44.03,139.64 52.19,44.27 100.69,72.85 144.95,20.66 44.27,-52.19 37.85,-130.38 -14.34,-174.64 -52.19,-44.27 -130.37,-37.84 -174.64,14.34"/>
          <path id="path266" style="fill:#678490;fill-opacity:1;fill-rule:nonzero;stroke:none" d="m 3320.21,3524.47 c -3.91,0 -7.58,-0.65 -11.04,-1.53 -21.4,-5.45 -46.48,-25.09 -65.93,-41.59 -19.46,-16.51 -42.93,-38.04 -51.8,-58.28 -5.07,-11.57 -7.79,-26.3 10.52,-47.88 v 0 c 17.3,-20.4 41.51,-32.84 68.17,-35.03 26.68,-2.15 52.58,6.13 72.98,23.44 20.4,17.3 32.84,41.51 35.03,68.18 2.19,26.66 -6.13,52.57 -23.44,72.97 -13.13,15.49 -24.56,19.72 -34.49,19.72 z m -41.64,-232.17 c -4.09,0 -8.2,0.17 -12.32,0.5 -39.31,3.23 -75.01,21.58 -100.53,51.66 v 0 c -26.52,31.26 -32.5,64.12 -17.79,97.69 12.7,28.97 39.77,54.39 64.57,75.43 24.8,21.04 54.3,43.6 84.96,51.4 35.5,9.05 66.96,-2.22 93.48,-33.49 25.51,-30.08 37.79,-68.29 34.56,-107.6 -3.23,-39.31 -21.57,-75.01 -51.65,-100.53 -26.92,-22.83 -60.37,-35.06 -95.28,-35.06"/>
          <path id="path268" style="fill:#b1b9c6;fill-opacity:1;fill-rule:nonzero;stroke:none" d="m 4639.48,3349.03 c 44.83,-51.7 9.19,-95.28 -42.51,-140.11 -51.7,-44.83 -99.88,-73.94 -144.72,-22.24 -44.83,51.7 -39.26,129.95 12.44,174.79 51.7,44.83 129.95,39.26 174.79,-12.44"/>
          <path id="path270" style="fill:#678490;fill-opacity:1;fill-rule:nonzero;stroke:none" d="m 4545.71,3368.01 c -24.08,0 -47.08,-8.56 -65.46,-24.49 -20.21,-17.53 -32.38,-41.87 -34.28,-68.56 -1.9,-26.68 6.71,-52.5 24.23,-72.71 23.58,-27.2 47.25,-30.84 111.21,24.62 19.27,16.71 42.51,38.5 51.15,58.83 4.95,11.62 7.51,26.39 -11.03,47.77 -17.53,20.21 -41.87,32.38 -68.56,34.28 -2.42,0.18 -4.85,0.26 -7.26,0.26 z m -41.97,-232.36 c -23.01,0 -46.88,9.46 -69.43,35.47 -25.85,29.79 -38.53,67.87 -35.73,107.21 2.79,39.35 20.75,75.25 50.55,101.09 29.79,25.84 67.87,38.54 107.21,35.72 39.35,-2.79 75.24,-20.75 101.09,-50.54 26.85,-30.98 33.2,-63.78 18.86,-97.5 -12.39,-29.11 -39.18,-54.82 -63.75,-76.13 -22.09,-19.15 -63.8,-55.32 -108.8,-55.32"/>
          <path id="path272" style="fill:#93f6f8;fill-opacity:1;fill-rule:nonzero;stroke:none" d="m 3070.01,3832.58 c -11.34,0 -22.16,-2.23 -32.11,-6.16 -19.42,27.67 -51.52,45.8 -87.89,45.8 -46.36,0 -85.74,-29.43 -100.78,-70.59 -8.82,3.65 -18.48,5.69 -28.62,5.69 -41.38,0 -74.92,-33.55 -74.92,-74.93 0,-41.38 33.54,-74.92 74.92,-74.92 23.34,0 227.8,0 249.4,0 48.36,0 87.56,39.2 87.56,87.55 0,48.36 -39.2,87.56 -87.56,87.56"/>
        </g>
      </g>
    </g>
  </g>
</svg>